<?xml version="1.0" encoding="UTF-8" standalone="no"?>
<svg
   width="310"
   height="240"
   viewBox="0 0 310 240"
   font-family="'Liberation Sans', Arial, Helvetica, sans-serif"
   version="1.1"
   xmlns="http://www.w3.org/2000/svg">
  <defs/>

  <!-- ===== CODI C (y=10..50) ===== -->
  <text x="60" y="26"
        font-family="'Liberation Mono', 'Courier New', Courier, monospace"
        font-size="11" fill="#343a40">void funcB() &#123; sentB; &#125;</text>

  <!-- Línia separadora codi / etiquetes columna -->
  <line x1="60" y1="50" x2="300" y2="50" stroke="#adb5bd" stroke-width="0.5"/>

  <!-- ===== ETIQUETES DE COLUMNA (y=50..100) ===== -->
  <!-- Col 0: abans de cridar a funcB -->
  <text x="90" y="65" text-anchor="middle" font-size="10" fill="#343a40">abans de</text>
  <text x="90" y="77" text-anchor="middle" font-size="10" fill="#343a40">cridar a</text>
  <text x="90" y="89"
        text-anchor="middle" font-size="10" font-style="italic" fill="#343a40">funcB</text>

  <!-- Col 1: mentre s'executa sentB -->
  <text x="180" y="65" text-anchor="middle" font-size="10" fill="#343a40">mentre</text>
  <text x="180" y="77" text-anchor="middle" font-size="10" fill="#343a40">s'executa</text>
  <text x="180" y="89"
        text-anchor="middle" font-size="10" font-style="italic" fill="#343a40">sentB</text>

  <!-- Col 2: després de retornar de funcB -->
  <text x="270" y="65" text-anchor="middle" font-size="10" fill="#343a40">després de</text>
  <text x="270" y="77" text-anchor="middle" font-size="10" fill="#343a40">retornar de</text>
  <text x="270" y="89"
        text-anchor="middle" font-size="10" font-style="italic" fill="#343a40">funcB</text>

  <!-- ===== ETIQUETES LATERALS ===== -->
  <text x="55" y="113" text-anchor="end" font-size="9" fill="#6c757d">adr.</text>
  <text x="55" y="123" text-anchor="end" font-size="9" fill="#6c757d">baixes</text>
  <text x="55" y="228" text-anchor="end" font-size="9" fill="#6c757d">adr.</text>
  <text x="55" y="238" text-anchor="end" font-size="9" fill="#6c757d">altes</text>

  <!-- ===================================================================== -->
  <!-- COL 0: abans de cridar a funcB                                        -->
  <!-- x=60..120, pila y=100..230                                            -->
  <!-- ===================================================================== -->

  <!-- Rectangle exterior de la pila -->
  <rect x="60" y="100" width="60" height="130"
        fill="#f8f9fa" stroke="#343a40" stroke-width="1"/>

  <!-- Zona hatch (fons ocupat): y=200..230, fill espai reservat -->
  <rect x="60" y="200" width="60" height="30"
        fill="#adb5bd" stroke="none"/>
  <!-- Línia superior de la zona hatch -->
  <line x1="60" y1="200" x2="120" y2="200" stroke="#343a40" stroke-width="1.5"/>

  <!-- Ticks laterals (cada 10px, longitud 4px cap a l'interior) -->
  <line x1="60" y1="110" x2="64" y2="110" stroke="#6c757d" stroke-width="0.75"/>
  <line x1="60" y1="120" x2="64" y2="120" stroke="#6c757d" stroke-width="0.75"/>
  <line x1="60" y1="130" x2="64" y2="130" stroke="#6c757d" stroke-width="0.75"/>
  <line x1="60" y1="140" x2="64" y2="140" stroke="#6c757d" stroke-width="0.75"/>
  <line x1="60" y1="150" x2="64" y2="150" stroke="#6c757d" stroke-width="0.75"/>
  <line x1="60" y1="160" x2="64" y2="160" stroke="#6c757d" stroke-width="0.75"/>
  <line x1="60" y1="170" x2="64" y2="170" stroke="#6c757d" stroke-width="0.75"/>
  <line x1="60" y1="180" x2="64" y2="180" stroke="#6c757d" stroke-width="0.75"/>
  <line x1="60" y1="190" x2="64" y2="190" stroke="#6c757d" stroke-width="0.75"/>
  <line x1="116" y1="110" x2="120" y2="110" stroke="#6c757d" stroke-width="0.75"/>
  <line x1="116" y1="120" x2="120" y2="120" stroke="#6c757d" stroke-width="0.75"/>
  <line x1="116" y1="130" x2="120" y2="130" stroke="#6c757d" stroke-width="0.75"/>
  <line x1="116" y1="140" x2="120" y2="140" stroke="#6c757d" stroke-width="0.75"/>
  <line x1="116" y1="150" x2="120" y2="150" stroke="#6c757d" stroke-width="0.75"/>
  <line x1="116" y1="160" x2="120" y2="160" stroke="#6c757d" stroke-width="0.75"/>
  <line x1="116" y1="170" x2="120" y2="170" stroke="#6c757d" stroke-width="0.75"/>
  <line x1="116" y1="180" x2="120" y2="180" stroke="#6c757d" stroke-width="0.75"/>
  <line x1="116" y1="190" x2="120" y2="190" stroke="#6c757d" stroke-width="0.75"/>

  <!-- sp → apunta a y=200 (sobre la zona hatch) -->
  <text x="55" y="203" text-anchor="end"
        font-family="'Liberation Mono', 'Courier New', Courier, monospace"
        font-size="10" font-weight="bold" fill="#664d03">sp →</text>

  <!-- ===================================================================== -->
  <!-- COL 1: mentre s'executa sentB                                         -->
  <!-- x=150..210, pila y=100..230                                           -->
  <!-- ===================================================================== -->

  <rect x="150" y="100" width="60" height="130"
        fill="#f8f9fa" stroke="#343a40" stroke-width="1"/>

  <!-- BA de funcB: y=140..200, fill pila -->
  <rect x="150" y="140" width="60" height="60"
        fill="#fff3cd" stroke="none"/>
  <!-- Línia superior del BA (cim, on apunta sp) -->
  <line x1="150" y1="140" x2="210" y2="140" stroke="#343a40" stroke-width="1.5"/>
  <!-- Línia inferior del BA -->
  <line x1="150" y1="200" x2="210" y2="200" stroke="#343a40" stroke-width="1.5"/>

  <!-- Text del BA -->
  <text x="180" y="167" text-anchor="middle" font-size="10" fill="#664d03">BA de</text>
  <text x="180" y="181"
        text-anchor="middle" font-size="10" font-style="italic" fill="#664d03">funcB</text>

  <!-- Zona hatch -->
  <rect x="150" y="200" width="60" height="30"
        fill="#adb5bd" stroke="none"/>

  <!-- Ticks -->
  <line x1="150" y1="110" x2="154" y2="110" stroke="#6c757d" stroke-width="0.75"/>
  <line x1="150" y1="120" x2="154" y2="120" stroke="#6c757d" stroke-width="0.75"/>
  <line x1="150" y1="130" x2="154" y2="130" stroke="#6c757d" stroke-width="0.75"/>
  <line x1="150" y1="150" x2="154" y2="150" stroke="#6c757d" stroke-width="0.75"/>
  <line x1="150" y1="160" x2="154" y2="160" stroke="#6c757d" stroke-width="0.75"/>
  <line x1="150" y1="170" x2="154" y2="170" stroke="#6c757d" stroke-width="0.75"/>
  <line x1="150" y1="180" x2="154" y2="180" stroke="#6c757d" stroke-width="0.75"/>
  <line x1="150" y1="190" x2="154" y2="190" stroke="#6c757d" stroke-width="0.75"/>
  <line x1="206" y1="110" x2="210" y2="110" stroke="#6c757d" stroke-width="0.75"/>
  <line x1="206" y1="120" x2="210" y2="120" stroke="#6c757d" stroke-width="0.75"/>
  <line x1="206" y1="130" x2="210" y2="130" stroke="#6c757d" stroke-width="0.75"/>
  <line x1="206" y1="150" x2="210" y2="150" stroke="#6c757d" stroke-width="0.75"/>
  <line x1="206" y1="160" x2="210" y2="160" stroke="#6c757d" stroke-width="0.75"/>
  <line x1="206" y1="170" x2="210" y2="170" stroke="#6c757d" stroke-width="0.75"/>
  <line x1="206" y1="180" x2="210" y2="180" stroke="#6c757d" stroke-width="0.75"/>
  <line x1="206" y1="190" x2="210" y2="190" stroke="#6c757d" stroke-width="0.75"/>

  <!-- sp → apunta a y=140 (cim del BA) -->
  <text x="145" y="143" text-anchor="end"
        font-family="'Liberation Mono', 'Courier New', Courier, monospace"
        font-size="10" font-weight="bold" fill="#664d03">sp →</text>

  <!-- ===================================================================== -->
  <!-- COL 2: després de retornar de funcB                                   -->
  <!-- x=240..300, pila y=100..230                                           -->
  <!-- ===================================================================== -->

  <rect x="240" y="100" width="60" height="130"
        fill="#f8f9fa" stroke="#343a40" stroke-width="1"/>

  <!-- Zona hatch -->
  <rect x="240" y="200" width="60" height="30"
        fill="#adb5bd" stroke="none"/>
  <line x1="240" y1="200" x2="300" y2="200" stroke="#343a40" stroke-width="1.5"/>

  <!-- Ticks -->
  <line x1="240" y1="110" x2="244" y2="110" stroke="#6c757d" stroke-width="0.75"/>
  <line x1="240" y1="120" x2="244" y2="120" stroke="#6c757d" stroke-width="0.75"/>
  <line x1="240" y1="130" x2="244" y2="130" stroke="#6c757d" stroke-width="0.75"/>
  <line x1="240" y1="140" x2="244" y2="140" stroke="#6c757d" stroke-width="0.75"/>
  <line x1="240" y1="150" x2="244" y2="150" stroke="#6c757d" stroke-width="0.75"/>
  <line x1="240" y1="160" x2="244" y2="160" stroke="#6c757d" stroke-width="0.75"/>
  <line x1="240" y1="170" x2="244" y2="170" stroke="#6c757d" stroke-width="0.75"/>
  <line x1="240" y1="180" x2="244" y2="180" stroke="#6c757d" stroke-width="0.75"/>
  <line x1="240" y1="190" x2="244" y2="190" stroke="#6c757d" stroke-width="0.75"/>
  <line x1="296" y1="110" x2="300" y2="110" stroke="#6c757d" stroke-width="0.75"/>
  <line x1="296" y1="120" x2="300" y2="120" stroke="#6c757d" stroke-width="0.75"/>
  <line x1="296" y1="130" x2="300" y2="130" stroke="#6c757d" stroke-width="0.75"/>
  <line x1="296" y1="140" x2="300" y2="140" stroke="#6c757d" stroke-width="0.75"/>
  <line x1="296" y1="150" x2="300" y2="150" stroke="#6c757d" stroke-width="0.75"/>
  <line x1="296" y1="160" x2="300" y2="160" stroke="#6c757d" stroke-width="0.75"/>
  <line x1="296" y1="170" x2="300" y2="170" stroke="#6c757d" stroke-width="0.75"/>
  <line x1="296" y1="180" x2="300" y2="180" stroke="#6c757d" stroke-width="0.75"/>
  <line x1="296" y1="190" x2="300" y2="190" stroke="#6c757d" stroke-width="0.75"/>

  <!-- sp → apunta a y=200 -->
  <text x="235" y="203" text-anchor="end"
        font-family="'Liberation Mono', 'Courier New', Courier, monospace"
        font-size="10" font-weight="bold" fill="#664d03">sp →</text>

</svg>
