<svg width="100%" viewBox="0 0 708 64" xmlns="http://www.w3.org/2000/svg" role="img">
<title>Format d'instrucció tipus R (RV32I)</title>
<desc>funct7(31–25), rs2(24–20), rs1(19–15), funct3(14–12), rd(11–7), opcode(6–0).</desc>
<rect x="2" y="16" width="154" height="44" fill="#3a2e00" stroke="#ffd966" stroke-width="1"/>
<line x1="24" y1="16" x2="24" y2="21" stroke="#ffd966" stroke-width="0.75"/>
<line x1="24" y1="60" x2="24" y2="55" stroke="#ffd966" stroke-width="0.75"/>
<line x1="46" y1="16" x2="46" y2="21" stroke="#ffd966" stroke-width="0.75"/>
<line x1="46" y1="60" x2="46" y2="55" stroke="#ffd966" stroke-width="0.75"/>
<line x1="68" y1="16" x2="68" y2="21" stroke="#ffd966" stroke-width="0.75"/>
<line x1="68" y1="60" x2="68" y2="55" stroke="#ffd966" stroke-width="0.75"/>
<line x1="90" y1="16" x2="90" y2="21" stroke="#ffd966" stroke-width="0.75"/>
<line x1="90" y1="60" x2="90" y2="55" stroke="#ffd966" stroke-width="0.75"/>
<line x1="112" y1="16" x2="112" y2="21" stroke="#ffd966" stroke-width="0.75"/>
<line x1="112" y1="60" x2="112" y2="55" stroke="#ffd966" stroke-width="0.75"/>
<line x1="134" y1="16" x2="134" y2="21" stroke="#ffd966" stroke-width="0.75"/>
<line x1="134" y1="60" x2="134" y2="55" stroke="#ffd966" stroke-width="0.75"/>
<text x="3" y="13" font-family="'Liberation Mono', 'Courier New', Courier, monospace" font-size="10" fill="#adb5bd" text-anchor="start">31</text>
<text x="155" y="13" font-family="'Liberation Mono', 'Courier New', Courier, monospace" font-size="10" fill="#adb5bd" text-anchor="end">25</text>
<text x="79.0" y="38.0" font-family="'Liberation Sans', Arial, Helvetica, sans-serif" font-size="12" fill="#ffd966" text-anchor="middle" dominant-baseline="middle">funct7</text>
<rect x="156" y="16" width="110" height="44" fill="#1a3a5c" stroke="#90bfff" stroke-width="1"/>
<line x1="178" y1="16" x2="178" y2="21" stroke="#90bfff" stroke-width="0.75"/>
<line x1="178" y1="60" x2="178" y2="55" stroke="#90bfff" stroke-width="0.75"/>
<line x1="200" y1="16" x2="200" y2="21" stroke="#90bfff" stroke-width="0.75"/>
<line x1="200" y1="60" x2="200" y2="55" stroke="#90bfff" stroke-width="0.75"/>
<line x1="222" y1="16" x2="222" y2="21" stroke="#90bfff" stroke-width="0.75"/>
<line x1="222" y1="60" x2="222" y2="55" stroke="#90bfff" stroke-width="0.75"/>
<line x1="244" y1="16" x2="244" y2="21" stroke="#90bfff" stroke-width="0.75"/>
<line x1="244" y1="60" x2="244" y2="55" stroke="#90bfff" stroke-width="0.75"/>
<text x="157" y="13" font-family="'Liberation Mono', 'Courier New', Courier, monospace" font-size="10" fill="#adb5bd" text-anchor="start">24</text>
<text x="265" y="13" font-family="'Liberation Mono', 'Courier New', Courier, monospace" font-size="10" fill="#adb5bd" text-anchor="end">20</text>
<text x="211.0" y="38.0" font-family="'Liberation Sans', Arial, Helvetica, sans-serif" font-size="12" fill="#90bfff" text-anchor="middle" dominant-baseline="middle">rs2</text>
<rect x="266" y="16" width="110" height="44" fill="#1a3a5c" stroke="#90bfff" stroke-width="1"/>
<line x1="288" y1="16" x2="288" y2="21" stroke="#90bfff" stroke-width="0.75"/>
<line x1="288" y1="60" x2="288" y2="55" stroke="#90bfff" stroke-width="0.75"/>
<line x1="310" y1="16" x2="310" y2="21" stroke="#90bfff" stroke-width="0.75"/>
<line x1="310" y1="60" x2="310" y2="55" stroke="#90bfff" stroke-width="0.75"/>
<line x1="332" y1="16" x2="332" y2="21" stroke="#90bfff" stroke-width="0.75"/>
<line x1="332" y1="60" x2="332" y2="55" stroke="#90bfff" stroke-width="0.75"/>
<line x1="354" y1="16" x2="354" y2="21" stroke="#90bfff" stroke-width="0.75"/>
<line x1="354" y1="60" x2="354" y2="55" stroke="#90bfff" stroke-width="0.75"/>
<text x="267" y="13" font-family="'Liberation Mono', 'Courier New', Courier, monospace" font-size="10" fill="#adb5bd" text-anchor="start">19</text>
<text x="375" y="13" font-family="'Liberation Mono', 'Courier New', Courier, monospace" font-size="10" fill="#adb5bd" text-anchor="end">15</text>
<text x="321.0" y="38.0" font-family="'Liberation Sans', Arial, Helvetica, sans-serif" font-size="12" fill="#90bfff" text-anchor="middle" dominant-baseline="middle">rs1</text>
<rect x="376" y="16" width="66" height="44" fill="#3a2e00" stroke="#ffd966" stroke-width="1"/>
<line x1="398" y1="16" x2="398" y2="21" stroke="#ffd966" stroke-width="0.75"/>
<line x1="398" y1="60" x2="398" y2="55" stroke="#ffd966" stroke-width="0.75"/>
<line x1="420" y1="16" x2="420" y2="21" stroke="#ffd966" stroke-width="0.75"/>
<line x1="420" y1="60" x2="420" y2="55" stroke="#ffd966" stroke-width="0.75"/>
<text x="377" y="13" font-family="'Liberation Mono', 'Courier New', Courier, monospace" font-size="10" fill="#adb5bd" text-anchor="start">14</text>
<text x="441" y="13" font-family="'Liberation Mono', 'Courier New', Courier, monospace" font-size="10" fill="#adb5bd" text-anchor="end">12</text>
<text x="409.0" y="38.0" font-family="'Liberation Sans', Arial, Helvetica, sans-serif" font-size="12" fill="#ffd966" text-anchor="middle" dominant-baseline="middle">funct3</text>
<rect x="442" y="16" width="110" height="44" fill="#1a3a5c" stroke="#90bfff" stroke-width="1"/>
<line x1="464" y1="16" x2="464" y2="21" stroke="#90bfff" stroke-width="0.75"/>
<line x1="464" y1="60" x2="464" y2="55" stroke="#90bfff" stroke-width="0.75"/>
<line x1="486" y1="16" x2="486" y2="21" stroke="#90bfff" stroke-width="0.75"/>
<line x1="486" y1="60" x2="486" y2="55" stroke="#90bfff" stroke-width="0.75"/>
<line x1="508" y1="16" x2="508" y2="21" stroke="#90bfff" stroke-width="0.75"/>
<line x1="508" y1="60" x2="508" y2="55" stroke="#90bfff" stroke-width="0.75"/>
<line x1="530" y1="16" x2="530" y2="21" stroke="#90bfff" stroke-width="0.75"/>
<line x1="530" y1="60" x2="530" y2="55" stroke="#90bfff" stroke-width="0.75"/>
<text x="443" y="13" font-family="'Liberation Mono', 'Courier New', Courier, monospace" font-size="10" fill="#adb5bd" text-anchor="start">11</text>
<text x="551" y="13" font-family="'Liberation Mono', 'Courier New', Courier, monospace" font-size="10" fill="#adb5bd" text-anchor="end">7</text>
<text x="497.0" y="38.0" font-family="'Liberation Sans', Arial, Helvetica, sans-serif" font-size="12" fill="#90bfff" text-anchor="middle" dominant-baseline="middle">rd</text>
<rect x="552" y="16" width="154" height="44" fill="#1a3a2a" stroke="#90d4aa" stroke-width="1"/>
<line x1="574" y1="16" x2="574" y2="21" stroke="#90d4aa" stroke-width="0.75"/>
<line x1="574" y1="60" x2="574" y2="55" stroke="#90d4aa" stroke-width="0.75"/>
<line x1="596" y1="16" x2="596" y2="21" stroke="#90d4aa" stroke-width="0.75"/>
<line x1="596" y1="60" x2="596" y2="55" stroke="#90d4aa" stroke-width="0.75"/>
<line x1="618" y1="16" x2="618" y2="21" stroke="#90d4aa" stroke-width="0.75"/>
<line x1="618" y1="60" x2="618" y2="55" stroke="#90d4aa" stroke-width="0.75"/>
<line x1="640" y1="16" x2="640" y2="21" stroke="#90d4aa" stroke-width="0.75"/>
<line x1="640" y1="60" x2="640" y2="55" stroke="#90d4aa" stroke-width="0.75"/>
<line x1="662" y1="16" x2="662" y2="21" stroke="#90d4aa" stroke-width="0.75"/>
<line x1="662" y1="60" x2="662" y2="55" stroke="#90d4aa" stroke-width="0.75"/>
<line x1="684" y1="16" x2="684" y2="21" stroke="#90d4aa" stroke-width="0.75"/>
<line x1="684" y1="60" x2="684" y2="55" stroke="#90d4aa" stroke-width="0.75"/>
<text x="553" y="13" font-family="'Liberation Mono', 'Courier New', Courier, monospace" font-size="10" fill="#adb5bd" text-anchor="start">6</text>
<text x="705" y="13" font-family="'Liberation Mono', 'Courier New', Courier, monospace" font-size="10" fill="#adb5bd" text-anchor="end">0</text>
<text x="629.0" y="38.0" font-family="'Liberation Sans', Arial, Helvetica, sans-serif" font-size="12" fill="#90d4aa" text-anchor="middle" dominant-baseline="middle">opcode</text>
</svg>