<svg width="100%" viewBox="0 0 708 64" xmlns="http://www.w3.org/2000/svg" role="img">
<title>Registre de control i estat de coma flotant fcsr (RV32F)</title>
<desc>Reserved(31–8), RM(7–5), NV(4), DZ(3), OF(2), UF(1), NX(0).</desc>
<rect x="2" y="16" width="528" height="44" fill="#3d3d3d" stroke="#888888" stroke-width="1"/>
<line x1="24" y1="16" x2="24" y2="21" stroke="#888888" stroke-width="0.75"/>
<line x1="24" y1="60" x2="24" y2="55" stroke="#888888" stroke-width="0.75"/>
<line x1="46" y1="16" x2="46" y2="21" stroke="#888888" stroke-width="0.75"/>
<line x1="46" y1="60" x2="46" y2="55" stroke="#888888" stroke-width="0.75"/>
<line x1="68" y1="16" x2="68" y2="21" stroke="#888888" stroke-width="0.75"/>
<line x1="68" y1="60" x2="68" y2="55" stroke="#888888" stroke-width="0.75"/>
<line x1="90" y1="16" x2="90" y2="21" stroke="#888888" stroke-width="0.75"/>
<line x1="90" y1="60" x2="90" y2="55" stroke="#888888" stroke-width="0.75"/>
<line x1="112" y1="16" x2="112" y2="21" stroke="#888888" stroke-width="0.75"/>
<line x1="112" y1="60" x2="112" y2="55" stroke="#888888" stroke-width="0.75"/>
<line x1="134" y1="16" x2="134" y2="21" stroke="#888888" stroke-width="0.75"/>
<line x1="134" y1="60" x2="134" y2="55" stroke="#888888" stroke-width="0.75"/>
<line x1="156" y1="16" x2="156" y2="21" stroke="#888888" stroke-width="0.75"/>
<line x1="156" y1="60" x2="156" y2="55" stroke="#888888" stroke-width="0.75"/>
<line x1="178" y1="16" x2="178" y2="21" stroke="#888888" stroke-width="0.75"/>
<line x1="178" y1="60" x2="178" y2="55" stroke="#888888" stroke-width="0.75"/>
<line x1="200" y1="16" x2="200" y2="21" stroke="#888888" stroke-width="0.75"/>
<line x1="200" y1="60" x2="200" y2="55" stroke="#888888" stroke-width="0.75"/>
<line x1="222" y1="16" x2="222" y2="21" stroke="#888888" stroke-width="0.75"/>
<line x1="222" y1="60" x2="222" y2="55" stroke="#888888" stroke-width="0.75"/>
<line x1="244" y1="16" x2="244" y2="21" stroke="#888888" stroke-width="0.75"/>
<line x1="244" y1="60" x2="244" y2="55" stroke="#888888" stroke-width="0.75"/>
<line x1="266" y1="16" x2="266" y2="21" stroke="#888888" stroke-width="0.75"/>
<line x1="266" y1="60" x2="266" y2="55" stroke="#888888" stroke-width="0.75"/>
<line x1="288" y1="16" x2="288" y2="21" stroke="#888888" stroke-width="0.75"/>
<line x1="288" y1="60" x2="288" y2="55" stroke="#888888" stroke-width="0.75"/>
<line x1="310" y1="16" x2="310" y2="21" stroke="#888888" stroke-width="0.75"/>
<line x1="310" y1="60" x2="310" y2="55" stroke="#888888" stroke-width="0.75"/>
<line x1="332" y1="16" x2="332" y2="21" stroke="#888888" stroke-width="0.75"/>
<line x1="332" y1="60" x2="332" y2="55" stroke="#888888" stroke-width="0.75"/>
<line x1="354" y1="16" x2="354" y2="21" stroke="#888888" stroke-width="0.75"/>
<line x1="354" y1="60" x2="354" y2="55" stroke="#888888" stroke-width="0.75"/>
<line x1="376" y1="16" x2="376" y2="21" stroke="#888888" stroke-width="0.75"/>
<line x1="376" y1="60" x2="376" y2="55" stroke="#888888" stroke-width="0.75"/>
<line x1="398" y1="16" x2="398" y2="21" stroke="#888888" stroke-width="0.75"/>
<line x1="398" y1="60" x2="398" y2="55" stroke="#888888" stroke-width="0.75"/>
<line x1="420" y1="16" x2="420" y2="21" stroke="#888888" stroke-width="0.75"/>
<line x1="420" y1="60" x2="420" y2="55" stroke="#888888" stroke-width="0.75"/>
<line x1="442" y1="16" x2="442" y2="21" stroke="#888888" stroke-width="0.75"/>
<line x1="442" y1="60" x2="442" y2="55" stroke="#888888" stroke-width="0.75"/>
<line x1="464" y1="16" x2="464" y2="21" stroke="#888888" stroke-width="0.75"/>
<line x1="464" y1="60" x2="464" y2="55" stroke="#888888" stroke-width="0.75"/>
<line x1="486" y1="16" x2="486" y2="21" stroke="#888888" stroke-width="0.75"/>
<line x1="486" y1="60" x2="486" y2="55" stroke="#888888" stroke-width="0.75"/>
<line x1="508" y1="16" x2="508" y2="21" stroke="#888888" stroke-width="0.75"/>
<line x1="508" y1="60" x2="508" y2="55" stroke="#888888" stroke-width="0.75"/>
<text x="3" y="13" font-family="'Liberation Mono', 'Courier New', Courier, monospace" font-size="10" fill="#adb5bd" text-anchor="start">31</text>
<text x="529" y="13" font-family="'Liberation Mono', 'Courier New', Courier, monospace" font-size="10" fill="#adb5bd" text-anchor="end">8</text>
<text x="266.0" y="38.0" font-family="'Liberation Sans', Arial, Helvetica, sans-serif" font-size="12" fill="#adb5bd" text-anchor="middle" dominant-baseline="middle">Reserved</text>
<rect x="530" y="16" width="66" height="44" fill="#3a1a1e" stroke="#f1a8ae" stroke-width="1"/>
<line x1="552" y1="16" x2="552" y2="21" stroke="#f1a8ae" stroke-width="0.75"/>
<line x1="552" y1="60" x2="552" y2="55" stroke="#f1a8ae" stroke-width="0.75"/>
<line x1="574" y1="16" x2="574" y2="21" stroke="#f1a8ae" stroke-width="0.75"/>
<line x1="574" y1="60" x2="574" y2="55" stroke="#f1a8ae" stroke-width="0.75"/>
<text x="531" y="13" font-family="'Liberation Mono', 'Courier New', Courier, monospace" font-size="10" fill="#adb5bd" text-anchor="start">7</text>
<text x="595" y="13" font-family="'Liberation Mono', 'Courier New', Courier, monospace" font-size="10" fill="#adb5bd" text-anchor="end">5</text>
<text x="563.0" y="38.0" font-family="'Liberation Sans', Arial, Helvetica, sans-serif" font-size="12" fill="#f1a8ae" text-anchor="middle" dominant-baseline="middle">RM</text>
<rect x="596" y="16" width="22" height="44" fill="#1a3a5c" stroke="#90bfff" stroke-width="1"/>
<text x="597" y="13" font-family="'Liberation Mono', 'Courier New', Courier, monospace" font-size="10" fill="#adb5bd" text-anchor="start">4</text>
<text transform="rotate(-90,607.0,38.0)" x="607.0" y="38.0" font-family="'Liberation Sans', Arial, Helvetica, sans-serif" font-size="11" fill="#90bfff" text-anchor="middle" dominant-baseline="middle">NV</text>
<rect x="618" y="16" width="22" height="44" fill="#1a3a5c" stroke="#90bfff" stroke-width="1"/>
<text x="619" y="13" font-family="'Liberation Mono', 'Courier New', Courier, monospace" font-size="10" fill="#adb5bd" text-anchor="start">3</text>
<text transform="rotate(-90,629.0,38.0)" x="629.0" y="38.0" font-family="'Liberation Sans', Arial, Helvetica, sans-serif" font-size="11" fill="#90bfff" text-anchor="middle" dominant-baseline="middle">DZ</text>
<rect x="640" y="16" width="22" height="44" fill="#1a3a5c" stroke="#90bfff" stroke-width="1"/>
<text x="641" y="13" font-family="'Liberation Mono', 'Courier New', Courier, monospace" font-size="10" fill="#adb5bd" text-anchor="start">2</text>
<text transform="rotate(-90,651.0,38.0)" x="651.0" y="38.0" font-family="'Liberation Sans', Arial, Helvetica, sans-serif" font-size="11" fill="#90bfff" text-anchor="middle" dominant-baseline="middle">OF</text>
<rect x="662" y="16" width="22" height="44" fill="#1a3a5c" stroke="#90bfff" stroke-width="1"/>
<text x="663" y="13" font-family="'Liberation Mono', 'Courier New', Courier, monospace" font-size="10" fill="#adb5bd" text-anchor="start">1</text>
<text transform="rotate(-90,673.0,38.0)" x="673.0" y="38.0" font-family="'Liberation Sans', Arial, Helvetica, sans-serif" font-size="11" fill="#90bfff" text-anchor="middle" dominant-baseline="middle">UF</text>
<rect x="684" y="16" width="22" height="44" fill="#1a3a5c" stroke="#90bfff" stroke-width="1"/>
<text x="685" y="13" font-family="'Liberation Mono', 'Courier New', Courier, monospace" font-size="10" fill="#adb5bd" text-anchor="start">0</text>
<text transform="rotate(-90,695.0,38.0)" x="695.0" y="38.0" font-family="'Liberation Sans', Arial, Helvetica, sans-serif" font-size="11" fill="#90bfff" text-anchor="middle" dominant-baseline="middle">NX</text>
</svg>