<svg width="100%" viewBox="0 0 708 64" xmlns="http://www.w3.org/2000/svg" role="img">
<title>Registre d'interrupcions pendents mip (RV32I Zicsr)</title>
<desc>MEIP(11), SEIP(9), MTIP(7), STIP(5), MSIP(3), SSIP(1); resta WPRI.</desc>
<rect x="2" y="16" width="440" height="44" fill="#3d3d3d" stroke="#888888" stroke-width="1"/>
<line x1="24" y1="16" x2="24" y2="21" stroke="#888888" stroke-width="0.75"/>
<line x1="24" y1="60" x2="24" y2="55" stroke="#888888" stroke-width="0.75"/>
<line x1="46" y1="16" x2="46" y2="21" stroke="#888888" stroke-width="0.75"/>
<line x1="46" y1="60" x2="46" y2="55" stroke="#888888" stroke-width="0.75"/>
<line x1="68" y1="16" x2="68" y2="21" stroke="#888888" stroke-width="0.75"/>
<line x1="68" y1="60" x2="68" y2="55" stroke="#888888" stroke-width="0.75"/>
<line x1="90" y1="16" x2="90" y2="21" stroke="#888888" stroke-width="0.75"/>
<line x1="90" y1="60" x2="90" y2="55" stroke="#888888" stroke-width="0.75"/>
<line x1="112" y1="16" x2="112" y2="21" stroke="#888888" stroke-width="0.75"/>
<line x1="112" y1="60" x2="112" y2="55" stroke="#888888" stroke-width="0.75"/>
<line x1="134" y1="16" x2="134" y2="21" stroke="#888888" stroke-width="0.75"/>
<line x1="134" y1="60" x2="134" y2="55" stroke="#888888" stroke-width="0.75"/>
<line x1="156" y1="16" x2="156" y2="21" stroke="#888888" stroke-width="0.75"/>
<line x1="156" y1="60" x2="156" y2="55" stroke="#888888" stroke-width="0.75"/>
<line x1="178" y1="16" x2="178" y2="21" stroke="#888888" stroke-width="0.75"/>
<line x1="178" y1="60" x2="178" y2="55" stroke="#888888" stroke-width="0.75"/>
<line x1="200" y1="16" x2="200" y2="21" stroke="#888888" stroke-width="0.75"/>
<line x1="200" y1="60" x2="200" y2="55" stroke="#888888" stroke-width="0.75"/>
<line x1="222" y1="16" x2="222" y2="21" stroke="#888888" stroke-width="0.75"/>
<line x1="222" y1="60" x2="222" y2="55" stroke="#888888" stroke-width="0.75"/>
<line x1="244" y1="16" x2="244" y2="21" stroke="#888888" stroke-width="0.75"/>
<line x1="244" y1="60" x2="244" y2="55" stroke="#888888" stroke-width="0.75"/>
<line x1="266" y1="16" x2="266" y2="21" stroke="#888888" stroke-width="0.75"/>
<line x1="266" y1="60" x2="266" y2="55" stroke="#888888" stroke-width="0.75"/>
<line x1="288" y1="16" x2="288" y2="21" stroke="#888888" stroke-width="0.75"/>
<line x1="288" y1="60" x2="288" y2="55" stroke="#888888" stroke-width="0.75"/>
<line x1="310" y1="16" x2="310" y2="21" stroke="#888888" stroke-width="0.75"/>
<line x1="310" y1="60" x2="310" y2="55" stroke="#888888" stroke-width="0.75"/>
<line x1="332" y1="16" x2="332" y2="21" stroke="#888888" stroke-width="0.75"/>
<line x1="332" y1="60" x2="332" y2="55" stroke="#888888" stroke-width="0.75"/>
<line x1="354" y1="16" x2="354" y2="21" stroke="#888888" stroke-width="0.75"/>
<line x1="354" y1="60" x2="354" y2="55" stroke="#888888" stroke-width="0.75"/>
<line x1="376" y1="16" x2="376" y2="21" stroke="#888888" stroke-width="0.75"/>
<line x1="376" y1="60" x2="376" y2="55" stroke="#888888" stroke-width="0.75"/>
<line x1="398" y1="16" x2="398" y2="21" stroke="#888888" stroke-width="0.75"/>
<line x1="398" y1="60" x2="398" y2="55" stroke="#888888" stroke-width="0.75"/>
<line x1="420" y1="16" x2="420" y2="21" stroke="#888888" stroke-width="0.75"/>
<line x1="420" y1="60" x2="420" y2="55" stroke="#888888" stroke-width="0.75"/>
<text x="3" y="13" font-family="'Liberation Mono', 'Courier New', Courier, monospace" font-size="10" fill="#adb5bd" text-anchor="start">31</text>
<text x="441" y="13" font-family="'Liberation Mono', 'Courier New', Courier, monospace" font-size="10" fill="#adb5bd" text-anchor="end">12</text>
<text x="222.0" y="38.0" font-family="'Liberation Sans', Arial, Helvetica, sans-serif" font-size="12" fill="#adb5bd" text-anchor="middle" dominant-baseline="middle">WPRI</text>
<rect x="442" y="16" width="22" height="44" fill="#1a3a5c" stroke="#90bfff" stroke-width="1"/>
<text x="443" y="13" font-family="'Liberation Mono', 'Courier New', Courier, monospace" font-size="10" fill="#adb5bd" text-anchor="start">11</text>
<text transform="rotate(-90,453.0,38.0)" x="453.0" y="38.0" font-family="'Liberation Sans', Arial, Helvetica, sans-serif" font-size="9.08" fill="#90bfff" text-anchor="middle" dominant-baseline="middle">MEIP</text>
<rect x="464" y="16" width="22" height="44" fill="#3d3d3d" stroke="#888888" stroke-width="1"/>
<text x="465" y="13" font-family="'Liberation Mono', 'Courier New', Courier, monospace" font-size="10" fill="#adb5bd" text-anchor="start">10</text>
<text transform="rotate(-90,475.0,38.0)" x="475.0" y="38.0" font-family="'Liberation Sans', Arial, Helvetica, sans-serif" font-size="9.08" fill="#adb5bd" text-anchor="middle" dominant-baseline="middle">WPRI</text>
<rect x="486" y="16" width="22" height="44" fill="#1a3a5c" stroke="#90bfff" stroke-width="1"/>
<text x="487" y="13" font-family="'Liberation Mono', 'Courier New', Courier, monospace" font-size="10" fill="#adb5bd" text-anchor="start">9</text>
<text transform="rotate(-90,497.0,38.0)" x="497.0" y="38.0" font-family="'Liberation Sans', Arial, Helvetica, sans-serif" font-size="9.08" fill="#90bfff" text-anchor="middle" dominant-baseline="middle">SEIP</text>
<rect x="508" y="16" width="22" height="44" fill="#3d3d3d" stroke="#888888" stroke-width="1"/>
<text x="509" y="13" font-family="'Liberation Mono', 'Courier New', Courier, monospace" font-size="10" fill="#adb5bd" text-anchor="start">8</text>
<text transform="rotate(-90,519.0,38.0)" x="519.0" y="38.0" font-family="'Liberation Sans', Arial, Helvetica, sans-serif" font-size="9.08" fill="#adb5bd" text-anchor="middle" dominant-baseline="middle">WPRI</text>
<rect x="530" y="16" width="22" height="44" fill="#1a3a5c" stroke="#90bfff" stroke-width="1"/>
<text x="531" y="13" font-family="'Liberation Mono', 'Courier New', Courier, monospace" font-size="10" fill="#adb5bd" text-anchor="start">7</text>
<text transform="rotate(-90,541.0,38.0)" x="541.0" y="38.0" font-family="'Liberation Sans', Arial, Helvetica, sans-serif" font-size="9.08" fill="#90bfff" text-anchor="middle" dominant-baseline="middle">MTIP</text>
<rect x="552" y="16" width="22" height="44" fill="#3d3d3d" stroke="#888888" stroke-width="1"/>
<text x="553" y="13" font-family="'Liberation Mono', 'Courier New', Courier, monospace" font-size="10" fill="#adb5bd" text-anchor="start">6</text>
<text transform="rotate(-90,563.0,38.0)" x="563.0" y="38.0" font-family="'Liberation Sans', Arial, Helvetica, sans-serif" font-size="9.08" fill="#adb5bd" text-anchor="middle" dominant-baseline="middle">WPRI</text>
<rect x="574" y="16" width="22" height="44" fill="#1a3a5c" stroke="#90bfff" stroke-width="1"/>
<text x="575" y="13" font-family="'Liberation Mono', 'Courier New', Courier, monospace" font-size="10" fill="#adb5bd" text-anchor="start">5</text>
<text transform="rotate(-90,585.0,38.0)" x="585.0" y="38.0" font-family="'Liberation Sans', Arial, Helvetica, sans-serif" font-size="9.08" fill="#90bfff" text-anchor="middle" dominant-baseline="middle">STIP</text>
<rect x="596" y="16" width="22" height="44" fill="#3d3d3d" stroke="#888888" stroke-width="1"/>
<text x="597" y="13" font-family="'Liberation Mono', 'Courier New', Courier, monospace" font-size="10" fill="#adb5bd" text-anchor="start">4</text>
<text transform="rotate(-90,607.0,38.0)" x="607.0" y="38.0" font-family="'Liberation Sans', Arial, Helvetica, sans-serif" font-size="9.08" fill="#adb5bd" text-anchor="middle" dominant-baseline="middle">WPRI</text>
<rect x="618" y="16" width="22" height="44" fill="#1a3a5c" stroke="#90bfff" stroke-width="1"/>
<text x="619" y="13" font-family="'Liberation Mono', 'Courier New', Courier, monospace" font-size="10" fill="#adb5bd" text-anchor="start">3</text>
<text transform="rotate(-90,629.0,38.0)" x="629.0" y="38.0" font-family="'Liberation Sans', Arial, Helvetica, sans-serif" font-size="9.08" fill="#90bfff" text-anchor="middle" dominant-baseline="middle">MSIP</text>
<rect x="640" y="16" width="22" height="44" fill="#3d3d3d" stroke="#888888" stroke-width="1"/>
<text x="641" y="13" font-family="'Liberation Mono', 'Courier New', Courier, monospace" font-size="10" fill="#adb5bd" text-anchor="start">2</text>
<text transform="rotate(-90,651.0,38.0)" x="651.0" y="38.0" font-family="'Liberation Sans', Arial, Helvetica, sans-serif" font-size="9.08" fill="#adb5bd" text-anchor="middle" dominant-baseline="middle">WPRI</text>
<rect x="662" y="16" width="22" height="44" fill="#1a3a5c" stroke="#90bfff" stroke-width="1"/>
<text x="663" y="13" font-family="'Liberation Mono', 'Courier New', Courier, monospace" font-size="10" fill="#adb5bd" text-anchor="start">1</text>
<text transform="rotate(-90,673.0,38.0)" x="673.0" y="38.0" font-family="'Liberation Sans', Arial, Helvetica, sans-serif" font-size="9.08" fill="#90bfff" text-anchor="middle" dominant-baseline="middle">SSIP</text>
<rect x="684" y="16" width="22" height="44" fill="#3d3d3d" stroke="#888888" stroke-width="1"/>
<text x="685" y="13" font-family="'Liberation Mono', 'Courier New', Courier, monospace" font-size="10" fill="#adb5bd" text-anchor="start">0</text>
<text transform="rotate(-90,695.0,38.0)" x="695.0" y="38.0" font-family="'Liberation Sans', Arial, Helvetica, sans-serif" font-size="9.08" fill="#adb5bd" text-anchor="middle" dominant-baseline="middle">WPRI</text>
</svg>