<svg width="100%" viewBox="0 0 708 64" xmlns="http://www.w3.org/2000/svg" role="img">
<title>Registre d'estat de màquina mstatus (RV32I Zicsr)</title>
<desc>SD(31), WPRI(30–23), TSR(22), TW(21), TVM(20), MXR(19), SUM(18), MPRV(17), XS(16–15), FS(14–13), MPP(12–11), VS(10–9), SPP(8), MPIE(7), UBE(6), SPIE(5), WPRI(4), MIE(3), WPRI(2), SIE(1), WPRI(0).</desc>
<rect x="2" y="16" width="22" height="44" fill="#fff3cd" stroke="#664d03" stroke-width="1"/>
<text x="3" y="13" font-family="'Liberation Mono', 'Courier New', Courier, monospace" font-size="10" fill="#6c757d" text-anchor="start">31</text>
<text transform="rotate(-90,13.0,38.0)" x="13.0" y="38.0" font-family="'Liberation Sans', Arial, Helvetica, sans-serif" font-size="11" fill="#664d03" text-anchor="middle" dominant-baseline="middle">SD</text>
<rect x="24" y="16" width="176" height="44" fill="#f8f9fa" stroke="#adb5bd" stroke-width="1"/>
<line x1="46" y1="16" x2="46" y2="21" stroke="#adb5bd" stroke-width="0.75"/>
<line x1="46" y1="60" x2="46" y2="55" stroke="#adb5bd" stroke-width="0.75"/>
<line x1="68" y1="16" x2="68" y2="21" stroke="#adb5bd" stroke-width="0.75"/>
<line x1="68" y1="60" x2="68" y2="55" stroke="#adb5bd" stroke-width="0.75"/>
<line x1="90" y1="16" x2="90" y2="21" stroke="#adb5bd" stroke-width="0.75"/>
<line x1="90" y1="60" x2="90" y2="55" stroke="#adb5bd" stroke-width="0.75"/>
<line x1="112" y1="16" x2="112" y2="21" stroke="#adb5bd" stroke-width="0.75"/>
<line x1="112" y1="60" x2="112" y2="55" stroke="#adb5bd" stroke-width="0.75"/>
<line x1="134" y1="16" x2="134" y2="21" stroke="#adb5bd" stroke-width="0.75"/>
<line x1="134" y1="60" x2="134" y2="55" stroke="#adb5bd" stroke-width="0.75"/>
<line x1="156" y1="16" x2="156" y2="21" stroke="#adb5bd" stroke-width="0.75"/>
<line x1="156" y1="60" x2="156" y2="55" stroke="#adb5bd" stroke-width="0.75"/>
<line x1="178" y1="16" x2="178" y2="21" stroke="#adb5bd" stroke-width="0.75"/>
<line x1="178" y1="60" x2="178" y2="55" stroke="#adb5bd" stroke-width="0.75"/>
<text x="25" y="13" font-family="'Liberation Mono', 'Courier New', Courier, monospace" font-size="10" fill="#6c757d" text-anchor="start">30</text>
<text x="199" y="13" font-family="'Liberation Mono', 'Courier New', Courier, monospace" font-size="10" fill="#6c757d" text-anchor="end">23</text>
<text x="112.0" y="38.0" font-family="'Liberation Sans', Arial, Helvetica, sans-serif" font-size="12" fill="#6c757d" text-anchor="middle" dominant-baseline="middle">WPRI</text>
<rect x="200" y="16" width="22" height="44" fill="#fff3cd" stroke="#664d03" stroke-width="1"/>
<text x="201" y="13" font-family="'Liberation Mono', 'Courier New', Courier, monospace" font-size="10" fill="#6c757d" text-anchor="start">22</text>
<text transform="rotate(-90,211.0,38.0)" x="211.0" y="38.0" font-family="'Liberation Sans', Arial, Helvetica, sans-serif" font-size="11" fill="#664d03" text-anchor="middle" dominant-baseline="middle">TSR</text>
<rect x="222" y="16" width="22" height="44" fill="#fff3cd" stroke="#664d03" stroke-width="1"/>
<text x="223" y="13" font-family="'Liberation Mono', 'Courier New', Courier, monospace" font-size="10" fill="#6c757d" text-anchor="start">21</text>
<text transform="rotate(-90,233.0,38.0)" x="233.0" y="38.0" font-family="'Liberation Sans', Arial, Helvetica, sans-serif" font-size="11" fill="#664d03" text-anchor="middle" dominant-baseline="middle">TW</text>
<rect x="244" y="16" width="22" height="44" fill="#fff3cd" stroke="#664d03" stroke-width="1"/>
<text x="245" y="13" font-family="'Liberation Mono', 'Courier New', Courier, monospace" font-size="10" fill="#6c757d" text-anchor="start">20</text>
<text transform="rotate(-90,255.0,38.0)" x="255.0" y="38.0" font-family="'Liberation Sans', Arial, Helvetica, sans-serif" font-size="11" fill="#664d03" text-anchor="middle" dominant-baseline="middle">TVM</text>
<rect x="266" y="16" width="22" height="44" fill="#fff3cd" stroke="#664d03" stroke-width="1"/>
<text x="267" y="13" font-family="'Liberation Mono', 'Courier New', Courier, monospace" font-size="10" fill="#6c757d" text-anchor="start">19</text>
<text transform="rotate(-90,277.0,38.0)" x="277.0" y="38.0" font-family="'Liberation Sans', Arial, Helvetica, sans-serif" font-size="11" fill="#664d03" text-anchor="middle" dominant-baseline="middle">MXR</text>
<rect x="288" y="16" width="22" height="44" fill="#fff3cd" stroke="#664d03" stroke-width="1"/>
<text x="289" y="13" font-family="'Liberation Mono', 'Courier New', Courier, monospace" font-size="10" fill="#6c757d" text-anchor="start">18</text>
<text transform="rotate(-90,299.0,38.0)" x="299.0" y="38.0" font-family="'Liberation Sans', Arial, Helvetica, sans-serif" font-size="11" fill="#664d03" text-anchor="middle" dominant-baseline="middle">SUM</text>
<rect x="310" y="16" width="22" height="44" fill="#fff3cd" stroke="#664d03" stroke-width="1"/>
<text x="311" y="13" font-family="'Liberation Mono', 'Courier New', Courier, monospace" font-size="10" fill="#6c757d" text-anchor="start">17</text>
<text transform="rotate(-90,321.0,38.0)" x="321.0" y="38.0" font-family="'Liberation Sans', Arial, Helvetica, sans-serif" font-size="9.08" fill="#664d03" text-anchor="middle" dominant-baseline="middle">MPRV</text>
<rect x="332" y="16" width="44" height="44" fill="#f8d7da" stroke="#842029" stroke-width="1"/>
<line x1="354" y1="16" x2="354" y2="21" stroke="#842029" stroke-width="0.75"/>
<line x1="354" y1="60" x2="354" y2="55" stroke="#842029" stroke-width="0.75"/>
<text x="333" y="13" font-family="'Liberation Mono', 'Courier New', Courier, monospace" font-size="10" fill="#6c757d" text-anchor="start">16</text>
<text x="375" y="13" font-family="'Liberation Mono', 'Courier New', Courier, monospace" font-size="10" fill="#6c757d" text-anchor="end">15</text>
<text x="354.0" y="38.0" font-family="'Liberation Sans', Arial, Helvetica, sans-serif" font-size="12" fill="#842029" text-anchor="middle" dominant-baseline="middle">XS</text>
<rect x="376" y="16" width="44" height="44" fill="#f8d7da" stroke="#842029" stroke-width="1"/>
<line x1="398" y1="16" x2="398" y2="21" stroke="#842029" stroke-width="0.75"/>
<line x1="398" y1="60" x2="398" y2="55" stroke="#842029" stroke-width="0.75"/>
<text x="377" y="13" font-family="'Liberation Mono', 'Courier New', Courier, monospace" font-size="10" fill="#6c757d" text-anchor="start">14</text>
<text x="419" y="13" font-family="'Liberation Mono', 'Courier New', Courier, monospace" font-size="10" fill="#6c757d" text-anchor="end">13</text>
<text x="398.0" y="38.0" font-family="'Liberation Sans', Arial, Helvetica, sans-serif" font-size="12" fill="#842029" text-anchor="middle" dominant-baseline="middle">FS</text>
<rect x="420" y="16" width="44" height="44" fill="#d1e7dd" stroke="#0a3622" stroke-width="1"/>
<line x1="442" y1="16" x2="442" y2="21" stroke="#0a3622" stroke-width="0.75"/>
<line x1="442" y1="60" x2="442" y2="55" stroke="#0a3622" stroke-width="0.75"/>
<text x="421" y="13" font-family="'Liberation Mono', 'Courier New', Courier, monospace" font-size="10" fill="#6c757d" text-anchor="start">12</text>
<text x="463" y="13" font-family="'Liberation Mono', 'Courier New', Courier, monospace" font-size="10" fill="#6c757d" text-anchor="end">11</text>
<text x="442.0" y="38.0" font-family="'Liberation Sans', Arial, Helvetica, sans-serif" font-size="12" fill="#0a3622" text-anchor="middle" dominant-baseline="middle">MPP</text>
<rect x="464" y="16" width="44" height="44" fill="#f8d7da" stroke="#842029" stroke-width="1"/>
<line x1="486" y1="16" x2="486" y2="21" stroke="#842029" stroke-width="0.75"/>
<line x1="486" y1="60" x2="486" y2="55" stroke="#842029" stroke-width="0.75"/>
<text x="465" y="13" font-family="'Liberation Mono', 'Courier New', Courier, monospace" font-size="10" fill="#6c757d" text-anchor="start">10</text>
<text x="507" y="13" font-family="'Liberation Mono', 'Courier New', Courier, monospace" font-size="10" fill="#6c757d" text-anchor="end">9</text>
<text x="486.0" y="38.0" font-family="'Liberation Sans', Arial, Helvetica, sans-serif" font-size="12" fill="#842029" text-anchor="middle" dominant-baseline="middle">VS</text>
<rect x="508" y="16" width="22" height="44" fill="#d1e7dd" stroke="#0a3622" stroke-width="1"/>
<text x="509" y="13" font-family="'Liberation Mono', 'Courier New', Courier, monospace" font-size="10" fill="#6c757d" text-anchor="start">8</text>
<text transform="rotate(-90,519.0,38.0)" x="519.0" y="38.0" font-family="'Liberation Sans', Arial, Helvetica, sans-serif" font-size="11" fill="#0a3622" text-anchor="middle" dominant-baseline="middle">SPP</text>
<rect x="530" y="16" width="22" height="44" fill="#cfe2ff" stroke="#084298" stroke-width="1"/>
<text x="531" y="13" font-family="'Liberation Mono', 'Courier New', Courier, monospace" font-size="10" fill="#6c757d" text-anchor="start">7</text>
<text transform="rotate(-90,541.0,38.0)" x="541.0" y="38.0" font-family="'Liberation Sans', Arial, Helvetica, sans-serif" font-size="9.08" fill="#084298" text-anchor="middle" dominant-baseline="middle">MPIE</text>
<rect x="552" y="16" width="22" height="44" fill="#f8f9fa" stroke="#adb5bd" stroke-width="1"/>
<text x="553" y="13" font-family="'Liberation Mono', 'Courier New', Courier, monospace" font-size="10" fill="#6c757d" text-anchor="start">6</text>
<text transform="rotate(-90,563.0,38.0)" x="563.0" y="38.0" font-family="'Liberation Sans', Arial, Helvetica, sans-serif" font-size="11" fill="#6c757d" text-anchor="middle" dominant-baseline="middle">UBE</text>
<rect x="574" y="16" width="22" height="44" fill="#cfe2ff" stroke="#084298" stroke-width="1"/>
<text x="575" y="13" font-family="'Liberation Mono', 'Courier New', Courier, monospace" font-size="10" fill="#6c757d" text-anchor="start">5</text>
<text transform="rotate(-90,585.0,38.0)" x="585.0" y="38.0" font-family="'Liberation Sans', Arial, Helvetica, sans-serif" font-size="9.08" fill="#084298" text-anchor="middle" dominant-baseline="middle">SPIE</text>
<rect x="596" y="16" width="22" height="44" fill="#f8f9fa" stroke="#adb5bd" stroke-width="1"/>
<text x="597" y="13" font-family="'Liberation Mono', 'Courier New', Courier, monospace" font-size="10" fill="#6c757d" text-anchor="start">4</text>
<text transform="rotate(-90,607.0,38.0)" x="607.0" y="38.0" font-family="'Liberation Sans', Arial, Helvetica, sans-serif" font-size="9.08" fill="#6c757d" text-anchor="middle" dominant-baseline="middle">WPRI</text>
<rect x="618" y="16" width="22" height="44" fill="#cfe2ff" stroke="#084298" stroke-width="1"/>
<text x="619" y="13" font-family="'Liberation Mono', 'Courier New', Courier, monospace" font-size="10" fill="#6c757d" text-anchor="start">3</text>
<text transform="rotate(-90,629.0,38.0)" x="629.0" y="38.0" font-family="'Liberation Sans', Arial, Helvetica, sans-serif" font-size="11" fill="#084298" text-anchor="middle" dominant-baseline="middle">MIE</text>
<rect x="640" y="16" width="22" height="44" fill="#f8f9fa" stroke="#adb5bd" stroke-width="1"/>
<text x="641" y="13" font-family="'Liberation Mono', 'Courier New', Courier, monospace" font-size="10" fill="#6c757d" text-anchor="start">2</text>
<text transform="rotate(-90,651.0,38.0)" x="651.0" y="38.0" font-family="'Liberation Sans', Arial, Helvetica, sans-serif" font-size="9.08" fill="#6c757d" text-anchor="middle" dominant-baseline="middle">WPRI</text>
<rect x="662" y="16" width="22" height="44" fill="#cfe2ff" stroke="#084298" stroke-width="1"/>
<text x="663" y="13" font-family="'Liberation Mono', 'Courier New', Courier, monospace" font-size="10" fill="#6c757d" text-anchor="start">1</text>
<text transform="rotate(-90,673.0,38.0)" x="673.0" y="38.0" font-family="'Liberation Sans', Arial, Helvetica, sans-serif" font-size="11" fill="#084298" text-anchor="middle" dominant-baseline="middle">SIE</text>
<rect x="684" y="16" width="22" height="44" fill="#f8f9fa" stroke="#adb5bd" stroke-width="1"/>
<text x="685" y="13" font-family="'Liberation Mono', 'Courier New', Courier, monospace" font-size="10" fill="#6c757d" text-anchor="start">0</text>
<text transform="rotate(-90,695.0,38.0)" x="695.0" y="38.0" font-family="'Liberation Sans', Arial, Helvetica, sans-serif" font-size="9.08" fill="#6c757d" text-anchor="middle" dominant-baseline="middle">WPRI</text>
</svg>