<svg width="100%" viewBox="0 0 708 64" xmlns="http://www.w3.org/2000/svg" role="img">
<title>Registre de causa de trampa mcause (RV32I Zicsr)</title>
<desc>Int.(31) [Interrupt]: 1=interrupció, 0=excepció. Exception Code(30–0): codi de causa.</desc>
<rect x="2" y="16" width="22" height="44" fill="#1a3a2a" stroke="#90d4aa" stroke-width="1"/>
<text x="3" y="13" font-family="'Liberation Mono', 'Courier New', Courier, monospace" font-size="10" fill="#adb5bd" text-anchor="start">31</text>
<text transform="rotate(-90,13.0,38.0)" x="13.0" y="38.0" font-family="'Liberation Sans', Arial, Helvetica, sans-serif" font-size="9.08" fill="#90d4aa" text-anchor="middle" dominant-baseline="middle">Int.</text>
<rect x="24" y="16" width="682" height="44" fill="#3a2e00" stroke="#ffd966" stroke-width="1"/>
<line x1="46" y1="16" x2="46" y2="21" stroke="#ffd966" stroke-width="0.75"/>
<line x1="46" y1="60" x2="46" y2="55" stroke="#ffd966" stroke-width="0.75"/>
<line x1="68" y1="16" x2="68" y2="21" stroke="#ffd966" stroke-width="0.75"/>
<line x1="68" y1="60" x2="68" y2="55" stroke="#ffd966" stroke-width="0.75"/>
<line x1="90" y1="16" x2="90" y2="21" stroke="#ffd966" stroke-width="0.75"/>
<line x1="90" y1="60" x2="90" y2="55" stroke="#ffd966" stroke-width="0.75"/>
<line x1="112" y1="16" x2="112" y2="21" stroke="#ffd966" stroke-width="0.75"/>
<line x1="112" y1="60" x2="112" y2="55" stroke="#ffd966" stroke-width="0.75"/>
<line x1="134" y1="16" x2="134" y2="21" stroke="#ffd966" stroke-width="0.75"/>
<line x1="134" y1="60" x2="134" y2="55" stroke="#ffd966" stroke-width="0.75"/>
<line x1="156" y1="16" x2="156" y2="21" stroke="#ffd966" stroke-width="0.75"/>
<line x1="156" y1="60" x2="156" y2="55" stroke="#ffd966" stroke-width="0.75"/>
<line x1="178" y1="16" x2="178" y2="21" stroke="#ffd966" stroke-width="0.75"/>
<line x1="178" y1="60" x2="178" y2="55" stroke="#ffd966" stroke-width="0.75"/>
<line x1="200" y1="16" x2="200" y2="21" stroke="#ffd966" stroke-width="0.75"/>
<line x1="200" y1="60" x2="200" y2="55" stroke="#ffd966" stroke-width="0.75"/>
<line x1="222" y1="16" x2="222" y2="21" stroke="#ffd966" stroke-width="0.75"/>
<line x1="222" y1="60" x2="222" y2="55" stroke="#ffd966" stroke-width="0.75"/>
<line x1="244" y1="16" x2="244" y2="21" stroke="#ffd966" stroke-width="0.75"/>
<line x1="244" y1="60" x2="244" y2="55" stroke="#ffd966" stroke-width="0.75"/>
<line x1="266" y1="16" x2="266" y2="21" stroke="#ffd966" stroke-width="0.75"/>
<line x1="266" y1="60" x2="266" y2="55" stroke="#ffd966" stroke-width="0.75"/>
<line x1="288" y1="16" x2="288" y2="21" stroke="#ffd966" stroke-width="0.75"/>
<line x1="288" y1="60" x2="288" y2="55" stroke="#ffd966" stroke-width="0.75"/>
<line x1="310" y1="16" x2="310" y2="21" stroke="#ffd966" stroke-width="0.75"/>
<line x1="310" y1="60" x2="310" y2="55" stroke="#ffd966" stroke-width="0.75"/>
<line x1="332" y1="16" x2="332" y2="21" stroke="#ffd966" stroke-width="0.75"/>
<line x1="332" y1="60" x2="332" y2="55" stroke="#ffd966" stroke-width="0.75"/>
<line x1="354" y1="16" x2="354" y2="21" stroke="#ffd966" stroke-width="0.75"/>
<line x1="354" y1="60" x2="354" y2="55" stroke="#ffd966" stroke-width="0.75"/>
<line x1="376" y1="16" x2="376" y2="21" stroke="#ffd966" stroke-width="0.75"/>
<line x1="376" y1="60" x2="376" y2="55" stroke="#ffd966" stroke-width="0.75"/>
<line x1="398" y1="16" x2="398" y2="21" stroke="#ffd966" stroke-width="0.75"/>
<line x1="398" y1="60" x2="398" y2="55" stroke="#ffd966" stroke-width="0.75"/>
<line x1="420" y1="16" x2="420" y2="21" stroke="#ffd966" stroke-width="0.75"/>
<line x1="420" y1="60" x2="420" y2="55" stroke="#ffd966" stroke-width="0.75"/>
<line x1="442" y1="16" x2="442" y2="21" stroke="#ffd966" stroke-width="0.75"/>
<line x1="442" y1="60" x2="442" y2="55" stroke="#ffd966" stroke-width="0.75"/>
<line x1="464" y1="16" x2="464" y2="21" stroke="#ffd966" stroke-width="0.75"/>
<line x1="464" y1="60" x2="464" y2="55" stroke="#ffd966" stroke-width="0.75"/>
<line x1="486" y1="16" x2="486" y2="21" stroke="#ffd966" stroke-width="0.75"/>
<line x1="486" y1="60" x2="486" y2="55" stroke="#ffd966" stroke-width="0.75"/>
<line x1="508" y1="16" x2="508" y2="21" stroke="#ffd966" stroke-width="0.75"/>
<line x1="508" y1="60" x2="508" y2="55" stroke="#ffd966" stroke-width="0.75"/>
<line x1="530" y1="16" x2="530" y2="21" stroke="#ffd966" stroke-width="0.75"/>
<line x1="530" y1="60" x2="530" y2="55" stroke="#ffd966" stroke-width="0.75"/>
<line x1="552" y1="16" x2="552" y2="21" stroke="#ffd966" stroke-width="0.75"/>
<line x1="552" y1="60" x2="552" y2="55" stroke="#ffd966" stroke-width="0.75"/>
<line x1="574" y1="16" x2="574" y2="21" stroke="#ffd966" stroke-width="0.75"/>
<line x1="574" y1="60" x2="574" y2="55" stroke="#ffd966" stroke-width="0.75"/>
<line x1="596" y1="16" x2="596" y2="21" stroke="#ffd966" stroke-width="0.75"/>
<line x1="596" y1="60" x2="596" y2="55" stroke="#ffd966" stroke-width="0.75"/>
<line x1="618" y1="16" x2="618" y2="21" stroke="#ffd966" stroke-width="0.75"/>
<line x1="618" y1="60" x2="618" y2="55" stroke="#ffd966" stroke-width="0.75"/>
<line x1="640" y1="16" x2="640" y2="21" stroke="#ffd966" stroke-width="0.75"/>
<line x1="640" y1="60" x2="640" y2="55" stroke="#ffd966" stroke-width="0.75"/>
<line x1="662" y1="16" x2="662" y2="21" stroke="#ffd966" stroke-width="0.75"/>
<line x1="662" y1="60" x2="662" y2="55" stroke="#ffd966" stroke-width="0.75"/>
<line x1="684" y1="16" x2="684" y2="21" stroke="#ffd966" stroke-width="0.75"/>
<line x1="684" y1="60" x2="684" y2="55" stroke="#ffd966" stroke-width="0.75"/>
<text x="25" y="13" font-family="'Liberation Mono', 'Courier New', Courier, monospace" font-size="10" fill="#adb5bd" text-anchor="start">30</text>
<text x="705" y="13" font-family="'Liberation Mono', 'Courier New', Courier, monospace" font-size="10" fill="#adb5bd" text-anchor="end">0</text>
<text x="365.0" y="38.0" font-family="'Liberation Sans', Arial, Helvetica, sans-serif" font-size="12" fill="#ffd966" text-anchor="middle" dominant-baseline="middle">Exception Code</text>
</svg>