<svg width="100%" viewBox="0 0 680 284" xmlns="http://www.w3.org/2000/svg" role="img">
<title>Exemple de traducció amb TLB, pas 1</title>
<desc>Accés 1 de l’exemple: Escriptura a 0x00002A0B → VPN 0x00002. Encert de TLB. Primera escriptura: D = 1 al TLB i a la PTE. PPN 0x02 → adreça física 0x2A0B.</desc>
<text x="20" y="24" font-family="'Liberation Sans', Arial, Helvetica, sans-serif" font-size="14" fill="#343a40" text-anchor="start" font-weight="bold">Accés 1: Escriptura a 0x00002A0B → VPN 0x00002</text>
<text x="20" y="44" font-family="'Liberation Sans', Arial, Helvetica, sans-serif" font-size="11" fill="#343a40" text-anchor="start">Encert de TLB. Primera escriptura: D = 1 al TLB i a la PTE.</text>
<text x="20" y="60" font-family="'Liberation Sans', Arial, Helvetica, sans-serif" font-size="11" fill="#343a40" text-anchor="start">PPN 0x02 → adreça física 0x2A0B</text>
<text x="110" y="86" font-family="'Liberation Sans', Arial, Helvetica, sans-serif" font-size="11" fill="#343a40" text-anchor="middle" font-weight="bold">TLB</text>
<text x="32.0" y="104" font-family="'Liberation Sans', Arial, Helvetica, sans-serif" font-size="11" fill="#343a40" text-anchor="middle" font-weight="bold">V</text>
<text x="76.0" y="104" font-family="'Liberation Sans', Arial, Helvetica, sans-serif" font-size="11" fill="#343a40" text-anchor="middle" font-weight="bold">VPN</text>
<text x="120.0" y="104" font-family="'Liberation Sans', Arial, Helvetica, sans-serif" font-size="11" fill="#343a40" text-anchor="middle" font-weight="bold">D</text>
<text x="144.0" y="104" font-family="'Liberation Sans', Arial, Helvetica, sans-serif" font-size="11" fill="#343a40" text-anchor="middle" font-weight="bold">E</text>
<text x="178.0" y="104" font-family="'Liberation Sans', Arial, Helvetica, sans-serif" font-size="11" fill="#343a40" text-anchor="middle" font-weight="bold">PPN</text>
<rect x="20" y="112" width="24" height="22" fill="#fff3cd"/>
<path d="M20,112.5H44 M20.5,112V134" fill="none" stroke="#664d03" stroke-width="1"/><text x="32.0" y="127.16666666666667" font-family="'Liberation Mono', 'Courier New', Courier, monospace" font-size="11" fill="#664d03" text-anchor="middle">1</text>
<rect x="44" y="112" width="64" height="22" fill="#fff3cd"/>
<path d="M44,112.5H108 M44,112V134" fill="none" stroke="#664d03" stroke-width="1"/><text x="76.0" y="127.16666666666667" font-family="'Liberation Mono', 'Courier New', Courier, monospace" font-size="11" fill="#664d03" text-anchor="middle">0x00003</text>
<rect x="108" y="112" width="24" height="22" fill="#fff3cd"/>
<path d="M108,112.5H132 M108,112V134" fill="none" stroke="#664d03" stroke-width="1"/><text x="120.0" y="127.16666666666667" font-family="'Liberation Mono', 'Courier New', Courier, monospace" font-size="11" fill="#664d03" text-anchor="middle">1</text>
<rect x="132" y="112" width="24" height="22" fill="#fff3cd"/>
<path d="M132,112.5H156 M132,112V134" fill="none" stroke="#664d03" stroke-width="1"/><text x="144.0" y="127.16666666666667" font-family="'Liberation Mono', 'Courier New', Courier, monospace" font-size="11" fill="#664d03" text-anchor="middle">1</text>
<rect x="156" y="112" width="44" height="22" fill="#fff3cd"/>
<path d="M156,112.5H200 M156,112V134 M199.5,112V134" fill="none" stroke="#664d03" stroke-width="1"/><text x="178.0" y="127.16666666666667" font-family="'Liberation Mono', 'Courier New', Courier, monospace" font-size="11" fill="#664d03" text-anchor="middle">0x00</text>
<rect x="20" y="134" width="24" height="22" fill="#fff3cd"/>
<path d="M20,134H44 M20.5,134V156" fill="none" stroke="#664d03" stroke-width="1"/><text x="32.0" y="149.16666666666666" font-family="'Liberation Mono', 'Courier New', Courier, monospace" font-size="11" fill="#664d03" text-anchor="middle">1</text>
<rect x="44" y="134" width="64" height="22" fill="#fff3cd"/>
<path d="M44,134H108 M44,134V156" fill="none" stroke="#664d03" stroke-width="1"/><text x="76.0" y="149.16666666666666" font-family="'Liberation Mono', 'Courier New', Courier, monospace" font-size="11" fill="#664d03" text-anchor="middle">0x00000</text>
<rect x="108" y="134" width="24" height="22" fill="#fff3cd"/>
<path d="M108,134H132 M108,134V156" fill="none" stroke="#664d03" stroke-width="1"/><text x="120.0" y="149.16666666666666" font-family="'Liberation Mono', 'Courier New', Courier, monospace" font-size="11" fill="#664d03" text-anchor="middle">0</text>
<rect x="132" y="134" width="24" height="22" fill="#fff3cd"/>
<path d="M132,134H156 M132,134V156" fill="none" stroke="#664d03" stroke-width="1"/><text x="144.0" y="149.16666666666666" font-family="'Liberation Mono', 'Courier New', Courier, monospace" font-size="11" fill="#664d03" text-anchor="middle">1</text>
<rect x="156" y="134" width="44" height="22" fill="#fff3cd"/>
<path d="M156,134H200 M156,134V156 M199.5,134V156" fill="none" stroke="#664d03" stroke-width="1"/><text x="178.0" y="149.16666666666666" font-family="'Liberation Mono', 'Courier New', Courier, monospace" font-size="11" fill="#664d03" text-anchor="middle">0x01</text>
<rect x="20" y="156" width="24" height="22" fill="#fff3cd"/>
<path d="M20,156H44 M20,177.5H44 M20.5,156V178" fill="none" stroke="#664d03" stroke-width="1"/><text x="32.0" y="171.16666666666666" font-family="'Liberation Mono', 'Courier New', Courier, monospace" font-size="11" fill="#664d03" text-anchor="middle">1</text>
<rect x="44" y="156" width="64" height="22" fill="#fff3cd"/>
<path d="M44,156H108 M44,177.5H108 M44,156V178" fill="none" stroke="#664d03" stroke-width="1"/><text x="76.0" y="171.16666666666666" font-family="'Liberation Mono', 'Courier New', Courier, monospace" font-size="11" fill="#664d03" text-anchor="middle">0x00002</text>
<rect x="108" y="156" width="24" height="22" fill="#fff3cd"/>
<path d="M108,156H132 M108,177.5H132 M108,156V178" fill="none" stroke="#664d03" stroke-width="1"/><text x="120.0" y="171.16666666666666" font-family="'Liberation Mono', 'Courier New', Courier, monospace" font-size="11" fill="#664d03" text-anchor="middle">1</text>
<rect x="132" y="156" width="24" height="22" fill="#fff3cd"/>
<path d="M132,156H156 M132,177.5H156 M132,156V178" fill="none" stroke="#664d03" stroke-width="1"/><text x="144.0" y="171.16666666666666" font-family="'Liberation Mono', 'Courier New', Courier, monospace" font-size="11" fill="#664d03" text-anchor="middle">1</text>
<rect x="156" y="156" width="44" height="22" fill="#fff3cd"/>
<path d="M156,156H200 M156,177.5H200 M156,156V178 M199.5,156V178" fill="none" stroke="#664d03" stroke-width="1"/><text x="178.0" y="171.16666666666666" font-family="'Liberation Mono', 'Courier New', Courier, monospace" font-size="11" fill="#664d03" text-anchor="middle">0x02</text>
<rect x="20" y="178" width="24" height="22" fill="#f8f9fa"/>
<path d="M20,178.5H44 M20,199.5H44 M20.5,178V200" fill="none" stroke="#adb5bd" stroke-width="1"/><text x="32.0" y="193.16666666666666" font-family="'Liberation Mono', 'Courier New', Courier, monospace" font-size="11" fill="#6c757d" text-anchor="middle">0</text>
<rect x="44" y="178" width="64" height="22" fill="#f8f9fa"/>
<path d="M44,178.5H108 M44,199.5H108 M44,178V200" fill="none" stroke="#adb5bd" stroke-width="1"/>
<rect x="108" y="178" width="24" height="22" fill="#f8f9fa"/>
<path d="M108,178.5H132 M108,199.5H132 M108,178V200" fill="none" stroke="#adb5bd" stroke-width="1"/><text x="120.0" y="193.16666666666666" font-family="'Liberation Mono', 'Courier New', Courier, monospace" font-size="11" fill="#6c757d" text-anchor="middle">—</text>
<rect x="132" y="178" width="24" height="22" fill="#f8f9fa"/>
<path d="M132,178.5H156 M132,199.5H156 M132,178V200" fill="none" stroke="#adb5bd" stroke-width="1"/><text x="144.0" y="193.16666666666666" font-family="'Liberation Mono', 'Courier New', Courier, monospace" font-size="11" fill="#6c757d" text-anchor="middle">—</text>
<rect x="156" y="178" width="44" height="22" fill="#f8f9fa"/>
<path d="M156,178.5H200 M156,199.5H200 M156,178V200 M199.5,178V200" fill="none" stroke="#adb5bd" stroke-width="1"/><text x="178.0" y="193.16666666666666" font-family="'Liberation Mono', 'Courier New', Courier, monospace" font-size="11" fill="#6c757d" text-anchor="middle">—</text>
<rect x="20" y="156" width="180" height="22" fill="none" stroke="#343a40" stroke-width="2"/>
<text x="76" y="193.0" font-family="'Liberation Sans', Arial, Helvetica, sans-serif" font-size="10" fill="#6c757d" text-anchor="middle" font-style="italic">lliure</text>
<text x="348" y="86" font-family="'Liberation Sans', Arial, Helvetica, sans-serif" font-size="11" fill="#343a40" text-anchor="middle" font-weight="bold">Taula de pàgines</text>
<text x="282" y="104" font-family="'Liberation Sans', Arial, Helvetica, sans-serif" font-size="11" fill="#6c757d" text-anchor="end" font-weight="bold">VPN</text>
<text x="302.0" y="104" font-family="'Liberation Sans', Arial, Helvetica, sans-serif" font-size="11" fill="#343a40" text-anchor="middle" font-weight="bold">V</text>
<text x="326.0" y="104" font-family="'Liberation Sans', Arial, Helvetica, sans-serif" font-size="11" fill="#343a40" text-anchor="middle" font-weight="bold">D</text>
<text x="350.0" y="104" font-family="'Liberation Sans', Arial, Helvetica, sans-serif" font-size="11" fill="#343a40" text-anchor="middle" font-weight="bold">E</text>
<text x="384.0" y="104" font-family="'Liberation Sans', Arial, Helvetica, sans-serif" font-size="11" fill="#343a40" text-anchor="middle" font-weight="bold">PPN</text>
<text x="282" y="127.0" font-family="'Liberation Mono', 'Courier New', Courier, monospace" font-size="11" fill="#6c757d" text-anchor="end">0x00000</text>
<rect x="290" y="112" width="24" height="22" fill="#cfe2ff"/>
<path d="M290,112.5H314 M290,133.5H314 M290.5,112V134" fill="none" stroke="#084298" stroke-width="1"/><text x="302.0" y="127.16666666666667" font-family="'Liberation Mono', 'Courier New', Courier, monospace" font-size="11" fill="#084298" text-anchor="middle">1</text>
<rect x="314" y="112" width="24" height="22" fill="#cfe2ff"/>
<path d="M314,112.5H338 M314,133.5H338 M314,112V134" fill="none" stroke="#084298" stroke-width="1"/><text x="326.0" y="127.16666666666667" font-family="'Liberation Mono', 'Courier New', Courier, monospace" font-size="11" fill="#084298" text-anchor="middle">0</text>
<rect x="338" y="112" width="24" height="22" fill="#cfe2ff"/>
<path d="M338,112.5H362 M338,133.5H362 M338,112V134" fill="none" stroke="#084298" stroke-width="1"/><text x="350.0" y="127.16666666666667" font-family="'Liberation Mono', 'Courier New', Courier, monospace" font-size="11" fill="#084298" text-anchor="middle">1</text>
<rect x="362" y="112" width="44" height="22" fill="#cfe2ff"/>
<path d="M362,112.5H406 M362,133.5H406 M362,112V134 M405.5,112V134" fill="none" stroke="#084298" stroke-width="1"/><text x="384.0" y="127.16666666666667" font-family="'Liberation Mono', 'Courier New', Courier, monospace" font-size="11" fill="#084298" text-anchor="middle">0x01</text>
<text x="282" y="149.0" font-family="'Liberation Mono', 'Courier New', Courier, monospace" font-size="11" fill="#6c757d" text-anchor="end">0x00001</text>
<rect x="290" y="134" width="24" height="22" fill="#f8f9fa"/>
<path d="M290,134.5H314 M290,155.5H314 M290.5,134V156" fill="none" stroke="#adb5bd" stroke-width="1"/><text x="302.0" y="149.16666666666666" font-family="'Liberation Mono', 'Courier New', Courier, monospace" font-size="11" fill="#6c757d" text-anchor="middle">0</text>
<rect x="314" y="134" width="24" height="22" fill="#f8f9fa"/>
<path d="M314,134.5H338 M314,155.5H338 M314,134V156" fill="none" stroke="#adb5bd" stroke-width="1"/><text x="326.0" y="149.16666666666666" font-family="'Liberation Mono', 'Courier New', Courier, monospace" font-size="11" fill="#6c757d" text-anchor="middle">0</text>
<rect x="338" y="134" width="24" height="22" fill="#f8f9fa"/>
<path d="M338,134.5H362 M338,155.5H362 M338,134V156" fill="none" stroke="#adb5bd" stroke-width="1"/><text x="350.0" y="149.16666666666666" font-family="'Liberation Mono', 'Courier New', Courier, monospace" font-size="11" fill="#6c757d" text-anchor="middle">1</text>
<rect x="362" y="134" width="44" height="22" fill="#f8f9fa"/>
<path d="M362,134.5H406 M362,155.5H406 M362,134V156 M405.5,134V156" fill="none" stroke="#adb5bd" stroke-width="1"/><text x="384.0" y="149.16666666666666" font-family="'Liberation Mono', 'Courier New', Courier, monospace" font-size="11" fill="#6c757d" text-anchor="middle">—</text>
<text x="282" y="171.0" font-family="'Liberation Mono', 'Courier New', Courier, monospace" font-size="11" fill="#6c757d" text-anchor="end">0x00002</text>
<rect x="290" y="156" width="24" height="22" fill="#cfe2ff"/>
<path d="M290,156.5H314 M290.5,156V178" fill="none" stroke="#084298" stroke-width="1"/><text x="302.0" y="171.16666666666666" font-family="'Liberation Mono', 'Courier New', Courier, monospace" font-size="11" fill="#084298" text-anchor="middle">1</text>
<rect x="314" y="156" width="24" height="22" fill="#cfe2ff"/>
<path d="M314,156.5H338 M314,156V178" fill="none" stroke="#084298" stroke-width="1"/><text x="326.0" y="171.16666666666666" font-family="'Liberation Mono', 'Courier New', Courier, monospace" font-size="11" fill="#084298" text-anchor="middle">1</text>
<rect x="338" y="156" width="24" height="22" fill="#cfe2ff"/>
<path d="M338,156.5H362 M338,156V178" fill="none" stroke="#084298" stroke-width="1"/><text x="350.0" y="171.16666666666666" font-family="'Liberation Mono', 'Courier New', Courier, monospace" font-size="11" fill="#084298" text-anchor="middle">1</text>
<rect x="362" y="156" width="44" height="22" fill="#cfe2ff"/>
<path d="M362,156.5H406 M362,156V178 M405.5,156V178" fill="none" stroke="#084298" stroke-width="1"/><text x="384.0" y="171.16666666666666" font-family="'Liberation Mono', 'Courier New', Courier, monospace" font-size="11" fill="#084298" text-anchor="middle">0x02</text>
<text x="282" y="193.0" font-family="'Liberation Mono', 'Courier New', Courier, monospace" font-size="11" fill="#6c757d" text-anchor="end">0x00003</text>
<rect x="290" y="178" width="24" height="22" fill="#cfe2ff"/>
<path d="M290,178H314 M290,199.5H314 M290.5,178V200" fill="none" stroke="#084298" stroke-width="1"/><text x="302.0" y="193.16666666666666" font-family="'Liberation Mono', 'Courier New', Courier, monospace" font-size="11" fill="#084298" text-anchor="middle">1</text>
<rect x="314" y="178" width="24" height="22" fill="#cfe2ff"/>
<path d="M314,178H338 M314,199.5H338 M314,178V200" fill="none" stroke="#084298" stroke-width="1"/><text x="326.0" y="193.16666666666666" font-family="'Liberation Mono', 'Courier New', Courier, monospace" font-size="11" fill="#084298" text-anchor="middle">1</text>
<rect x="338" y="178" width="24" height="22" fill="#cfe2ff"/>
<path d="M338,178H362 M338,199.5H362 M338,178V200" fill="none" stroke="#084298" stroke-width="1"/><text x="350.0" y="193.16666666666666" font-family="'Liberation Mono', 'Courier New', Courier, monospace" font-size="11" fill="#084298" text-anchor="middle">1</text>
<rect x="362" y="178" width="44" height="22" fill="#cfe2ff"/>
<path d="M362,178H406 M362,199.5H406 M362,178V200 M405.5,178V200" fill="none" stroke="#084298" stroke-width="1"/><text x="384.0" y="193.16666666666666" font-family="'Liberation Mono', 'Courier New', Courier, monospace" font-size="11" fill="#084298" text-anchor="middle">0x00</text>
<text x="282" y="215.0" font-family="'Liberation Mono', 'Courier New', Courier, monospace" font-size="11" fill="#6c757d" text-anchor="end">0x00004</text>
<rect x="290" y="200" width="24" height="22" fill="#f8f9fa"/>
<path d="M290,200.5H314 M290.5,200V222" fill="none" stroke="#adb5bd" stroke-width="1"/><text x="302.0" y="215.16666666666666" font-family="'Liberation Mono', 'Courier New', Courier, monospace" font-size="11" fill="#6c757d" text-anchor="middle">0</text>
<rect x="314" y="200" width="24" height="22" fill="#f8f9fa"/>
<path d="M314,200.5H338 M314,200V222" fill="none" stroke="#adb5bd" stroke-width="1"/><text x="326.0" y="215.16666666666666" font-family="'Liberation Mono', 'Courier New', Courier, monospace" font-size="11" fill="#6c757d" text-anchor="middle">0</text>
<rect x="338" y="200" width="24" height="22" fill="#f8f9fa"/>
<path d="M338,200.5H362 M338,200V222" fill="none" stroke="#adb5bd" stroke-width="1"/><text x="350.0" y="215.16666666666666" font-family="'Liberation Mono', 'Courier New', Courier, monospace" font-size="11" fill="#6c757d" text-anchor="middle">1</text>
<rect x="362" y="200" width="44" height="22" fill="#f8f9fa"/>
<path d="M362,200.5H406 M362,200V222 M405.5,200V222" fill="none" stroke="#adb5bd" stroke-width="1"/><text x="384.0" y="215.16666666666666" font-family="'Liberation Mono', 'Courier New', Courier, monospace" font-size="11" fill="#6c757d" text-anchor="middle">—</text>
<text x="282" y="237.0" font-family="'Liberation Mono', 'Courier New', Courier, monospace" font-size="11" fill="#6c757d" text-anchor="end">0x00005</text>
<rect x="290" y="222" width="24" height="22" fill="#f8f9fa"/>
<path d="M290,222H314 M290,243.5H314 M290.5,222V244" fill="none" stroke="#adb5bd" stroke-width="1"/><text x="302.0" y="237.16666666666666" font-family="'Liberation Mono', 'Courier New', Courier, monospace" font-size="11" fill="#6c757d" text-anchor="middle">0</text>
<rect x="314" y="222" width="24" height="22" fill="#f8f9fa"/>
<path d="M314,222H338 M314,243.5H338 M314,222V244" fill="none" stroke="#adb5bd" stroke-width="1"/><text x="326.0" y="237.16666666666666" font-family="'Liberation Mono', 'Courier New', Courier, monospace" font-size="11" fill="#6c757d" text-anchor="middle">0</text>
<rect x="338" y="222" width="24" height="22" fill="#f8f9fa"/>
<path d="M338,222H362 M338,243.5H362 M338,222V244" fill="none" stroke="#adb5bd" stroke-width="1"/><text x="350.0" y="237.16666666666666" font-family="'Liberation Mono', 'Courier New', Courier, monospace" font-size="11" fill="#6c757d" text-anchor="middle">1</text>
<rect x="362" y="222" width="44" height="22" fill="#f8f9fa"/>
<path d="M362,222H406 M362,243.5H406 M362,222V244 M405.5,222V244" fill="none" stroke="#adb5bd" stroke-width="1"/><text x="384.0" y="237.16666666666666" font-family="'Liberation Mono', 'Courier New', Courier, monospace" font-size="11" fill="#6c757d" text-anchor="middle">—</text>
<rect x="290" y="156" width="116" height="22" fill="none" stroke="#343a40" stroke-width="2"/>
<text x="555.0" y="104" font-family="'Liberation Sans', Arial, Helvetica, sans-serif" font-size="11" fill="#343a40" text-anchor="middle" font-weight="bold">Memòria física</text>
<rect x="500" y="112" width="110" height="22" fill="#cfe2ff"/>
<path d="M500,112.5H610 M500.5,112V134 M609.5,112V134" fill="none" stroke="#084298" stroke-width="1"/><text x="555.0" y="126.83333333333333" font-family="'Liberation Sans', Arial, Helvetica, sans-serif" font-size="10" fill="#084298" text-anchor="middle">VPN 3 · D = 1</text>
<text x="494" y="127.0" font-family="'Liberation Mono', 'Courier New', Courier, monospace" font-size="10" fill="#6c757d" text-anchor="end">0x00</text>
<rect x="500" y="134" width="110" height="22" fill="#cfe2ff"/>
<path d="M500,134H610 M500.5,134V156 M609.5,134V156" fill="none" stroke="#084298" stroke-width="1"/><text x="555.0" y="148.83333333333334" font-family="'Liberation Sans', Arial, Helvetica, sans-serif" font-size="10" fill="#084298" text-anchor="middle">VPN 0</text>
<text x="494" y="149.0" font-family="'Liberation Mono', 'Courier New', Courier, monospace" font-size="10" fill="#6c757d" text-anchor="end">0x01</text>
<rect x="500" y="156" width="110" height="22" fill="#cfe2ff"/>
<path d="M500,156H610 M500,177.5H610 M500.5,156V178 M609.5,156V178" fill="none" stroke="#084298" stroke-width="1"/><text x="555.0" y="170.83333333333334" font-family="'Liberation Sans', Arial, Helvetica, sans-serif" font-size="10" fill="#084298" text-anchor="middle">VPN 2 · D = 1</text>
<text x="494" y="171.0" font-family="'Liberation Mono', 'Courier New', Courier, monospace" font-size="10" fill="#6c757d" text-anchor="end">0x02</text>
<rect x="500" y="178" width="110" height="22" fill="#f8f9fa"/>
<rect x="500.5" y="178.5" width="109" height="21" fill="none" stroke="#adb5bd" stroke-width="1"/>
<text x="555.0" y="193.0" font-family="'Liberation Sans', Arial, Helvetica, sans-serif" font-size="10" fill="#6c757d" text-anchor="middle" font-style="italic">lliure</text>
<text x="494" y="193.0" font-family="'Liberation Mono', 'Courier New', Courier, monospace" font-size="10" fill="#6c757d" text-anchor="end">0x03</text>
<rect x="500" y="156" width="110" height="22" fill="none" stroke="#343a40" stroke-width="2"/>
<text x="494" y="104" font-family="'Liberation Sans', Arial, Helvetica, sans-serif" font-size="10" fill="#6c757d" text-anchor="end" font-weight="bold">PPN</text>
<text x="20" y="270" font-family="'Liberation Sans', Arial, Helvetica, sans-serif" font-size="11" fill="#6c757d" text-anchor="start" font-style="italic">Ordre LRU (de més antic a més recent): VPN 3, VPN 0, VPN 2</text>
</svg>
