<svg width="100%" viewBox="0 0 708 64" xmlns="http://www.w3.org/2000/svg" role="img">
<title>Format IEEE 754 de simple precisió</title>
<desc>S(31), E(30–23), F(22–0).</desc>
<rect x="2" y="16" width="22" height="44" fill="#f8d7da" stroke="#842029" stroke-width="1"/>
<text x="3" y="13" font-family="'Liberation Mono', 'Courier New', Courier, monospace" font-size="10" fill="#6c757d" text-anchor="start">31</text>
<text transform="rotate(-90,13.0,38.0)" x="13.0" y="38.0" font-family="'Liberation Sans', Arial, Helvetica, sans-serif" font-size="11" fill="#842029" text-anchor="middle" dominant-baseline="middle">S</text>
<rect x="24" y="16" width="176" height="44" fill="#fff3cd" stroke="#664d03" stroke-width="1"/>
<line x1="46" y1="16" x2="46" y2="21" stroke="#664d03" stroke-width="0.75"/>
<line x1="46" y1="60" x2="46" y2="55" stroke="#664d03" stroke-width="0.75"/>
<line x1="68" y1="16" x2="68" y2="21" stroke="#664d03" stroke-width="0.75"/>
<line x1="68" y1="60" x2="68" y2="55" stroke="#664d03" stroke-width="0.75"/>
<line x1="90" y1="16" x2="90" y2="21" stroke="#664d03" stroke-width="0.75"/>
<line x1="90" y1="60" x2="90" y2="55" stroke="#664d03" stroke-width="0.75"/>
<line x1="112" y1="16" x2="112" y2="21" stroke="#664d03" stroke-width="0.75"/>
<line x1="112" y1="60" x2="112" y2="55" stroke="#664d03" stroke-width="0.75"/>
<line x1="134" y1="16" x2="134" y2="21" stroke="#664d03" stroke-width="0.75"/>
<line x1="134" y1="60" x2="134" y2="55" stroke="#664d03" stroke-width="0.75"/>
<line x1="156" y1="16" x2="156" y2="21" stroke="#664d03" stroke-width="0.75"/>
<line x1="156" y1="60" x2="156" y2="55" stroke="#664d03" stroke-width="0.75"/>
<line x1="178" y1="16" x2="178" y2="21" stroke="#664d03" stroke-width="0.75"/>
<line x1="178" y1="60" x2="178" y2="55" stroke="#664d03" stroke-width="0.75"/>
<text x="25" y="13" font-family="'Liberation Mono', 'Courier New', Courier, monospace" font-size="10" fill="#6c757d" text-anchor="start">30</text>
<text x="199" y="13" font-family="'Liberation Mono', 'Courier New', Courier, monospace" font-size="10" fill="#6c757d" text-anchor="end">23</text>
<text x="112.0" y="38.0" font-family="'Liberation Sans', Arial, Helvetica, sans-serif" font-size="12" fill="#664d03" text-anchor="middle" dominant-baseline="middle">E</text>
<rect x="200" y="16" width="506" height="44" fill="#cfe2ff" stroke="#084298" stroke-width="1"/>
<line x1="222" y1="16" x2="222" y2="21" stroke="#084298" stroke-width="0.75"/>
<line x1="222" y1="60" x2="222" y2="55" stroke="#084298" stroke-width="0.75"/>
<line x1="244" y1="16" x2="244" y2="21" stroke="#084298" stroke-width="0.75"/>
<line x1="244" y1="60" x2="244" y2="55" stroke="#084298" stroke-width="0.75"/>
<line x1="266" y1="16" x2="266" y2="21" stroke="#084298" stroke-width="0.75"/>
<line x1="266" y1="60" x2="266" y2="55" stroke="#084298" stroke-width="0.75"/>
<line x1="288" y1="16" x2="288" y2="21" stroke="#084298" stroke-width="0.75"/>
<line x1="288" y1="60" x2="288" y2="55" stroke="#084298" stroke-width="0.75"/>
<line x1="310" y1="16" x2="310" y2="21" stroke="#084298" stroke-width="0.75"/>
<line x1="310" y1="60" x2="310" y2="55" stroke="#084298" stroke-width="0.75"/>
<line x1="332" y1="16" x2="332" y2="21" stroke="#084298" stroke-width="0.75"/>
<line x1="332" y1="60" x2="332" y2="55" stroke="#084298" stroke-width="0.75"/>
<line x1="354" y1="16" x2="354" y2="21" stroke="#084298" stroke-width="0.75"/>
<line x1="354" y1="60" x2="354" y2="55" stroke="#084298" stroke-width="0.75"/>
<line x1="376" y1="16" x2="376" y2="21" stroke="#084298" stroke-width="0.75"/>
<line x1="376" y1="60" x2="376" y2="55" stroke="#084298" stroke-width="0.75"/>
<line x1="398" y1="16" x2="398" y2="21" stroke="#084298" stroke-width="0.75"/>
<line x1="398" y1="60" x2="398" y2="55" stroke="#084298" stroke-width="0.75"/>
<line x1="420" y1="16" x2="420" y2="21" stroke="#084298" stroke-width="0.75"/>
<line x1="420" y1="60" x2="420" y2="55" stroke="#084298" stroke-width="0.75"/>
<line x1="442" y1="16" x2="442" y2="21" stroke="#084298" stroke-width="0.75"/>
<line x1="442" y1="60" x2="442" y2="55" stroke="#084298" stroke-width="0.75"/>
<line x1="464" y1="16" x2="464" y2="21" stroke="#084298" stroke-width="0.75"/>
<line x1="464" y1="60" x2="464" y2="55" stroke="#084298" stroke-width="0.75"/>
<line x1="486" y1="16" x2="486" y2="21" stroke="#084298" stroke-width="0.75"/>
<line x1="486" y1="60" x2="486" y2="55" stroke="#084298" stroke-width="0.75"/>
<line x1="508" y1="16" x2="508" y2="21" stroke="#084298" stroke-width="0.75"/>
<line x1="508" y1="60" x2="508" y2="55" stroke="#084298" stroke-width="0.75"/>
<line x1="530" y1="16" x2="530" y2="21" stroke="#084298" stroke-width="0.75"/>
<line x1="530" y1="60" x2="530" y2="55" stroke="#084298" stroke-width="0.75"/>
<line x1="552" y1="16" x2="552" y2="21" stroke="#084298" stroke-width="0.75"/>
<line x1="552" y1="60" x2="552" y2="55" stroke="#084298" stroke-width="0.75"/>
<line x1="574" y1="16" x2="574" y2="21" stroke="#084298" stroke-width="0.75"/>
<line x1="574" y1="60" x2="574" y2="55" stroke="#084298" stroke-width="0.75"/>
<line x1="596" y1="16" x2="596" y2="21" stroke="#084298" stroke-width="0.75"/>
<line x1="596" y1="60" x2="596" y2="55" stroke="#084298" stroke-width="0.75"/>
<line x1="618" y1="16" x2="618" y2="21" stroke="#084298" stroke-width="0.75"/>
<line x1="618" y1="60" x2="618" y2="55" stroke="#084298" stroke-width="0.75"/>
<line x1="640" y1="16" x2="640" y2="21" stroke="#084298" stroke-width="0.75"/>
<line x1="640" y1="60" x2="640" y2="55" stroke="#084298" stroke-width="0.75"/>
<line x1="662" y1="16" x2="662" y2="21" stroke="#084298" stroke-width="0.75"/>
<line x1="662" y1="60" x2="662" y2="55" stroke="#084298" stroke-width="0.75"/>
<line x1="684" y1="16" x2="684" y2="21" stroke="#084298" stroke-width="0.75"/>
<line x1="684" y1="60" x2="684" y2="55" stroke="#084298" stroke-width="0.75"/>
<text x="201" y="13" font-family="'Liberation Mono', 'Courier New', Courier, monospace" font-size="10" fill="#6c757d" text-anchor="start">22</text>
<text x="705" y="13" font-family="'Liberation Mono', 'Courier New', Courier, monospace" font-size="10" fill="#6c757d" text-anchor="end">0</text>
<text x="453.0" y="38.0" font-family="'Liberation Sans', Arial, Helvetica, sans-serif" font-size="12" fill="#084298" text-anchor="middle" dominant-baseline="middle">F</text>
</svg>