<svg width="100%" viewBox="0 0 660 362" xmlns="http://www.w3.org/2000/svg" role="img">
<title>Jerarquia de memòries cau d'un processador multinucli</title>
<desc>Xip de quatre nuclis. Cada nucli té una L1 d'instruccions (L1i), una L1 de dades (L1d) i una L2 privades; tots comparteixen una L3, que es connecta a la memòria principal (DRAM), fora del xip.</desc>
<rect x="150" y="14" width="360" height="32" rx="4" fill="#d1e7dd" stroke="#0a3622" stroke-width="1"/><text x="330.0" y="34.0" font-family="'Liberation Sans', Arial, Helvetica, sans-serif" font-size="12" fill="#0a3622" text-anchor="middle" font-weight="bold">Memòria principal (DRAM)</text>
<rect x="20" y="66" width="620" height="284" rx="6" fill="none" stroke="#6c757d" stroke-width="1" stroke-dasharray="6,4"/>
<text x="30" y="82" font-family="'Liberation Sans', Arial, Helvetica, sans-serif" font-size="10" fill="#6c757d" text-anchor="start" font-style="italic">xip</text>
<line x1="330" y1="50" x2="330" y2="78" stroke="#343a40" stroke-width="1.2"/>
<polygon points="330,78 326.9,70.6 333.1,70.6" fill="#343a40"/>
<polygon points="330,50 333.1,57.4 326.9,57.4" fill="#343a40"/>
<rect x="60" y="82" width="540" height="30" rx="4" fill="#cfe2ff" stroke="#084298" stroke-width="1"/><text x="330.0" y="101.0" font-family="'Liberation Sans', Arial, Helvetica, sans-serif" font-size="12" fill="#084298" text-anchor="middle" font-weight="bold">L3 (compartida)</text>
<line x1="112.5" y1="116" x2="112.5" y2="142" stroke="#343a40" stroke-width="1.2"/>
<polygon points="112.5,142 109.4,134.6 115.6,134.6" fill="#343a40"/>
<polygon points="112.5,116 115.6,123.4 109.4,123.4" fill="#343a40"/>
<rect x="57.5" y="146" width="110" height="30" rx="4" fill="#cfe2ff" stroke="#084298" stroke-width="1"/><text x="112.5" y="165.0" font-family="'Liberation Sans', Arial, Helvetica, sans-serif" font-size="12" fill="#084298" text-anchor="middle" font-weight="bold">L2</text>
<line x1="86.5" y1="180" x2="86.5" y2="206" stroke="#343a40" stroke-width="1.2"/>
<polygon points="86.5,206 83.4,198.6 89.6,198.6" fill="#343a40"/>
<polygon points="86.5,180 89.6,187.4 83.4,187.4" fill="#343a40"/>
<line x1="138.5" y1="180" x2="138.5" y2="206" stroke="#343a40" stroke-width="1.2"/>
<polygon points="138.5,206 135.4,198.6 141.6,198.6" fill="#343a40"/>
<polygon points="138.5,180 141.6,187.4 135.4,187.4" fill="#343a40"/>
<rect x="57.5" y="210" width="52" height="30" rx="4" fill="#cfe2ff" stroke="#084298" stroke-width="1"/><text x="83.5" y="228.66666666666666" font-family="'Liberation Sans', Arial, Helvetica, sans-serif" font-size="11" fill="#084298" text-anchor="middle" font-weight="bold">L1i</text>
<rect x="115.5" y="210" width="52" height="30" rx="4" fill="#cfe2ff" stroke="#084298" stroke-width="1"/><text x="141.5" y="228.66666666666666" font-family="'Liberation Sans', Arial, Helvetica, sans-serif" font-size="11" fill="#084298" text-anchor="middle" font-weight="bold">L1d</text>
<line x1="86.5" y1="244" x2="86.5" y2="274" stroke="#343a40" stroke-width="1.2"/>
<polygon points="86.5,274 83.4,266.6 89.6,266.6" fill="#343a40"/>
<polygon points="86.5,244 89.6,251.4 83.4,251.4" fill="#343a40"/>
<line x1="138.5" y1="244" x2="138.5" y2="274" stroke="#343a40" stroke-width="1.2"/>
<polygon points="138.5,274 135.4,266.6 141.6,266.6" fill="#343a40"/>
<polygon points="138.5,244 141.6,251.4 135.4,251.4" fill="#343a40"/>
<rect x="57.5" y="278" width="110" height="34" rx="4" fill="#fff3cd" stroke="#664d03" stroke-width="1"/><text x="112.5" y="299.0" font-family="'Liberation Sans', Arial, Helvetica, sans-serif" font-size="12" fill="#664d03" text-anchor="middle" font-weight="bold">nucli 0</text>
<line x1="257.5" y1="116" x2="257.5" y2="142" stroke="#343a40" stroke-width="1.2"/>
<polygon points="257.5,142 254.4,134.6 260.6,134.6" fill="#343a40"/>
<polygon points="257.5,116 260.6,123.4 254.4,123.4" fill="#343a40"/>
<rect x="202.5" y="146" width="110" height="30" rx="4" fill="#cfe2ff" stroke="#084298" stroke-width="1"/><text x="257.5" y="165.0" font-family="'Liberation Sans', Arial, Helvetica, sans-serif" font-size="12" fill="#084298" text-anchor="middle" font-weight="bold">L2</text>
<line x1="231.5" y1="180" x2="231.5" y2="206" stroke="#343a40" stroke-width="1.2"/>
<polygon points="231.5,206 228.4,198.6 234.6,198.6" fill="#343a40"/>
<polygon points="231.5,180 234.6,187.4 228.4,187.4" fill="#343a40"/>
<line x1="283.5" y1="180" x2="283.5" y2="206" stroke="#343a40" stroke-width="1.2"/>
<polygon points="283.5,206 280.4,198.6 286.6,198.6" fill="#343a40"/>
<polygon points="283.5,180 286.6,187.4 280.4,187.4" fill="#343a40"/>
<rect x="202.5" y="210" width="52" height="30" rx="4" fill="#cfe2ff" stroke="#084298" stroke-width="1"/><text x="228.5" y="228.66666666666666" font-family="'Liberation Sans', Arial, Helvetica, sans-serif" font-size="11" fill="#084298" text-anchor="middle" font-weight="bold">L1i</text>
<rect x="260.5" y="210" width="52" height="30" rx="4" fill="#cfe2ff" stroke="#084298" stroke-width="1"/><text x="286.5" y="228.66666666666666" font-family="'Liberation Sans', Arial, Helvetica, sans-serif" font-size="11" fill="#084298" text-anchor="middle" font-weight="bold">L1d</text>
<line x1="231.5" y1="244" x2="231.5" y2="274" stroke="#343a40" stroke-width="1.2"/>
<polygon points="231.5,274 228.4,266.6 234.6,266.6" fill="#343a40"/>
<polygon points="231.5,244 234.6,251.4 228.4,251.4" fill="#343a40"/>
<line x1="283.5" y1="244" x2="283.5" y2="274" stroke="#343a40" stroke-width="1.2"/>
<polygon points="283.5,274 280.4,266.6 286.6,266.6" fill="#343a40"/>
<polygon points="283.5,244 286.6,251.4 280.4,251.4" fill="#343a40"/>
<rect x="202.5" y="278" width="110" height="34" rx="4" fill="#fff3cd" stroke="#664d03" stroke-width="1"/><text x="257.5" y="299.0" font-family="'Liberation Sans', Arial, Helvetica, sans-serif" font-size="12" fill="#664d03" text-anchor="middle" font-weight="bold">nucli 1</text>
<line x1="402.5" y1="116" x2="402.5" y2="142" stroke="#343a40" stroke-width="1.2"/>
<polygon points="402.5,142 399.4,134.6 405.6,134.6" fill="#343a40"/>
<polygon points="402.5,116 405.6,123.4 399.4,123.4" fill="#343a40"/>
<rect x="347.5" y="146" width="110" height="30" rx="4" fill="#cfe2ff" stroke="#084298" stroke-width="1"/><text x="402.5" y="165.0" font-family="'Liberation Sans', Arial, Helvetica, sans-serif" font-size="12" fill="#084298" text-anchor="middle" font-weight="bold">L2</text>
<line x1="376.5" y1="180" x2="376.5" y2="206" stroke="#343a40" stroke-width="1.2"/>
<polygon points="376.5,206 373.4,198.6 379.6,198.6" fill="#343a40"/>
<polygon points="376.5,180 379.6,187.4 373.4,187.4" fill="#343a40"/>
<line x1="428.5" y1="180" x2="428.5" y2="206" stroke="#343a40" stroke-width="1.2"/>
<polygon points="428.5,206 425.4,198.6 431.6,198.6" fill="#343a40"/>
<polygon points="428.5,180 431.6,187.4 425.4,187.4" fill="#343a40"/>
<rect x="347.5" y="210" width="52" height="30" rx="4" fill="#cfe2ff" stroke="#084298" stroke-width="1"/><text x="373.5" y="228.66666666666666" font-family="'Liberation Sans', Arial, Helvetica, sans-serif" font-size="11" fill="#084298" text-anchor="middle" font-weight="bold">L1i</text>
<rect x="405.5" y="210" width="52" height="30" rx="4" fill="#cfe2ff" stroke="#084298" stroke-width="1"/><text x="431.5" y="228.66666666666666" font-family="'Liberation Sans', Arial, Helvetica, sans-serif" font-size="11" fill="#084298" text-anchor="middle" font-weight="bold">L1d</text>
<line x1="376.5" y1="244" x2="376.5" y2="274" stroke="#343a40" stroke-width="1.2"/>
<polygon points="376.5,274 373.4,266.6 379.6,266.6" fill="#343a40"/>
<polygon points="376.5,244 379.6,251.4 373.4,251.4" fill="#343a40"/>
<line x1="428.5" y1="244" x2="428.5" y2="274" stroke="#343a40" stroke-width="1.2"/>
<polygon points="428.5,274 425.4,266.6 431.6,266.6" fill="#343a40"/>
<polygon points="428.5,244 431.6,251.4 425.4,251.4" fill="#343a40"/>
<rect x="347.5" y="278" width="110" height="34" rx="4" fill="#fff3cd" stroke="#664d03" stroke-width="1"/><text x="402.5" y="299.0" font-family="'Liberation Sans', Arial, Helvetica, sans-serif" font-size="12" fill="#664d03" text-anchor="middle" font-weight="bold">nucli 2</text>
<line x1="547.5" y1="116" x2="547.5" y2="142" stroke="#343a40" stroke-width="1.2"/>
<polygon points="547.5,142 544.4,134.6 550.6,134.6" fill="#343a40"/>
<polygon points="547.5,116 550.6,123.4 544.4,123.4" fill="#343a40"/>
<rect x="492.5" y="146" width="110" height="30" rx="4" fill="#cfe2ff" stroke="#084298" stroke-width="1"/><text x="547.5" y="165.0" font-family="'Liberation Sans', Arial, Helvetica, sans-serif" font-size="12" fill="#084298" text-anchor="middle" font-weight="bold">L2</text>
<line x1="521.5" y1="180" x2="521.5" y2="206" stroke="#343a40" stroke-width="1.2"/>
<polygon points="521.5,206 518.4,198.6 524.6,198.6" fill="#343a40"/>
<polygon points="521.5,180 524.6,187.4 518.4,187.4" fill="#343a40"/>
<line x1="573.5" y1="180" x2="573.5" y2="206" stroke="#343a40" stroke-width="1.2"/>
<polygon points="573.5,206 570.4,198.6 576.6,198.6" fill="#343a40"/>
<polygon points="573.5,180 576.6,187.4 570.4,187.4" fill="#343a40"/>
<rect x="492.5" y="210" width="52" height="30" rx="4" fill="#cfe2ff" stroke="#084298" stroke-width="1"/><text x="518.5" y="228.66666666666666" font-family="'Liberation Sans', Arial, Helvetica, sans-serif" font-size="11" fill="#084298" text-anchor="middle" font-weight="bold">L1i</text>
<rect x="550.5" y="210" width="52" height="30" rx="4" fill="#cfe2ff" stroke="#084298" stroke-width="1"/><text x="576.5" y="228.66666666666666" font-family="'Liberation Sans', Arial, Helvetica, sans-serif" font-size="11" fill="#084298" text-anchor="middle" font-weight="bold">L1d</text>
<line x1="521.5" y1="244" x2="521.5" y2="274" stroke="#343a40" stroke-width="1.2"/>
<polygon points="521.5,274 518.4,266.6 524.6,266.6" fill="#343a40"/>
<polygon points="521.5,244 524.6,251.4 518.4,251.4" fill="#343a40"/>
<line x1="573.5" y1="244" x2="573.5" y2="274" stroke="#343a40" stroke-width="1.2"/>
<polygon points="573.5,274 570.4,266.6 576.6,266.6" fill="#343a40"/>
<polygon points="573.5,244 576.6,251.4 570.4,251.4" fill="#343a40"/>
<rect x="492.5" y="278" width="110" height="34" rx="4" fill="#fff3cd" stroke="#664d03" stroke-width="1"/><text x="547.5" y="299.0" font-family="'Liberation Sans', Arial, Helvetica, sans-serif" font-size="12" fill="#664d03" text-anchor="middle" font-weight="bold">nucli 3</text>
<text x="330.0" y="334" font-family="'Liberation Sans', Arial, Helvetica, sans-serif" font-size="10" fill="#6c757d" text-anchor="middle" font-style="italic">L1i, L1d i L2: privades de cada nucli</text>
</svg>
