<?xml version="1.0" encoding="UTF-8"?><svg xmlns:svg="http://www.w3.org/2000/svg" xmlns="http://www.w3.org/2000/svg" xmlns:xlink="http://www.w3.org/1999/xlink" version="1.0" width="1340" height="122" viewBox="0 0 1340 122" ><text font-size="24" font-family="M+ 1p Fallback" x="190" y="22" text-anchor="middle" dominant-baseline="middle" >31</text><text font-size="24" font-family="M+ 1p Fallback" x="354" y="22" text-anchor="start" dominant-baseline="middle" >30</text><text font-size="24" font-family="M+ 1p Fallback" x="666" y="22" text-anchor="end" dominant-baseline="middle" >22</text><text font-size="24" font-family="M+ 1p Fallback" x="674" y="22" text-anchor="start" dominant-baseline="middle" >21</text><text font-size="24" font-family="M+ 1p Fallback" x="1306" y="22" text-anchor="end" dominant-baseline="middle" >0</text><line x1="30" y1="41" x2="150" y2="41" stroke="#000000" stroke-width="1" /><line x1="30" y1="81" x2="150" y2="81" stroke="#000000" stroke-width="1" /><line x1="30" y1="41" x2="30" y2="81" stroke="#000000" stroke-width="1" /><text font-size="24" font-family="M+ 1p Fallback" x="146" y="62" text-anchor="end" dominant-baseline="middle" >MODE</text><line x1="150" y1="41" x2="350" y2="41" stroke="#000000" stroke-width="1" /><line x1="150" y1="81" x2="350" y2="81" stroke="#000000" stroke-width="1" /><line x1="350" y1="41" x2="350" y2="81" stroke="#000000" stroke-width="1" /><text font-size="24" font-weight="bold" x="154" y="62" text-anchor="start" dominant-baseline="middle" >(WARL)</text><line x1="350" y1="41" x2="470" y2="41" stroke="#000000" stroke-width="1" /><line x1="350" y1="81" x2="470" y2="81" stroke="#000000" stroke-width="1" /><line x1="350" y1="41" x2="350" y2="81" stroke="#000000" stroke-width="1" /><text font-size="24" font-family="M+ 1p Fallback" x="466" y="62" text-anchor="end" dominant-baseline="middle" >ASID</text><line x1="470" y1="41" x2="670" y2="41" stroke="#000000" stroke-width="1" /><line x1="470" y1="81" x2="670" y2="81" stroke="#000000" stroke-width="1" /><line x1="670" y1="41" x2="670" y2="81" stroke="#000000" stroke-width="1" /><text font-size="24" font-weight="bold" x="474" y="62" text-anchor="start" dominant-baseline="middle" >(WARL)</text><line x1="670" y1="41" x2="990" y2="41" stroke="#000000" stroke-width="1" /><line x1="670" y1="81" x2="990" y2="81" stroke="#000000" stroke-width="1" /><line x1="670" y1="41" x2="670" y2="81" stroke="#000000" stroke-width="1" /><text font-size="24" font-family="M+ 1p Fallback" x="986" y="62" text-anchor="end" dominant-baseline="middle" >PPN</text><line x1="990" y1="41" x2="1310" y2="41" stroke="#000000" stroke-width="1" /><line x1="990" y1="81" x2="1310" y2="81" stroke="#000000" stroke-width="1" /><line x1="1310" y1="41" x2="1310" y2="81" stroke="#000000" stroke-width="1" /><text font-size="24" font-weight="bold" x="994" y="62" text-anchor="start" dominant-baseline="middle" >(WARL)</text><text font-size="24" font-family="M+ 1p Fallback" x="190" y="102" text-anchor="middle" dominant-baseline="middle" >1</text><text font-size="24" font-family="M+ 1p Fallback" x="510" y="102" text-anchor="middle" dominant-baseline="middle" >9</text><text font-size="24" font-family="M+ 1p Fallback" x="990" y="102" text-anchor="middle" dominant-baseline="middle" >22</text></svg>