<?xml version="1.0" encoding="UTF-8" standalone="no"?>
<svg
   width="450"
   height="280"
   viewBox="0 0 450 280"
   font-family="'Source Sans Pro', sans-serif"
   version="1.1"
   xmlns="http://www.w3.org/2000/svg">
  <defs/>

  <!-- ===== CODI C (y=10..65) ===== -->
  <!-- funcA a l'esquerra, funcB a la dreta -->
  <text x="60"  y="24" font-family="FreeMono,'Courier New',monospace" font-size="11" fill="#343a40">void funcA() &#123; sentA1; funcB(); sentA2; &#125;</text>
  <text x="60"  y="40" font-family="FreeMono,'Courier New',monospace" font-size="11" fill="#343a40">void funcB() &#123; sentB; &#125;</text>

  <!-- Línia separadora codi / etiquetes -->
  <line x1="60" y1="55" x2="440" y2="55" stroke="#adb5bd" stroke-width="0.5"/>

  <!-- ===== ETIQUETES DE COLUMNA (y=55..110) ===== -->
  <!-- Col 0: abans de cridar a funcA -->
  <text x="90"  y="69" text-anchor="middle" font-size="9" fill="#343a40">abans de</text>
  <text x="90"  y="80" text-anchor="middle" font-size="9" fill="#343a40">cridar a</text>
  <text x="90"  y="91" text-anchor="middle" font-size="9" font-style="italic" fill="#343a40">funcA</text>

  <!-- Col 1: mentre s'executa sentA1 -->
  <text x="170" y="69" text-anchor="middle" font-size="9" fill="#343a40">mentre</text>
  <text x="170" y="80" text-anchor="middle" font-size="9" fill="#343a40">s'executa</text>
  <text x="170" y="91" text-anchor="middle" font-size="9" font-style="italic" fill="#343a40">sentA1</text>

  <!-- Col 2: mentre s'executa sentB -->
  <text x="250" y="69" text-anchor="middle" font-size="9" fill="#343a40">mentre</text>
  <text x="250" y="80" text-anchor="middle" font-size="9" fill="#343a40">s'executa</text>
  <text x="250" y="91" text-anchor="middle" font-size="9" font-style="italic" fill="#343a40">sentB</text>

  <!-- Col 3: mentre s'executa sentA2 -->
  <text x="330" y="69" text-anchor="middle" font-size="9" fill="#343a40">mentre</text>
  <text x="330" y="80" text-anchor="middle" font-size="9" fill="#343a40">s'executa</text>
  <text x="330" y="91" text-anchor="middle" font-size="9" font-style="italic" fill="#343a40">sentA2</text>

  <!-- Col 4: després de retornar de funcA -->
  <text x="410" y="69" text-anchor="middle" font-size="9" fill="#343a40">després de</text>
  <text x="410" y="80" text-anchor="middle" font-size="9" fill="#343a40">retornar de</text>
  <text x="410" y="91" text-anchor="middle" font-size="9" font-style="italic" fill="#343a40">funcA</text>

  <!-- ===== ETIQUETES LATERALS ===== -->
  <text x="55" y="121" text-anchor="end" font-size="9" fill="#6c757d">adr.</text>
  <text x="55" y="131" text-anchor="end" font-size="9" fill="#6c757d">baixes</text>
  <text x="55" y="264" text-anchor="end" font-size="9" fill="#6c757d">adr.</text>
  <text x="55" y="274" text-anchor="end" font-size="9" fill="#6c757d">altes</text>

  <!-- ================================================================== -->
  <!-- Macro per a ticks: esquerra i dreta de cada columna, y=110..270     -->
  <!-- Ticks a y: 120,130,140,150,160,170,180,190,200,210,220,230,240,250,260 -->
  <!-- ================================================================== -->

  <!-- ================================================================== -->
  <!-- COL 0: abans de cridar a funcA  x=60..120                          -->
  <!-- sp a y=240 (sobre hatch)                                            -->
  <!-- ================================================================== -->
  <rect x="60" y="110" width="60" height="160" fill="#f8f9fa" stroke="#343a40" stroke-width="1"/>
  <!-- hatch -->
  <rect x="60" y="240" width="60" height="30" fill="#adb5bd" stroke="none"/>
  <line x1="60" y1="240" x2="120" y2="240" stroke="#343a40" stroke-width="1.5"/>
  <!-- ticks esquerra -->
  <line x1="60" y1="120" x2="64" y2="120" stroke="#6c757d" stroke-width="0.75"/>
  <line x1="60" y1="130" x2="64" y2="130" stroke="#6c757d" stroke-width="0.75"/>
  <line x1="60" y1="140" x2="64" y2="140" stroke="#6c757d" stroke-width="0.75"/>
  <line x1="60" y1="150" x2="64" y2="150" stroke="#6c757d" stroke-width="0.75"/>
  <line x1="60" y1="160" x2="64" y2="160" stroke="#6c757d" stroke-width="0.75"/>
  <line x1="60" y1="170" x2="64" y2="170" stroke="#6c757d" stroke-width="0.75"/>
  <line x1="60" y1="180" x2="64" y2="180" stroke="#6c757d" stroke-width="0.75"/>
  <line x1="60" y1="190" x2="64" y2="190" stroke="#6c757d" stroke-width="0.75"/>
  <line x1="60" y1="200" x2="64" y2="200" stroke="#6c757d" stroke-width="0.75"/>
  <line x1="60" y1="210" x2="64" y2="210" stroke="#6c757d" stroke-width="0.75"/>
  <line x1="60" y1="220" x2="64" y2="220" stroke="#6c757d" stroke-width="0.75"/>
  <line x1="60" y1="230" x2="64" y2="230" stroke="#6c757d" stroke-width="0.75"/>
  <!-- ticks dreta -->
  <line x1="116" y1="120" x2="120" y2="120" stroke="#6c757d" stroke-width="0.75"/>
  <line x1="116" y1="130" x2="120" y2="130" stroke="#6c757d" stroke-width="0.75"/>
  <line x1="116" y1="140" x2="120" y2="140" stroke="#6c757d" stroke-width="0.75"/>
  <line x1="116" y1="150" x2="120" y2="150" stroke="#6c757d" stroke-width="0.75"/>
  <line x1="116" y1="160" x2="120" y2="160" stroke="#6c757d" stroke-width="0.75"/>
  <line x1="116" y1="170" x2="120" y2="170" stroke="#6c757d" stroke-width="0.75"/>
  <line x1="116" y1="180" x2="120" y2="180" stroke="#6c757d" stroke-width="0.75"/>
  <line x1="116" y1="190" x2="120" y2="190" stroke="#6c757d" stroke-width="0.75"/>
  <line x1="116" y1="200" x2="120" y2="200" stroke="#6c757d" stroke-width="0.75"/>
  <line x1="116" y1="210" x2="120" y2="210" stroke="#6c757d" stroke-width="0.75"/>
  <line x1="116" y1="220" x2="120" y2="220" stroke="#6c757d" stroke-width="0.75"/>
  <line x1="116" y1="230" x2="120" y2="230" stroke="#6c757d" stroke-width="0.75"/>
  <!-- sp -->
  <text x="55" y="243" text-anchor="end"
        font-family="FreeMono,'Courier New',monospace"
        font-size="10" font-weight="bold" fill="#664d03">sp →</text>

  <!-- ================================================================== -->
  <!-- COL 1: mentre s'executa sentA1  x=140..200                         -->
  <!-- BA funcA: y=180..240, sp a y=180                                   -->
  <!-- ================================================================== -->
  <rect x="140" y="110" width="60" height="160" fill="#f8f9fa" stroke="#343a40" stroke-width="1"/>
  <!-- BA de funcA -->
  <rect x="140" y="180" width="60" height="60" fill="#cfe2ff" stroke="none"/>
  <line x1="140" y1="180" x2="200" y2="180" stroke="#343a40" stroke-width="1.5"/>
  <line x1="140" y1="240" x2="200" y2="240" stroke="#343a40" stroke-width="1.5"/>
  <text x="170" y="207" text-anchor="middle" font-size="10" fill="#084298">BA de</text>
  <text x="170" y="221" text-anchor="middle" font-size="10" font-style="italic" fill="#084298">funcA</text>
  <!-- hatch -->
  <rect x="140" y="240" width="60" height="30" fill="#adb5bd" stroke="none"/>
  <!-- ticks esquerra (no sobre el BA) -->
  <line x1="140" y1="120" x2="144" y2="120" stroke="#6c757d" stroke-width="0.75"/>
  <line x1="140" y1="130" x2="144" y2="130" stroke="#6c757d" stroke-width="0.75"/>
  <line x1="140" y1="140" x2="144" y2="140" stroke="#6c757d" stroke-width="0.75"/>
  <line x1="140" y1="150" x2="144" y2="150" stroke="#6c757d" stroke-width="0.75"/>
  <line x1="140" y1="160" x2="144" y2="160" stroke="#6c757d" stroke-width="0.75"/>
  <line x1="140" y1="170" x2="144" y2="170" stroke="#6c757d" stroke-width="0.75"/>
  <!-- ticks dreta -->
  <line x1="196" y1="120" x2="200" y2="120" stroke="#6c757d" stroke-width="0.75"/>
  <line x1="196" y1="130" x2="200" y2="130" stroke="#6c757d" stroke-width="0.75"/>
  <line x1="196" y1="140" x2="200" y2="140" stroke="#6c757d" stroke-width="0.75"/>
  <line x1="196" y1="150" x2="200" y2="150" stroke="#6c757d" stroke-width="0.75"/>
  <line x1="196" y1="160" x2="200" y2="160" stroke="#6c757d" stroke-width="0.75"/>
  <line x1="196" y1="170" x2="200" y2="170" stroke="#6c757d" stroke-width="0.75"/>
  <!-- sp -->
  <text x="135" y="183" text-anchor="end"
        font-family="FreeMono,'Courier New',monospace"
        font-size="10" font-weight="bold" fill="#664d03">sp →</text>

  <!-- ================================================================== -->
  <!-- COL 2: mentre s'executa sentB  x=220..280                          -->
  <!-- BA funcA: y=180..240, BA funcB: y=130..180, sp a y=130             -->
  <!-- ================================================================== -->
  <rect x="220" y="110" width="60" height="160" fill="#f8f9fa" stroke="#343a40" stroke-width="1"/>
  <!-- BA de funcB -->
  <rect x="220" y="130" width="60" height="50" fill="#fff3cd" stroke="none"/>
  <line x1="220" y1="130" x2="280" y2="130" stroke="#343a40" stroke-width="1.5"/>
  <line x1="220" y1="180" x2="280" y2="180" stroke="#343a40" stroke-width="1.5"/>
  <text x="250" y="152" text-anchor="middle" font-size="10" fill="#664d03">BA de</text>
  <text x="250" y="166" text-anchor="middle" font-size="10" font-style="italic" fill="#664d03">funcB</text>
  <!-- BA de funcA -->
  <rect x="220" y="180" width="60" height="60" fill="#cfe2ff" stroke="none"/>
  <line x1="220" y1="240" x2="280" y2="240" stroke="#343a40" stroke-width="1.5"/>
  <text x="250" y="207" text-anchor="middle" font-size="10" fill="#084298">BA de</text>
  <text x="250" y="221" text-anchor="middle" font-size="10" font-style="italic" fill="#084298">funcA</text>
  <!-- hatch -->
  <rect x="220" y="240" width="60" height="30" fill="#adb5bd" stroke="none"/>
  <!-- ticks esquerra -->
  <line x1="220" y1="120" x2="224" y2="120" stroke="#6c757d" stroke-width="0.75"/>
  <!-- ticks dreta -->
  <line x1="276" y1="120" x2="280" y2="120" stroke="#6c757d" stroke-width="0.75"/>
  <!-- sp -->
  <text x="215" y="133" text-anchor="end"
        font-family="FreeMono,'Courier New',monospace"
        font-size="10" font-weight="bold" fill="#664d03">sp →</text>

  <!-- ================================================================== -->
  <!-- COL 3: mentre s'executa sentA2  x=300..360                         -->
  <!-- BA funcA: y=180..240, sp a y=180  (igual que col 1)                -->
  <!-- ================================================================== -->
  <rect x="300" y="110" width="60" height="160" fill="#f8f9fa" stroke="#343a40" stroke-width="1"/>
  <!-- BA de funcA -->
  <rect x="300" y="180" width="60" height="60" fill="#cfe2ff" stroke="none"/>
  <line x1="300" y1="180" x2="360" y2="180" stroke="#343a40" stroke-width="1.5"/>
  <line x1="300" y1="240" x2="360" y2="240" stroke="#343a40" stroke-width="1.5"/>
  <text x="330" y="207" text-anchor="middle" font-size="10" fill="#084298">BA de</text>
  <text x="330" y="221" text-anchor="middle" font-size="10" font-style="italic" fill="#084298">funcA</text>
  <!-- hatch -->
  <rect x="300" y="240" width="60" height="30" fill="#adb5bd" stroke="none"/>
  <!-- ticks esquerra -->
  <line x1="300" y1="120" x2="304" y2="120" stroke="#6c757d" stroke-width="0.75"/>
  <line x1="300" y1="130" x2="304" y2="130" stroke="#6c757d" stroke-width="0.75"/>
  <line x1="300" y1="140" x2="304" y2="140" stroke="#6c757d" stroke-width="0.75"/>
  <line x1="300" y1="150" x2="304" y2="150" stroke="#6c757d" stroke-width="0.75"/>
  <line x1="300" y1="160" x2="304" y2="160" stroke="#6c757d" stroke-width="0.75"/>
  <line x1="300" y1="170" x2="304" y2="170" stroke="#6c757d" stroke-width="0.75"/>
  <!-- ticks dreta -->
  <line x1="356" y1="120" x2="360" y2="120" stroke="#6c757d" stroke-width="0.75"/>
  <line x1="356" y1="130" x2="360" y2="130" stroke="#6c757d" stroke-width="0.75"/>
  <line x1="356" y1="140" x2="360" y2="140" stroke="#6c757d" stroke-width="0.75"/>
  <line x1="356" y1="150" x2="360" y2="150" stroke="#6c757d" stroke-width="0.75"/>
  <line x1="356" y1="160" x2="360" y2="160" stroke="#6c757d" stroke-width="0.75"/>
  <line x1="356" y1="170" x2="360" y2="170" stroke="#6c757d" stroke-width="0.75"/>
  <!-- sp -->
  <text x="295" y="183" text-anchor="end"
        font-family="FreeMono,'Courier New',monospace"
        font-size="10" font-weight="bold" fill="#664d03">sp →</text>

  <!-- ================================================================== -->
  <!-- COL 4: després de retornar de funcA  x=380..440                    -->
  <!-- sp a y=240 (igual que col 0)                                        -->
  <!-- ================================================================== -->
  <rect x="380" y="110" width="60" height="160" fill="#f8f9fa" stroke="#343a40" stroke-width="1"/>
  <!-- hatch -->
  <rect x="380" y="240" width="60" height="30" fill="#adb5bd" stroke="none"/>
  <line x1="380" y1="240" x2="440" y2="240" stroke="#343a40" stroke-width="1.5"/>
  <!-- ticks esquerra -->
  <line x1="380" y1="120" x2="384" y2="120" stroke="#6c757d" stroke-width="0.75"/>
  <line x1="380" y1="130" x2="384" y2="130" stroke="#6c757d" stroke-width="0.75"/>
  <line x1="380" y1="140" x2="384" y2="140" stroke="#6c757d" stroke-width="0.75"/>
  <line x1="380" y1="150" x2="384" y2="150" stroke="#6c757d" stroke-width="0.75"/>
  <line x1="380" y1="160" x2="384" y2="160" stroke="#6c757d" stroke-width="0.75"/>
  <line x1="380" y1="170" x2="384" y2="170" stroke="#6c757d" stroke-width="0.75"/>
  <line x1="380" y1="180" x2="384" y2="180" stroke="#6c757d" stroke-width="0.75"/>
  <line x1="380" y1="190" x2="384" y2="190" stroke="#6c757d" stroke-width="0.75"/>
  <line x1="380" y1="200" x2="384" y2="200" stroke="#6c757d" stroke-width="0.75"/>
  <line x1="380" y1="210" x2="384" y2="210" stroke="#6c757d" stroke-width="0.75"/>
  <line x1="380" y1="220" x2="384" y2="220" stroke="#6c757d" stroke-width="0.75"/>
  <line x1="380" y1="230" x2="384" y2="230" stroke="#6c757d" stroke-width="0.75"/>
  <!-- ticks dreta -->
  <line x1="436" y1="120" x2="440" y2="120" stroke="#6c757d" stroke-width="0.75"/>
  <line x1="436" y1="130" x2="440" y2="130" stroke="#6c757d" stroke-width="0.75"/>
  <line x1="436" y1="140" x2="440" y2="140" stroke="#6c757d" stroke-width="0.75"/>
  <line x1="436" y1="150" x2="440" y2="150" stroke="#6c757d" stroke-width="0.75"/>
  <line x1="436" y1="160" x2="440" y2="160" stroke="#6c757d" stroke-width="0.75"/>
  <line x1="436" y1="170" x2="440" y2="170" stroke="#6c757d" stroke-width="0.75"/>
  <line x1="436" y1="180" x2="440" y2="180" stroke="#6c757d" stroke-width="0.75"/>
  <line x1="436" y1="190" x2="440" y2="190" stroke="#6c757d" stroke-width="0.75"/>
  <line x1="436" y1="200" x2="440" y2="200" stroke="#6c757d" stroke-width="0.75"/>
  <line x1="436" y1="210" x2="440" y2="210" stroke="#6c757d" stroke-width="0.75"/>
  <line x1="436" y1="220" x2="440" y2="220" stroke="#6c757d" stroke-width="0.75"/>
  <line x1="436" y1="230" x2="440" y2="230" stroke="#6c757d" stroke-width="0.75"/>
  <!-- sp -->
  <text x="375" y="243" text-anchor="end"
        font-family="FreeMono,'Courier New',monospace"
        font-size="10" font-weight="bold" fill="#664d03">sp →</text>

</svg>
