<svg width="680" height="340" viewBox="0 0 680 340" xmlns="http://www.w3.org/2000/svg" role="img">
<title>Emmagatzematge d'una matriu per files en memòria (mode fosc)</title>
<desc>Diagrama que mostra com una matriu mat[4][6] s'emmagatzema en memòria linealment per files: primer la fila 0, després la fila 1, etc.</desc>
<defs>
  <marker id="arrow" viewBox="0 0 10 10" refX="8" refY="5" markerWidth="6" markerHeight="6" orient="auto-start-reverse">
    <path d="M2 1L8 5L2 9" fill="none" stroke="#adb5bd" stroke-width="1.5" stroke-linecap="round" stroke-linejoin="round"/>
  </marker>
</defs>

<!-- Títols -->
<text x="176" y="28" font-family="'Source Sans Pro', sans-serif" font-size="12" fill="#adb5bd" text-anchor="middle">representació lògica</text>
<text x="520" y="28" font-family="'Source Sans Pro', sans-serif" font-size="12" fill="#adb5bd" text-anchor="middle">memòria (lineal)</text>

<!-- Capçaleres columnes -->
<text x="46"  y="52" font-family="'Source Sans Pro', sans-serif" font-size="12" fill="#adb5bd" text-anchor="middle">[0]</text>
<text x="98"  y="52" font-family="'Source Sans Pro', sans-serif" font-size="12" fill="#adb5bd" text-anchor="middle">[1]</text>
<text x="150" y="52" font-family="'Source Sans Pro', sans-serif" font-size="12" fill="#adb5bd" text-anchor="middle">[2]</text>
<text x="202" y="52" font-family="'Source Sans Pro', sans-serif" font-size="12" fill="#adb5bd" text-anchor="middle">[3]</text>
<text x="254" y="52" font-family="'Source Sans Pro', sans-serif" font-size="12" fill="#adb5bd" text-anchor="middle">[4]</text>
<text x="306" y="52" font-family="'Source Sans Pro', sans-serif" font-size="12" fill="#adb5bd" text-anchor="middle">[5]</text>

<!-- Etiquetes files -->
<text x="14" y="80"  font-family="'Source Sans Pro', sans-serif" font-size="12" fill="#adb5bd" text-anchor="end">[0]</text>
<text x="14" y="114" font-family="'Source Sans Pro', sans-serif" font-size="12" fill="#adb5bd" text-anchor="end">[1]</text>
<text x="14" y="148" font-family="'Source Sans Pro', sans-serif" font-size="12" fill="#adb5bd" text-anchor="end">[2]</text>
<text x="14" y="182" font-family="'Source Sans Pro', sans-serif" font-size="12" fill="#adb5bd" text-anchor="end">[3]</text>

<!-- Fila 0: blau fosc -->
<rect x="20"  y="60" width="52" height="28" rx="3" fill="#1a3a5c" stroke="#90bfff" stroke-width="0.5"/>
<rect x="72"  y="60" width="52" height="28" rx="3" fill="#1a3a5c" stroke="#90bfff" stroke-width="0.5"/>
<rect x="124" y="60" width="52" height="28" rx="3" fill="#1a3a5c" stroke="#90bfff" stroke-width="0.5"/>
<rect x="176" y="60" width="52" height="28" rx="3" fill="#1a3a5c" stroke="#90bfff" stroke-width="0.5"/>
<rect x="228" y="60" width="52" height="28" rx="3" fill="#1a3a5c" stroke="#90bfff" stroke-width="0.5"/>
<rect x="280" y="60" width="52" height="28" rx="3" fill="#1a3a5c" stroke="#90bfff" stroke-width="0.5"/>
<text x="46"  y="78" font-family="'Source Sans Pro', sans-serif" font-size="11" fill="#90bfff" text-anchor="middle">[0][0]</text>
<text x="98"  y="78" font-family="'Source Sans Pro', sans-serif" font-size="11" fill="#90bfff" text-anchor="middle">[0][1]</text>
<text x="150" y="78" font-family="'Source Sans Pro', sans-serif" font-size="11" fill="#90bfff" text-anchor="middle">[0][2]</text>
<text x="202" y="78" font-family="'Source Sans Pro', sans-serif" font-size="11" fill="#90bfff" text-anchor="middle">[0][3]</text>
<text x="254" y="78" font-family="'Source Sans Pro', sans-serif" font-size="11" fill="#90bfff" text-anchor="middle">[0][4]</text>
<text x="306" y="78" font-family="'Source Sans Pro', sans-serif" font-size="11" fill="#90bfff" text-anchor="middle">[0][5]</text>

<!-- Fila 1: verd fosc -->
<rect x="20"  y="94" width="52" height="28" rx="3" fill="#1a3a2a" stroke="#90d4aa" stroke-width="0.5"/>
<rect x="72"  y="94" width="52" height="28" rx="3" fill="#1a3a2a" stroke="#90d4aa" stroke-width="0.5"/>
<rect x="124" y="94" width="52" height="28" rx="3" fill="#1a3a2a" stroke="#90d4aa" stroke-width="0.5"/>
<rect x="176" y="94" width="52" height="28" rx="3" fill="#1a3a2a" stroke="#90d4aa" stroke-width="0.5"/>
<rect x="228" y="94" width="52" height="28" rx="3" fill="#1a3a2a" stroke="#90d4aa" stroke-width="0.5"/>
<rect x="280" y="94" width="52" height="28" rx="3" fill="#1a3a2a" stroke="#90d4aa" stroke-width="0.5"/>
<text x="46"  y="112" font-family="'Source Sans Pro', sans-serif" font-size="11" fill="#90d4aa" text-anchor="middle">[1][0]</text>
<text x="98"  y="112" font-family="'Source Sans Pro', sans-serif" font-size="11" fill="#90d4aa" text-anchor="middle">[1][1]</text>
<text x="150" y="112" font-family="'Source Sans Pro', sans-serif" font-size="11" fill="#90d4aa" text-anchor="middle">[1][2]</text>
<text x="202" y="112" font-family="'Source Sans Pro', sans-serif" font-size="11" fill="#90d4aa" text-anchor="middle">[1][3]</text>
<text x="254" y="112" font-family="'Source Sans Pro', sans-serif" font-size="11" fill="#90d4aa" text-anchor="middle">[1][4]</text>
<text x="306" y="112" font-family="'Source Sans Pro', sans-serif" font-size="11" fill="#90d4aa" text-anchor="middle">[1][5]</text>

<!-- Fila 2: groc fosc -->
<rect x="20"  y="128" width="52" height="28" rx="3" fill="#3a2e00" stroke="#ffd966" stroke-width="0.5"/>
<rect x="72"  y="128" width="52" height="28" rx="3" fill="#3a2e00" stroke="#ffd966" stroke-width="0.5"/>
<rect x="124" y="128" width="52" height="28" rx="3" fill="#3a2e00" stroke="#ffd966" stroke-width="0.5"/>
<rect x="176" y="128" width="52" height="28" rx="3" fill="#3a2e00" stroke="#ffd966" stroke-width="0.5"/>
<rect x="228" y="128" width="52" height="28" rx="3" fill="#3a2e00" stroke="#ffd966" stroke-width="0.5"/>
<rect x="280" y="128" width="52" height="28" rx="3" fill="#3a2e00" stroke="#ffd966" stroke-width="0.5"/>
<text x="46"  y="146" font-family="'Source Sans Pro', sans-serif" font-size="11" fill="#ffd966" text-anchor="middle">[2][0]</text>
<text x="98"  y="146" font-family="'Source Sans Pro', sans-serif" font-size="11" fill="#ffd966" text-anchor="middle">[2][1]</text>
<text x="150" y="146" font-family="'Source Sans Pro', sans-serif" font-size="11" fill="#ffd966" text-anchor="middle">[2][2]</text>
<text x="202" y="146" font-family="'Source Sans Pro', sans-serif" font-size="11" fill="#ffd966" text-anchor="middle">[2][3]</text>
<text x="254" y="146" font-family="'Source Sans Pro', sans-serif" font-size="11" fill="#ffd966" text-anchor="middle">[2][4]</text>
<text x="306" y="146" font-family="'Source Sans Pro', sans-serif" font-size="11" fill="#ffd966" text-anchor="middle">[2][5]</text>

<!-- Fila 3: vermell fosc -->
<rect x="20"  y="162" width="52" height="28" rx="3" fill="#3a1a1e" stroke="#f1a8ae" stroke-width="0.5"/>
<rect x="72"  y="162" width="52" height="28" rx="3" fill="#3a1a1e" stroke="#f1a8ae" stroke-width="0.5"/>
<rect x="124" y="162" width="52" height="28" rx="3" fill="#3a1a1e" stroke="#f1a8ae" stroke-width="0.5"/>
<rect x="176" y="162" width="52" height="28" rx="3" fill="#3a1a1e" stroke="#f1a8ae" stroke-width="0.5"/>
<rect x="228" y="162" width="52" height="28" rx="3" fill="#3a1a1e" stroke="#f1a8ae" stroke-width="0.5"/>
<rect x="280" y="162" width="52" height="28" rx="3" fill="#3a1a1e" stroke="#f1a8ae" stroke-width="0.5"/>
<text x="46"  y="180" font-family="'Source Sans Pro', sans-serif" font-size="11" fill="#f1a8ae" text-anchor="middle">[3][0]</text>
<text x="98"  y="180" font-family="'Source Sans Pro', sans-serif" font-size="11" fill="#f1a8ae" text-anchor="middle">[3][1]</text>
<text x="150" y="180" font-family="'Source Sans Pro', sans-serif" font-size="11" fill="#f1a8ae" text-anchor="middle">[3][2]</text>
<text x="202" y="180" font-family="'Source Sans Pro', sans-serif" font-size="11" fill="#f1a8ae" text-anchor="middle">[3][3]</text>
<text x="254" y="180" font-family="'Source Sans Pro', sans-serif" font-size="11" fill="#f1a8ae" text-anchor="middle">[3][4]</text>
<text x="306" y="180" font-family="'Source Sans Pro', sans-serif" font-size="11" fill="#f1a8ae" text-anchor="middle">[3][5]</text>

<!-- Fletxa connexió -->
<line x1="342" y1="120" x2="360" y2="120" stroke="#adb5bd" stroke-width="1" marker-end="url(#arrow)"/>

<!-- MEMÒRIA LINEAL -->
<rect x="370" y="42"  width="120" height="26" rx="3" fill="#1a3a5c" stroke="#90bfff" stroke-width="0.5"/>
<text x="430" y="59"  font-family="'Source Sans Pro', sans-serif" font-size="11" fill="#90bfff" text-anchor="middle">[0][0]</text>
<rect x="370" y="68"  width="120" height="26" rx="3" fill="#1a3a5c" stroke="#90bfff" stroke-width="0.5"/>
<text x="430" y="85"  font-family="'Source Sans Pro', sans-serif" font-size="11" fill="#90bfff" text-anchor="middle">[0][1]</text>
<rect x="370" y="94"  width="120" height="26" rx="3" fill="#1a3a5c" stroke="#90bfff" stroke-width="0.5"/>
<text x="430" y="111" font-family="'Source Sans Pro', sans-serif" font-size="11" fill="#90bfff" text-anchor="middle">[0][2]</text>
<rect x="370" y="120" width="120" height="26" rx="3" fill="#1a3a5c" stroke="#90bfff" stroke-width="0.5"/>
<text x="430" y="137" font-family="'Source Sans Pro', sans-serif" font-size="11" fill="#90bfff" text-anchor="middle">[0][3]</text>
<rect x="370" y="146" width="120" height="26" rx="3" fill="#1a3a5c" stroke="#90bfff" stroke-width="0.5"/>
<text x="430" y="163" font-family="'Source Sans Pro', sans-serif" font-size="11" fill="#90bfff" text-anchor="middle">[0][4]</text>
<rect x="370" y="172" width="120" height="26" rx="3" fill="#1a3a5c" stroke="#90bfff" stroke-width="0.5"/>
<text x="430" y="189" font-family="'Source Sans Pro', sans-serif" font-size="11" fill="#90bfff" text-anchor="middle">[0][5]</text>

<rect x="370" y="198" width="120" height="26" rx="3" fill="#1a3a2a" stroke="#90d4aa" stroke-width="0.5"/>
<text x="430" y="215" font-family="'Source Sans Pro', sans-serif" font-size="11" fill="#90d4aa" text-anchor="middle">[1][0]</text>
<rect x="370" y="224" width="120" height="26" rx="3" fill="#1a3a2a" stroke="#90d4aa" stroke-width="0.5"/>
<text x="430" y="241" font-family="'Source Sans Pro', sans-serif" font-size="11" fill="#90d4aa" text-anchor="middle">[1][1]</text>
<rect x="370" y="250" width="120" height="26" rx="3" fill="#1a3a2a" stroke="#90d4aa" stroke-width="0.5"/>
<text x="430" y="267" font-family="'Source Sans Pro', sans-serif" font-size="11" fill="#90d4aa" text-anchor="middle">[1][2]</text>

<text x="430" y="294" font-family="'Source Sans Pro', sans-serif" font-size="14" fill="#adb5bd" text-anchor="middle">···</text>

<rect x="370" y="302" width="120" height="26" rx="3" fill="#3a1a1e" stroke="#f1a8ae" stroke-width="0.5"/>
<text x="430" y="319" font-family="'Source Sans Pro', sans-serif" font-size="11" fill="#f1a8ae" text-anchor="middle">[3][5]</text>

<!-- Anotació fila 0 -->
<line x1="492" y1="55"  x2="516" y2="55"  stroke="#444" stroke-width="0.5"/>
<line x1="492" y1="185" x2="516" y2="185" stroke="#444" stroke-width="0.5"/>
<line x1="516" y1="55"  x2="516" y2="185" stroke="#444" stroke-width="0.5"/>
<line x1="516" y1="120" x2="526" y2="120" stroke="#444" stroke-width="0.5"/>
<text x="530" y="124" font-family="'Source Sans Pro', sans-serif" font-size="12" fill="#90bfff">fila 0</text>

<!-- Anotació fila 1 -->
<line x1="492" y1="211" x2="518" y2="211" stroke="#444" stroke-width="0.5"/>
<line x1="492" y1="275" x2="518" y2="275" stroke="#444" stroke-width="0.5"/>
<line x1="518" y1="211" x2="518" y2="275" stroke="#444" stroke-width="0.5"/>
<line x1="518" y1="243" x2="528" y2="243" stroke="#444" stroke-width="0.5"/>
<text x="532" y="247" font-family="'Source Sans Pro', sans-serif" font-size="12" fill="#90d4aa">fila 1</text>

<!-- @mat -->
<text x="362" y="38" font-family="'Source Sans Pro', sans-serif" font-size="12" fill="#adb5bd" text-anchor="end">@mat</text>
<line x1="364" y1="42" x2="368" y2="53" stroke="#adb5bd" stroke-width="0.5" marker-end="url(#arrow)"/>
</svg>
