<svg xmlns="http://www.w3.org/2000/svg" width="358" height="95" viewBox="0 0 358 95" fill="#adb5bd">
<path d="M45.94 8.74L42.88 8.74L43.36 7.96L45.52 4.3L45.94 3.46L46.42 4.3L48.58 7.96L49.06 8.74L48.1 8.74L47.68 8.5L45.52 4.84L46.42 4.3L46.42 4.84L44.26 8.5L43.36 7.96L43.78 7.72L45.94 7.72Z" fill="#adb5bd"/>
<rect x="45.94" y="7.72" width="2.16" height="1.02" fill="#adb5bd"/>
<path d="M45.94 8.26L43.78 8.26L45.94 4.6L48.1 8.26Z" fill="#adb5bd"/>
<rect x="45.70" y="8.56" width="0.48" height="73.14" fill="#adb5bd"/>
<rect x="45.70" y="80.80" width="142.44" height="0.48" fill="#adb5bd"/>
<rect x="77.32" y="20.56" width="21.78" height="0.48" fill="#adb5bd"/>
<rect x="98.62" y="20.80" width="0.48" height="60.48" fill="#adb5bd"/>
<rect x="77.08" y="80.80" width="21.78" height="0.48" fill="#adb5bd"/>
<rect x="77.08" y="20.56" width="0.48" height="60.48" fill="#adb5bd"/>
<rect x="136.72" y="34.30" width="21.72" height="0.48" fill="#adb5bd"/>
<rect x="157.96" y="34.54" width="0.48" height="46.74" fill="#adb5bd"/>
<rect x="136.48" y="80.80" width="21.72" height="0.48" fill="#adb5bd"/>
<rect x="136.48" y="34.30" width="0.48" height="46.74" fill="#adb5bd"/>
<rect x="77.32" y="20.80" width="21.54" height="22.80" fill="#2d2d2d"/>
<rect x="77.32" y="20.56" width="21.78" height="0.48" fill="#adb5bd"/>
<rect x="98.62" y="20.80" width="0.48" height="23.04" fill="#adb5bd"/>
<rect x="77.08" y="43.36" width="21.78" height="0.48" fill="#adb5bd"/>
<rect x="77.08" y="20.56" width="0.48" height="23.04" fill="#adb5bd"/>
<rect x="136.72" y="34.54" width="21.48" height="9.06" fill="#2d2d2d"/>
<rect x="136.72" y="34.30" width="21.72" height="0.48" fill="#adb5bd"/>
<rect x="157.96" y="34.54" width="0.48" height="9.30" fill="#adb5bd"/>
<rect x="136.48" y="43.36" width="21.72" height="0.48" fill="#adb5bd"/>
<rect x="136.48" y="34.30" width="0.48" height="9.30" fill="#adb5bd"/>
<rect x="45.70" y="20.56" width="2.22" height="0.48" fill="#adb5bd"/>
<rect x="51.88" y="20.56" width="3.90" height="0.48" fill="#adb5bd"/>
<rect x="59.68" y="20.56" width="3.90" height="0.48" fill="#adb5bd"/>
<rect x="67.54" y="20.56" width="3.90" height="0.48" fill="#adb5bd"/>
<rect x="75.34" y="20.56" width="2.22" height="0.48" fill="#adb5bd"/>
<rect x="45.70" y="34.30" width="2.22" height="0.48" fill="#adb5bd"/>
<rect x="52.00" y="34.30" width="4.08" height="0.48" fill="#adb5bd"/>
<rect x="60.16" y="34.30" width="4.02" height="0.48" fill="#adb5bd"/>
<rect x="68.32" y="34.30" width="4.02" height="0.48" fill="#adb5bd"/>
<rect x="76.42" y="34.30" width="4.08" height="0.48" fill="#adb5bd"/>
<rect x="84.58" y="34.30" width="4.02" height="0.48" fill="#adb5bd"/>
<rect x="92.74" y="34.30" width="4.02" height="0.48" fill="#adb5bd"/>
<rect x="100.84" y="34.30" width="4.08" height="0.48" fill="#adb5bd"/>
<rect x="109.00" y="34.30" width="4.02" height="0.48" fill="#adb5bd"/>
<rect x="117.16" y="34.30" width="4.02" height="0.48" fill="#adb5bd"/>
<rect x="125.26" y="34.30" width="4.08" height="0.48" fill="#adb5bd"/>
<rect x="133.42" y="34.30" width="2.22" height="0.48" fill="#adb5bd"/>
<path d="M124.6 40.84L124.72 38.68L124.84 37.84L125.5 38.26L129.1 40.54L129.88 41.02L129.04 41.44L125.26 43.42L124.48 43.84L124.54 42.94L124.78 42.52L128.56 40.54L129.04 41.44L128.56 41.44L124.96 39.16L125.5 38.26L125.74 38.68L125.62 40.84Z" fill="#adb5bd"/>
<path d="M124.54 42.94L124.6 40.84L125.62 40.84L125.56 42.94Z" fill="#adb5bd"/>
<path d="M125.08 40.84L125.2 38.68L128.8 40.96L125.02 42.94Z" fill="#adb5bd"/>
<rect x="124.60" y="40.54" width="0.24" height="0.48" fill="#adb5bd"/>
<path d="M124.6 41.02L122.32 40.9C117.37 40.5 111.7 39.06 107.44 36.46L106.24 35.62L106.24 35.56C104.85 34.42 103.65 33.31 102.94 31.6L102.88 31.54L103.36 31.42L103.36 31.36L103.9 32.38L103.84 32.38L104.56 33.34L105.46 34.3L105.46 34.24L106.54 35.2L107.74 36.04L107.68 36.04L109.12 36.82L110.62 37.6L112.3 38.26L112.3 38.2L114.1 38.8L114.04 38.8L115.96 39.34L118.0 39.82L120.16 40.18L122.38 40.42L122.32 40.42L124.6 40.54Z" fill="#adb5bd"/>
<path d="M102.88 31.54L102.58 30.52L103.06 30.46L103.06 30.4L103.36 31.42Z" fill="#adb5bd"/>
<path d="M102.46 29.44L102.46 29.2L102.94 29.14L102.94 29.38Z" fill="#adb5bd"/>
<path d="M102.58 30.52L103.06 30.46L102.94 29.38L102.46 29.44Z" fill="#adb5bd"/>
<path d="M70.9 26.38L67.84 26.38L68.32 25.6L70.48 21.94L70.9 21.16L71.38 22.0L73.48 25.66L73.9 26.38L73.0 26.38L72.58 26.14L70.48 22.48L71.38 22.0L71.38 22.48L69.22 26.14L68.32 25.6L68.74 25.36L70.9 25.36Z" fill="#adb5bd"/>
<rect x="70.90" y="25.36" width="2.10" height="1.02" fill="#adb5bd"/>
<path d="M70.9 25.9L68.74 25.9L70.9 22.24L73.0 25.9Z" fill="#adb5bd"/>
<path d="M70.9 39.7L73.84 39.7L73.42 40.42L71.32 44.14L70.84 44.92L70.42 44.2L68.26 40.48L67.78 39.7L68.74 39.7L69.16 39.94L71.32 43.66L70.42 44.2L70.42 43.66L72.52 39.94L73.42 40.42L73.0 40.72L70.9 40.72Z" fill="#adb5bd"/>
<rect x="68.74" y="39.70" width="2.16" height="1.02" fill="#adb5bd"/>
<path d="M70.9 40.18L73.0 40.18L70.9 43.9L68.74 40.18Z" fill="#adb5bd"/>
<rect x="70.66" y="26.20" width="0.48" height="13.74" fill="#adb5bd"/>
<path d="M70.9 50.92L67.84 50.92L68.32 50.14L70.48 46.42L70.9 45.64L71.38 46.48L73.48 50.2L73.9 50.92L73.0 50.92L72.58 50.68L70.48 46.96L71.38 46.48L71.38 46.96L69.22 50.68L68.32 50.14L68.74 49.9L70.9 49.9Z" fill="#adb5bd"/>
<rect x="70.90" y="49.90" width="2.10" height="1.02" fill="#adb5bd"/>
<path d="M70.9 50.44L68.74 50.44L70.9 46.72L73.0 50.44Z" fill="#adb5bd"/>
<path d="M70.9 75.4L73.84 75.4L73.42 76.12L71.32 79.84L70.84 80.62L70.42 79.9L68.26 76.18L67.78 75.4L68.74 75.4L69.16 75.64L71.32 79.36L70.42 79.9L70.42 79.36L72.52 75.64L73.42 76.12L73.0 76.42L70.9 76.42Z" fill="#adb5bd"/>
<rect x="68.74" y="75.40" width="2.16" height="1.02" fill="#adb5bd"/>
<path d="M70.9 75.88L73.0 75.88L70.9 79.6L68.74 75.88Z" fill="#adb5bd"/>
<rect x="70.66" y="50.68" width="0.48" height="24.96" fill="#adb5bd"/>
<path d="M243.04 32.32L243.52 30.82L243.82 30.16L244.3 30.52L248.98 33.58L250.48 34.54L248.74 34.54L243.16 34.42L242.44 34.36L242.62 33.76L243.1 33.4L248.68 33.52L248.74 34.54L248.44 34.42L243.76 31.36L244.3 30.52L244.54 31.12L244.06 32.62Z" fill="#adb5bd"/>
<path d="M242.62 33.76L243.04 32.32L244.06 32.62L243.64 34.06Z" fill="#adb5bd"/>
<path d="M243.52 32.44L244.0 30.94L248.68 34.0L243.1 33.88Z" fill="#adb5bd"/>
<path d="M166.48 38.74L166.24 38.8L166.36 39.28L166.6 39.22Z" fill="#adb5bd"/>
<path d="M166.48 38.74L185.74 33.82C202.39 29.81 218.82 26.89 235.84 30.22L238.3 30.76L238.18 31.24L235.72 30.7L235.78 30.7L233.38 30.28C228.66 29.53 223.88 29.18 219.1 29.26L214.3 29.44L214.36 29.44L209.62 29.86C201.47 30.7 193.82 32.46 185.86 34.3L166.6 39.22Z" fill="#adb5bd"/>
<path d="M238.3 30.76L240.7 31.36L240.58 31.84L238.18 31.24Z" fill="#adb5bd"/>
<path d="M243.1 32.02L243.34 32.08L243.22 32.56L242.98 32.5Z" fill="#adb5bd"/>
<path d="M240.7 31.36L240.58 31.84L242.98 32.5L243.1 32.02Z" fill="#adb5bd"/>
<path d="M223.54 65.92L223.18 64.42L223.0 63.76L223.72 63.82L229.3 63.88L231.04 63.94L229.54 64.84L224.74 67.66L224.14 68.02L223.96 67.36L224.2 66.82L229.0 64.0L229.54 64.84L229.24 64.9L223.66 64.78L223.72 63.82L224.2 64.18L224.56 65.68Z" fill="#adb5bd"/>
<path d="M223.96 67.36L223.54 65.92L224.56 65.68L224.98 67.12Z" fill="#adb5bd"/>
<path d="M224.02 65.8L223.66 64.3L229.24 64.42L224.44 67.24Z" fill="#adb5bd"/>
<path d="M166.24 63.7L166.0 63.7L165.94 64.18L166.18 64.18Z" fill="#adb5bd"/>
<path d="M166.24 63.7L195.04 67.18L202.24 67.66L202.18 67.66L205.78 67.72L209.38 67.66L212.92 67.42L216.46 67.06L216.52 67.54L212.98 67.9C206.99 68.49 200.96 68.13 194.98 67.66L166.18 64.18Z" fill="#adb5bd"/>
<path d="M216.46 67.06L220.0 66.46L219.94 66.46L220.06 66.94L216.52 67.54Z" fill="#adb5bd"/>
<path d="M223.48 65.68L223.72 65.62L223.84 66.1L223.6 66.16Z" fill="#adb5bd"/>
<path d="M219.94 66.46L220.06 66.94L223.6 66.16L223.48 65.68Z" fill="#adb5bd"/>
<rect x="165.64" y="34.84" width="0.48" height="0.24" fill="#adb5bd"/>
<rect x="165.64" y="35.08" width="0.48" height="8.04" fill="#adb5bd"/>
<rect x="165.64" y="45.64" width="0.48" height="0.24" fill="#adb5bd"/>
<rect x="165.64" y="45.88" width="0.48" height="33.24" fill="#adb5bd"/>
<text x="137.44" y="-1.16" font-size="8.76" font-family="'Liberation Sans', Arial, Helvetica, sans-serif" textLength="4.38" lengthAdjust="spacingAndGlyphs" fill="#adb5bd">x</text>
<text x="323.98" y="-1.16" font-size="8.76" font-family="'Liberation Sans', Arial, Helvetica, sans-serif" textLength="4.38" lengthAdjust="spacingAndGlyphs" fill="#adb5bd">0</text>
<text x="341.80" y="-1.16" font-size="8.76" font-family="'Liberation Sans', Arial, Helvetica, sans-serif" textLength="4.38" lengthAdjust="spacingAndGlyphs" fill="#adb5bd">1</text>
<text x="74.74" y="87.34" font-size="8.57" font-family="'Liberation Sans', Arial, Helvetica, sans-serif" textLength="26.53" lengthAdjust="spacingAndGlyphs" fill="#adb5bd">original</text>
<text x="133.66" y="86.92" font-size="8.57" font-family="'Liberation Sans', Arial, Helvetica, sans-serif" textLength="27.01" lengthAdjust="spacingAndGlyphs" fill="#adb5bd">millorat</text>
<text x="28.71" y="7.90" font-size="8.57" font-family="'Liberation Sans', Arial, Helvetica, sans-serif" textLength="2.41" lengthAdjust="spacingAndGlyphs" fill="#adb5bd">t</text>
<text x="31.12" y="10.00" font-size="6.83" font-family="'Liberation Sans', Arial, Helvetica, sans-serif" textLength="9.47" lengthAdjust="spacingAndGlyphs" fill="#adb5bd">exe</text>
<text x="36.46" y="21.64" font-size="8.57" font-family="'Liberation Sans', Arial, Helvetica, sans-serif" textLength="2.41" lengthAdjust="spacingAndGlyphs" fill="#adb5bd">t</text>
<text x="38.86" y="23.80" font-size="6.83" font-family="'Liberation Sans', Arial, Helvetica, sans-serif" textLength="3.44" lengthAdjust="spacingAndGlyphs" fill="#adb5bd">0</text>
<text x="36.46" y="38.02" font-size="8.57" font-family="'Liberation Sans', Arial, Helvetica, sans-serif" textLength="2.41" lengthAdjust="spacingAndGlyphs" fill="#adb5bd">t</text>
<text x="38.86" y="40.12" font-size="6.83" font-family="'Liberation Sans', Arial, Helvetica, sans-serif" textLength="3.44" lengthAdjust="spacingAndGlyphs" fill="#adb5bd">1</text>
<text x="112.60" y="46.60" font-size="8.57" font-family="'Liberation Sans', Arial, Helvetica, sans-serif" textLength="4.83" lengthAdjust="spacingAndGlyphs" fill="#adb5bd">S</text>
<text x="117.34" y="48.76" font-size="6.83" font-family="'Liberation Sans', Arial, Helvetica, sans-serif" textLength="3.44" lengthAdjust="spacingAndGlyphs" fill="#adb5bd">x</text>
<text x="61.84" y="31.54" font-size="8.57" font-family="'Liberation Sans', Arial, Helvetica, sans-serif" textLength="4.83" lengthAdjust="spacingAndGlyphs" fill="#adb5bd">P</text>
<text x="66.58" y="33.70" font-size="6.83" font-family="'Liberation Sans', Arial, Helvetica, sans-serif" textLength="3.44" lengthAdjust="spacingAndGlyphs" fill="#adb5bd">x</text>
<text x="54.52" y="62.08" font-size="8.57" font-family="'Liberation Sans', Arial, Helvetica, sans-serif" textLength="11.90" lengthAdjust="spacingAndGlyphs" fill="#adb5bd">1-P</text>
<text x="66.40" y="64.24" font-size="6.83" font-family="'Liberation Sans', Arial, Helvetica, sans-serif" textLength="3.44" lengthAdjust="spacingAndGlyphs" fill="#adb5bd">x</text>
<text x="257.20" y="37.12" font-size="9.00" font-family="'Liberation Sans', Arial, Helvetica, sans-serif" font-style="italic" textLength="2.50" lengthAdjust="spacingAndGlyphs" fill="#adb5bd">t</text>
<text x="260.02" y="40.06" font-size="6.96" font-family="'Liberation Sans', Arial, Helvetica, sans-serif" font-style="italic" textLength="26.30" lengthAdjust="spacingAndGlyphs" fill="#adb5bd">millorat</text>
<text x="300.58" y="29.62" font-size="9.00" font-family="'Liberation Sans', Arial, Helvetica, sans-serif" font-style="italic" textLength="2.50" lengthAdjust="spacingAndGlyphs" fill="#adb5bd">t</text>
<text x="303.40" y="32.50" font-size="6.96" font-family="'Liberation Sans', Arial, Helvetica, sans-serif" textLength="3.48" lengthAdjust="spacingAndGlyphs" fill="#adb5bd">0</text>
<text x="313.66" y="29.62" font-size="9.00" font-family="'Liberation Sans', Arial, Helvetica, sans-serif" font-style="italic" textLength="5.50" lengthAdjust="spacingAndGlyphs" fill="#adb5bd">P</text>
<text x="319.48" y="32.50" font-size="6.96" font-family="'Liberation Sans', Arial, Helvetica, sans-serif" font-style="italic" textLength="3.09" lengthAdjust="spacingAndGlyphs" fill="#adb5bd">x</text>
<text x="309.16" y="29.62" font-size="9.00" font-family="'Liberation Sans', Arial, Helvetica, sans-serif" textLength="2.25" lengthAdjust="spacingAndGlyphs" fill="#adb5bd">⋅</text>
<text x="307.60" y="43.06" font-size="9.00" font-family="'Liberation Sans', Arial, Helvetica, sans-serif" font-style="italic" textLength="4.50" lengthAdjust="spacingAndGlyphs" fill="#adb5bd">S</text>
<text x="312.40" y="45.94" font-size="6.96" font-family="'Liberation Sans', Arial, Helvetica, sans-serif" font-style="italic" textLength="3.09" lengthAdjust="spacingAndGlyphs" fill="#adb5bd">x</text>
<text x="300.58" y="37.12" font-size="9.00" font-family="'Liberation Sans', Arial, Helvetica, sans-serif" textLength="22.01" lengthAdjust="spacingAndGlyphs" fill="#adb5bd">--------------</text>
<text x="290.80" y="37.12" font-size="9.00" font-family="'Liberation Sans', Arial, Helvetica, sans-serif" textLength="5.08" lengthAdjust="spacingAndGlyphs" fill="#adb5bd">=</text>
<text x="239.74" y="65.14" font-size="9.00" font-family="'Liberation Sans', Arial, Helvetica, sans-serif" font-style="italic" textLength="2.50" lengthAdjust="spacingAndGlyphs" fill="#adb5bd">t</text>
<text x="242.56" y="68.02" font-size="6.96" font-family="'Liberation Sans', Arial, Helvetica, sans-serif" font-style="italic" textLength="7.50" lengthAdjust="spacingAndGlyphs" fill="#adb5bd">no</text>
<text x="257.07" y="68.02" font-size="6.96" font-family="'Liberation Sans', Arial, Helvetica, sans-serif" font-style="italic" textLength="26.24" lengthAdjust="spacingAndGlyphs" fill="#adb5bd">millorat</text>
<text x="251.86" y="68.02" font-size="6.96" font-family="'Liberation Sans', Arial, Helvetica, sans-serif" textLength="3.48" lengthAdjust="spacingAndGlyphs" fill="#adb5bd">–</text>
<text x="297.46" y="65.14" font-size="9.00" font-family="'Liberation Sans', Arial, Helvetica, sans-serif" font-style="italic" textLength="2.50" lengthAdjust="spacingAndGlyphs" fill="#adb5bd">t</text>
<text x="300.28" y="68.02" font-size="6.96" font-family="'Liberation Sans', Arial, Helvetica, sans-serif" textLength="3.48" lengthAdjust="spacingAndGlyphs" fill="#adb5bd">0</text>
<text x="314.14" y="65.14" font-size="9.00" font-family="'Liberation Sans', Arial, Helvetica, sans-serif" textLength="4.50" lengthAdjust="spacingAndGlyphs" fill="#adb5bd">1</text>
<text x="327.64" y="65.14" font-size="9.00" font-family="'Liberation Sans', Arial, Helvetica, sans-serif" font-style="italic" textLength="5.50" lengthAdjust="spacingAndGlyphs" fill="#adb5bd">P</text>
<text x="333.46" y="68.02" font-size="6.96" font-family="'Liberation Sans', Arial, Helvetica, sans-serif" font-style="italic" textLength="3.09" lengthAdjust="spacingAndGlyphs" fill="#adb5bd">x</text>
<text x="320.86" y="65.14" font-size="9.00" font-family="'Liberation Sans', Arial, Helvetica, sans-serif" textLength="4.50" lengthAdjust="spacingAndGlyphs" fill="#adb5bd">–</text>
<text x="310.54" y="65.14" font-size="9.00" font-family="'Liberation Sans', Arial, Helvetica, sans-serif" textLength="3.00" lengthAdjust="spacingAndGlyphs" fill="#adb5bd">(</text>
<text x="337.24" y="65.14" font-size="9.00" font-family="'Liberation Sans', Arial, Helvetica, sans-serif" textLength="3.00" lengthAdjust="spacingAndGlyphs" fill="#adb5bd">)</text>
<text x="306.04" y="65.14" font-size="9.00" font-family="'Liberation Sans', Arial, Helvetica, sans-serif" textLength="2.25" lengthAdjust="spacingAndGlyphs" fill="#adb5bd">⋅</text>
<text x="287.86" y="65.14" font-size="9.00" font-family="'Liberation Sans', Arial, Helvetica, sans-serif" textLength="5.08" lengthAdjust="spacingAndGlyphs" fill="#adb5bd">=</text>
</svg>
