<svg xmlns="http://www.w3.org/2000/svg" width="386" height="101" viewBox="0 0 386 101" fill="#adb5bd">
<rect x="42.92" y="42.58" width="0.24" height="0.48" fill="#adb5bd"/>
<rect x="43.16" y="42.58" width="63.24" height="0.48" fill="#adb5bd"/>
<path d="M61.16 33.82L61.16 51.82L79.16 42.82Z" fill="#2d2d2d"/>
<path d="M61.4 33.82L61.4 51.82L61.28 52.06L61.04 51.64L79.04 42.64L79.28 42.64L79.76 42.88L79.28 43.06L60.92 52.24L60.92 33.82Z" fill="#adb5bd"/>
<path d="M79.04 43.06L61.04 34.06L60.92 33.82L60.92 33.46L79.28 42.64Z" fill="#adb5bd"/>
<path d="M84.56 42.7L84.5 42.22L84.38 41.8C83.54 39.78 80.54 40.05 80.12 42.22L80.06 42.7L80.12 43.12C80.44 45.27 83.64 45.54 84.38 43.54L84.5 43.12L84.56 42.7Z" fill="#2d2d2d"/>
<path d="M84.32 42.76L84.26 42.28L84.14 41.86L84.2 41.92L84.02 41.56L84.02 41.62L83.72 41.26L83.78 41.26L83.42 40.96L83.42 41.02L83.06 40.84L83.12 40.84L82.7 40.72L82.76 40.72L82.34 40.66L82.4 40.66L81.92 40.72L81.5 40.84L81.56 40.84L81.2 41.02L81.26 40.96L80.9 41.26L80.6 41.62L80.66 41.56L80.48 41.92L80.48 41.86L80.36 42.28L80.3 42.76L80.3 42.7L80.36 43.12L80.36 43.06L80.48 43.48L80.66 43.9L80.6 43.78L80.9 44.08L81.26 44.38L81.2 44.38L81.56 44.56L81.5 44.5L81.92 44.62L82.4 44.68L82.34 44.68L82.76 44.62L82.7 44.62L83.12 44.5L83.06 44.56L83.42 44.38L83.78 44.08L83.72 44.08L84.02 43.78L84.02 43.9L84.2 43.48L84.14 43.48L84.26 43.06L84.26 43.12L84.32 42.7L84.8 42.76L84.74 43.18L84.62 43.6L84.62 43.66L84.44 44.08L84.08 44.44L83.72 44.74L83.66 44.8L83.3 44.98L83.24 44.98C82.49 45.23 82.11 45.2 81.38 44.98L81.32 44.98L80.96 44.8L80.96 44.74L80.6 44.44L80.54 44.44L80.24 44.14L80.24 44.08L80.06 43.66L80.0 43.6L79.88 43.18L79.82 42.76L79.82 42.7L79.88 42.22L79.88 42.16L80.0 41.74L80.06 41.68L80.24 41.32L80.54 40.96L80.6 40.9L80.96 40.6C81.49 40.28 81.72 40.23 82.34 40.18L82.4 40.18L82.82 40.24L83.24 40.36L83.3 40.42L83.66 40.6L83.72 40.6L84.08 40.9L84.08 40.96L84.38 41.32L84.44 41.32L84.62 41.68L84.62 41.74L84.74 42.16L84.74 42.22L84.8 42.7Z" fill="#adb5bd"/>
<path d="M84.32 42.7L84.32 42.76L84.8 42.7L84.8 42.76Z" fill="#adb5bd"/>
<rect x="106.16" y="30.58" width="63.24" height="0.48" fill="#adb5bd"/>
<rect x="168.92" y="30.82" width="0.48" height="26.52" fill="#adb5bd"/>
<rect x="105.92" y="56.86" width="63.24" height="0.48" fill="#adb5bd"/>
<rect x="105.92" y="30.58" width="0.48" height="26.52" fill="#adb5bd"/>
<rect x="253.76" y="25.60" width="0.48" height="0.24" fill="#adb5bd"/>
<rect x="253.76" y="25.84" width="0.48" height="18.24" fill="#adb5bd"/>
<rect x="255.80" y="24.34" width="0.48" height="0.24" fill="#adb5bd"/>
<rect x="255.80" y="24.58" width="0.48" height="21.24" fill="#adb5bd"/>
<rect x="255.80" y="25.60" width="0.24" height="0.48" fill="#adb5bd"/>
<rect x="256.04" y="25.60" width="6.24" height="0.48" fill="#adb5bd"/>
<rect x="255.80" y="43.84" width="0.24" height="0.48" fill="#adb5bd"/>
<rect x="256.04" y="43.84" width="6.24" height="0.48" fill="#adb5bd"/>
<rect x="262.28" y="13.60" width="0.48" height="0.24" fill="#adb5bd"/>
<rect x="262.28" y="13.84" width="0.48" height="12.00" fill="#adb5bd"/>
<rect x="262.04" y="43.60" width="0.48" height="0.24" fill="#adb5bd"/>
<rect x="262.04" y="43.84" width="0.48" height="12.00" fill="#adb5bd"/>
<rect x="260.30" y="13.36" width="0.24" height="0.48" fill="#adb5bd"/>
<rect x="260.54" y="13.36" width="3.48" height="0.48" fill="#adb5bd"/>
<rect x="253.52" y="55.36" width="0.48" height="0.24" fill="#adb5bd"/>
<rect x="253.52" y="55.60" width="0.48" height="18.24" fill="#adb5bd"/>
<rect x="255.56" y="53.86" width="0.48" height="0.24" fill="#adb5bd"/>
<rect x="255.56" y="54.10" width="0.48" height="21.48" fill="#adb5bd"/>
<rect x="255.56" y="55.36" width="0.24" height="0.48" fill="#adb5bd"/>
<rect x="255.80" y="55.36" width="6.24" height="0.48" fill="#adb5bd"/>
<rect x="255.56" y="73.60" width="0.24" height="0.48" fill="#adb5bd"/>
<rect x="255.80" y="73.60" width="6.24" height="0.48" fill="#adb5bd"/>
<rect x="261.80" y="73.36" width="0.48" height="0.24" fill="#adb5bd"/>
<rect x="261.80" y="73.60" width="0.48" height="12.00" fill="#adb5bd"/>
<path d="M253.28 34.12L253.22 33.64L253.28 33.7L253.04 33.34L253.1 33.4L252.74 33.1L252.86 33.16L252.38 33.1L252.44 33.1L252.02 33.16L252.14 33.1L251.78 33.4L251.84 33.34L251.6 33.7L251.6 33.64L251.54 34.12L251.54 34.06L251.6 34.6L251.6 34.48L251.84 34.84L251.78 34.78L252.14 35.08L252.02 35.02L252.44 35.08L252.38 35.08L252.86 35.02L252.74 35.08L253.1 34.78L253.04 34.84L253.28 34.48L253.22 34.6L253.28 34.06L253.76 34.12L253.7 34.66L253.7 34.72L253.46 35.08L253.4 35.14L253.04 35.44L252.92 35.5L252.44 35.56L252.38 35.56L251.96 35.5L251.84 35.44L251.48 35.14L251.42 35.08L251.18 34.72L251.12 34.66L251.06 34.12L251.06 34.06L251.12 33.58L251.18 33.46L251.42 33.1L251.48 33.04L251.84 32.74L251.96 32.68L252.38 32.62L252.44 32.62L252.92 32.68L253.04 32.74L253.4 33.04L253.46 33.1L253.7 33.46L253.7 33.58L253.76 34.06Z" fill="#adb5bd"/>
<path d="M253.28 34.06L253.28 34.12L253.76 34.06L253.76 34.12Z" fill="#adb5bd"/>
<rect x="243.26" y="33.82" width="8.28" height="0.48" fill="#adb5bd"/>
<rect x="243.26" y="34.06" width="0.48" height="30.78" fill="#adb5bd"/>
<rect x="243.50" y="64.36" width="10.26" height="0.48" fill="#adb5bd"/>
<rect x="243.26" y="48.82" width="0.24" height="0.48" fill="#adb5bd"/>
<rect x="227.06" y="48.82" width="16.20" height="0.48" fill="#adb5bd"/>
<rect x="262.04" y="48.82" width="0.24" height="0.48" fill="#adb5bd"/>
<rect x="262.28" y="48.82" width="47.34" height="0.48" fill="#adb5bd"/>
<rect x="259.04" y="85.12" width="0.24" height="0.48" fill="#adb5bd"/>
<rect x="259.28" y="85.12" width="5.46" height="0.48" fill="#adb5bd"/>
<rect x="260.06" y="86.38" width="0.24" height="0.48" fill="#adb5bd"/>
<rect x="260.30" y="86.38" width="3.72" height="0.48" fill="#adb5bd"/>
<rect x="261.02" y="87.58" width="0.24" height="0.48" fill="#adb5bd"/>
<rect x="261.26" y="87.58" width="1.50" height="0.48" fill="#adb5bd"/>
<rect x="308.66" y="32.50" width="63.24" height="0.48" fill="#adb5bd"/>
<rect x="371.42" y="32.74" width="0.48" height="27.72" fill="#adb5bd"/>
<rect x="308.42" y="59.98" width="63.24" height="0.48" fill="#adb5bd"/>
<rect x="308.42" y="32.50" width="0.48" height="27.72" fill="#adb5bd"/>
<rect x="337.40" y="79.36" width="0.24" height="0.48" fill="#adb5bd"/>
<rect x="337.64" y="79.36" width="5.52" height="0.48" fill="#adb5bd"/>
<rect x="338.42" y="80.56" width="0.24" height="0.48" fill="#adb5bd"/>
<rect x="338.66" y="80.56" width="3.72" height="0.48" fill="#adb5bd"/>
<rect x="339.38" y="81.82" width="0.24" height="0.48" fill="#adb5bd"/>
<rect x="339.62" y="81.82" width="1.50" height="0.48" fill="#adb5bd"/>
<rect x="339.92" y="59.68" width="0.48" height="0.24" fill="#adb5bd"/>
<rect x="339.92" y="59.92" width="0.48" height="19.44" fill="#adb5bd"/>
<text x="120.14" y="46.84" font-size="10.98" font-family="'Liberation Sans', Arial, Helvetica, sans-serif" textLength="38.78" lengthAdjust="spacingAndGlyphs" fill="#adb5bd">circuit A</text>
<text x="322.64" y="50.56" font-size="10.98" font-family="'Liberation Sans', Arial, Helvetica, sans-serif" textLength="38.78" lengthAdjust="spacingAndGlyphs" fill="#adb5bd">circuit A</text>
<text x="226.28" y="27.22" font-size="10.98" font-family="'Liberation Sans', Arial, Helvetica, sans-serif" font-style="italic" textLength="23.16" lengthAdjust="spacingAndGlyphs" fill="#adb5bd">pmos</text>
<text x="225.68" y="77.86" font-size="10.98" font-family="'Liberation Sans', Arial, Helvetica, sans-serif" font-style="italic" textLength="23.16" lengthAdjust="spacingAndGlyphs" fill="#adb5bd">nmos</text>
<text x="206.90" y="45.94" font-size="10.98" font-family="'Liberation Sans', Arial, Helvetica, sans-serif" textLength="15.81" lengthAdjust="spacingAndGlyphs" fill="#adb5bd">Vin</text>
<text x="268.76" y="46.60" font-size="10.98" font-family="'Liberation Sans', Arial, Helvetica, sans-serif" textLength="20.57" lengthAdjust="spacingAndGlyphs" fill="#adb5bd">Vout</text>
<text x="266.30" y="12.22" font-size="10.98" font-family="'Liberation Sans', Arial, Helvetica, sans-serif" textLength="17.65" lengthAdjust="spacingAndGlyphs" fill="#adb5bd">Vcc</text>
<text x="268.16" y="93.46" font-size="10.98" font-family="'Liberation Sans', Arial, Helvetica, sans-serif" textLength="23.76" lengthAdjust="spacingAndGlyphs" fill="#adb5bd">GND</text>
</svg>
