<svg xmlns="http://www.w3.org/2000/svg" width="360" height="101" viewBox="0 0 360 101" fill="#000000">
<rect x="16.92" y="42.58" width="0.24" height="0.48" fill="#000000"/>
<rect x="17.16" y="42.58" width="63.24" height="0.48" fill="#000000"/>
<path d="M35.16 33.82L35.16 51.82L53.16 42.82Z" fill="#ffffff"/>
<path d="M35.4 33.82L35.4 51.82L35.28 52.06L35.04 51.64L53.04 42.64L53.28 42.64L53.76 42.88L53.28 43.06L34.92 52.24L34.92 33.82Z" fill="#000000"/>
<path d="M53.04 43.06L35.04 34.06L34.92 33.82L34.92 33.46L53.28 42.64Z" fill="#000000"/>
<path d="M58.56 42.7L58.5 42.22L58.38 41.8C57.54 39.78 54.54 40.05 54.12 42.22L54.06 42.7L54.12 43.12C54.44 45.27 57.64 45.54 58.38 43.54L58.5 43.12L58.56 42.7Z" fill="#ffffff"/>
<path d="M58.32 42.76L58.26 42.28L58.14 41.86L58.2 41.92L58.02 41.56L58.02 41.62L57.72 41.26L57.78 41.26L57.42 40.96L57.42 41.02L57.06 40.84L57.12 40.84L56.7 40.72L56.76 40.72L56.34 40.66L56.4 40.66L55.92 40.72L55.5 40.84L55.56 40.84L55.2 41.02L55.26 40.96L54.9 41.26L54.6 41.62L54.66 41.56L54.48 41.92L54.48 41.86L54.36 42.28L54.3 42.76L54.3 42.7L54.36 43.12L54.36 43.06L54.48 43.48L54.66 43.9L54.6 43.78L54.9 44.08L55.26 44.38L55.2 44.38L55.56 44.56L55.5 44.5L55.92 44.62L56.4 44.68L56.34 44.68L56.76 44.62L56.7 44.62L57.12 44.5L57.06 44.56L57.42 44.38L57.78 44.08L57.72 44.08L58.02 43.78L58.02 43.9L58.2 43.48L58.14 43.48L58.26 43.06L58.26 43.12L58.32 42.7L58.8 42.76L58.74 43.18L58.62 43.6L58.62 43.66L58.44 44.08L58.08 44.44L57.72 44.74L57.66 44.8L57.3 44.98L57.24 44.98C56.49 45.23 56.11 45.2 55.38 44.98L55.32 44.98L54.96 44.8L54.96 44.74L54.6 44.44L54.54 44.44L54.24 44.14L54.24 44.08L54.06 43.66L54.0 43.6L53.88 43.18L53.82 42.76L53.82 42.7L53.88 42.22L53.88 42.16L54.0 41.74L54.06 41.68L54.24 41.32L54.54 40.96L54.6 40.9L54.96 40.6C55.49 40.28 55.72 40.23 56.34 40.18L56.4 40.18L56.82 40.24L57.24 40.36L57.3 40.42L57.66 40.6L57.72 40.6L58.08 40.9L58.08 40.96L58.38 41.32L58.44 41.32L58.62 41.68L58.62 41.74L58.74 42.16L58.74 42.22L58.8 42.7Z" fill="#000000"/>
<path d="M58.32 42.7L58.32 42.76L58.8 42.7L58.8 42.76Z" fill="#000000"/>
<rect x="80.16" y="30.58" width="63.24" height="0.48" fill="#000000"/>
<rect x="142.92" y="30.82" width="0.48" height="26.52" fill="#000000"/>
<rect x="79.92" y="56.86" width="63.24" height="0.48" fill="#000000"/>
<rect x="79.92" y="30.58" width="0.48" height="26.52" fill="#000000"/>
<rect x="227.76" y="25.60" width="0.48" height="0.24" fill="#000000"/>
<rect x="227.76" y="25.84" width="0.48" height="18.24" fill="#000000"/>
<rect x="229.80" y="24.34" width="0.48" height="0.24" fill="#000000"/>
<rect x="229.80" y="24.58" width="0.48" height="21.24" fill="#000000"/>
<rect x="229.80" y="25.60" width="0.24" height="0.48" fill="#000000"/>
<rect x="230.04" y="25.60" width="6.24" height="0.48" fill="#000000"/>
<rect x="229.80" y="43.84" width="0.24" height="0.48" fill="#000000"/>
<rect x="230.04" y="43.84" width="6.24" height="0.48" fill="#000000"/>
<rect x="236.28" y="13.60" width="0.48" height="0.24" fill="#000000"/>
<rect x="236.28" y="13.84" width="0.48" height="12.00" fill="#000000"/>
<rect x="236.04" y="43.60" width="0.48" height="0.24" fill="#000000"/>
<rect x="236.04" y="43.84" width="0.48" height="12.00" fill="#000000"/>
<rect x="234.30" y="13.36" width="0.24" height="0.48" fill="#000000"/>
<rect x="234.54" y="13.36" width="3.48" height="0.48" fill="#000000"/>
<rect x="227.52" y="55.36" width="0.48" height="0.24" fill="#000000"/>
<rect x="227.52" y="55.60" width="0.48" height="18.24" fill="#000000"/>
<rect x="229.56" y="53.86" width="0.48" height="0.24" fill="#000000"/>
<rect x="229.56" y="54.10" width="0.48" height="21.48" fill="#000000"/>
<rect x="229.56" y="55.36" width="0.24" height="0.48" fill="#000000"/>
<rect x="229.80" y="55.36" width="6.24" height="0.48" fill="#000000"/>
<rect x="229.56" y="73.60" width="0.24" height="0.48" fill="#000000"/>
<rect x="229.80" y="73.60" width="6.24" height="0.48" fill="#000000"/>
<rect x="235.80" y="73.36" width="0.48" height="0.24" fill="#000000"/>
<rect x="235.80" y="73.60" width="0.48" height="12.00" fill="#000000"/>
<path d="M227.28 34.12L227.22 33.64L227.28 33.7L227.04 33.34L227.1 33.4L226.74 33.1L226.86 33.16L226.38 33.1L226.44 33.1L226.02 33.16L226.14 33.1L225.78 33.4L225.84 33.34L225.6 33.7L225.6 33.64L225.54 34.12L225.54 34.06L225.6 34.6L225.6 34.48L225.84 34.84L225.78 34.78L226.14 35.08L226.02 35.02L226.44 35.08L226.38 35.08L226.86 35.02L226.74 35.08L227.1 34.78L227.04 34.84L227.28 34.48L227.22 34.6L227.28 34.06L227.76 34.12L227.7 34.66L227.7 34.72L227.46 35.08L227.4 35.14L227.04 35.44L226.92 35.5L226.44 35.56L226.38 35.56L225.96 35.5L225.84 35.44L225.48 35.14L225.42 35.08L225.18 34.72L225.12 34.66L225.06 34.12L225.06 34.06L225.12 33.58L225.18 33.46L225.42 33.1L225.48 33.04L225.84 32.74L225.96 32.68L226.38 32.62L226.44 32.62L226.92 32.68L227.04 32.74L227.4 33.04L227.46 33.1L227.7 33.46L227.7 33.58L227.76 34.06Z" fill="#000000"/>
<path d="M227.28 34.06L227.28 34.12L227.76 34.06L227.76 34.12Z" fill="#000000"/>
<rect x="217.26" y="33.82" width="8.28" height="0.48" fill="#000000"/>
<rect x="217.26" y="34.06" width="0.48" height="30.78" fill="#000000"/>
<rect x="217.50" y="64.36" width="10.26" height="0.48" fill="#000000"/>
<rect x="217.26" y="48.82" width="0.24" height="0.48" fill="#000000"/>
<rect x="201.06" y="48.82" width="16.20" height="0.48" fill="#000000"/>
<rect x="236.04" y="48.82" width="0.24" height="0.48" fill="#000000"/>
<rect x="236.28" y="48.82" width="47.34" height="0.48" fill="#000000"/>
<rect x="233.04" y="85.12" width="0.24" height="0.48" fill="#000000"/>
<rect x="233.28" y="85.12" width="5.46" height="0.48" fill="#000000"/>
<rect x="234.06" y="86.38" width="0.24" height="0.48" fill="#000000"/>
<rect x="234.30" y="86.38" width="3.72" height="0.48" fill="#000000"/>
<rect x="235.02" y="87.58" width="0.24" height="0.48" fill="#000000"/>
<rect x="235.26" y="87.58" width="1.50" height="0.48" fill="#000000"/>
<rect x="282.66" y="32.50" width="63.24" height="0.48" fill="#000000"/>
<rect x="345.42" y="32.74" width="0.48" height="27.72" fill="#000000"/>
<rect x="282.42" y="59.98" width="63.24" height="0.48" fill="#000000"/>
<rect x="282.42" y="32.50" width="0.48" height="27.72" fill="#000000"/>
<rect x="311.40" y="79.36" width="0.24" height="0.48" fill="#000000"/>
<rect x="311.64" y="79.36" width="5.52" height="0.48" fill="#000000"/>
<rect x="312.42" y="80.56" width="0.24" height="0.48" fill="#000000"/>
<rect x="312.66" y="80.56" width="3.72" height="0.48" fill="#000000"/>
<rect x="313.38" y="81.82" width="0.24" height="0.48" fill="#000000"/>
<rect x="313.62" y="81.82" width="1.50" height="0.48" fill="#000000"/>
<rect x="313.92" y="59.68" width="0.48" height="0.24" fill="#000000"/>
<rect x="313.92" y="59.92" width="0.48" height="19.44" fill="#000000"/>
<text x="94.14" y="46.84" font-size="10.98" font-family="'Liberation Sans', Arial, Helvetica, sans-serif" textLength="38.78" lengthAdjust="spacingAndGlyphs" fill="#000000">circuit A</text>
<text x="296.64" y="50.56" font-size="10.98" font-family="'Liberation Sans', Arial, Helvetica, sans-serif" textLength="38.78" lengthAdjust="spacingAndGlyphs" fill="#000000">circuit A</text>
<text x="200.28" y="27.22" font-size="10.98" font-family="'Liberation Sans', Arial, Helvetica, sans-serif" font-style="italic" textLength="23.16" lengthAdjust="spacingAndGlyphs" fill="#000000">pmos</text>
<text x="199.68" y="77.86" font-size="10.98" font-family="'Liberation Sans', Arial, Helvetica, sans-serif" font-style="italic" textLength="23.16" lengthAdjust="spacingAndGlyphs" fill="#000000">nmos</text>
<text x="180.90" y="45.94" font-size="10.98" font-family="'Liberation Sans', Arial, Helvetica, sans-serif" textLength="15.81" lengthAdjust="spacingAndGlyphs" fill="#000000">Vin</text>
<text x="242.76" y="46.60" font-size="10.98" font-family="'Liberation Sans', Arial, Helvetica, sans-serif" textLength="20.57" lengthAdjust="spacingAndGlyphs" fill="#000000">Vout</text>
<text x="240.30" y="12.22" font-size="10.98" font-family="'Liberation Sans', Arial, Helvetica, sans-serif" textLength="17.65" lengthAdjust="spacingAndGlyphs" fill="#000000">Vcc</text>
<text x="242.16" y="93.46" font-size="10.98" font-family="'Liberation Sans', Arial, Helvetica, sans-serif" textLength="23.76" lengthAdjust="spacingAndGlyphs" fill="#000000">GND</text>
</svg>
