<svg xmlns="http://www.w3.org/2000/svg" width="386" height="138" viewBox="0 0 386 138" fill="#000000">
<rect x="56.90" y="40.02" width="0.48" height="0.24" fill="#000000"/>
<rect x="56.90" y="40.26" width="0.48" height="16.92" fill="#000000"/>
<rect x="58.52" y="38.58" width="1.02" height="0.48" fill="#000000"/>
<rect x="58.52" y="39.06" width="1.02" height="19.98" fill="#000000"/>
<rect x="58.52" y="39.78" width="0.48" height="1.02" fill="#000000"/>
<rect x="59.00" y="39.78" width="6.06" height="1.02" fill="#000000"/>
<rect x="58.52" y="56.70" width="0.48" height="1.02" fill="#000000"/>
<rect x="59.00" y="56.70" width="6.06" height="1.02" fill="#000000"/>
<rect x="64.52" y="28.62" width="1.02" height="0.48" fill="#000000"/>
<rect x="64.52" y="29.10" width="1.02" height="11.40" fill="#000000"/>
<rect x="64.52" y="56.70" width="0.48" height="0.24" fill="#000000"/>
<rect x="64.52" y="56.94" width="0.48" height="11.10" fill="#000000"/>
<rect x="62.90" y="28.68" width="3.54" height="0.48" fill="#000000"/>
<rect x="56.66" y="67.56" width="0.48" height="17.16" fill="#000000"/>
<rect x="58.52" y="66.18" width="0.48" height="20.16" fill="#000000"/>
<rect x="58.52" y="67.56" width="6.06" height="0.48" fill="#000000"/>
<rect x="58.52" y="84.48" width="6.06" height="0.48" fill="#000000"/>
<rect x="64.34" y="84.24" width="0.48" height="11.40" fill="#000000"/>
<path d="M56.42 47.94L56.36 47.52L56.42 47.58L56.18 47.22L56.18 47.28L55.88 46.98L56.06 47.04L55.64 46.98L55.7 46.98L55.28 47.04L55.4 46.98L55.1 47.28L55.16 47.22L54.92 47.58L54.92 47.52L54.86 47.94L54.86 47.88L54.92 48.36L54.92 48.24L55.16 48.6L55.1 48.54L55.4 48.78L55.28 48.72L55.7 48.84L55.58 48.84L56.0 48.72L55.94 48.78L56.24 48.54L56.18 48.6L56.42 48.24L56.36 48.36L56.42 47.88L56.9 47.94L56.84 48.42L56.84 48.48L56.6 48.84L56.54 48.9L56.24 49.14L56.12 49.2L55.7 49.32L55.58 49.32L55.16 49.2L55.1 49.14L54.8 48.9L54.74 48.84L54.5 48.48L54.44 48.42L54.38 47.94L54.38 47.88L54.44 47.46L54.5 47.34L54.74 46.98L54.74 46.92L55.04 46.62L55.22 46.56L55.64 46.5L55.7 46.5L56.12 46.56L56.24 46.62L56.6 46.98L56.84 47.34L56.84 47.46L56.9 47.88Z" fill="#000000"/>
<path d="M56.42 47.88L56.42 47.94L56.9 47.88L56.9 47.94Z" fill="#000000"/>
<rect x="47.18" y="47.64" width="7.68" height="0.48" fill="#000000"/>
<rect x="47.18" y="47.88" width="0.48" height="28.50" fill="#000000"/>
<rect x="47.42" y="75.90" width="9.48" height="0.48" fill="#000000"/>
<rect x="32.12" y="61.56" width="15.30" height="0.48" fill="#000000"/>
<rect x="61.76" y="95.16" width="5.34" height="0.48" fill="#000000"/>
<rect x="62.72" y="96.30" width="3.72" height="0.48" fill="#000000"/>
<rect x="63.62" y="97.44" width="1.62" height="0.48" fill="#000000"/>
<rect x="64.82" y="61.26" width="35.10" height="1.02" fill="#000000"/>
<path d="M168.02 33.12L167.84 33.06L167.66 33.48L167.84 33.54Z" fill="#000000"/>
<path d="M168.02 33.12L167.84 33.54L171.98 35.4L172.16 35.4L172.64 35.22L172.16 34.98Z" fill="#000000"/>
<path d="M167.78 37.02L167.54 37.08L167.36 36.6L167.6 36.54Z" fill="#000000"/>
<path d="M172.16 35.4L171.98 34.92L167.6 36.54L167.78 37.02Z" fill="#000000"/>
<path d="M168.26 37.02L168.08 36.96L167.9 37.38L168.08 37.44Z" fill="#000000"/>
<path d="M168.26 37.02L168.08 37.44L172.22 39.3L172.4 39.3L172.88 39.12L172.4 38.88Z" fill="#000000"/>
<path d="M168.02 40.92L167.78 40.98L167.6 40.5L167.84 40.44Z" fill="#000000"/>
<path d="M172.4 39.3L172.22 38.82L167.84 40.44L168.02 40.92Z" fill="#000000"/>
<path d="M168.5 40.92L168.32 40.86L168.14 41.28L168.32 41.34Z" fill="#000000"/>
<path d="M168.5 40.92L168.32 41.34L172.46 43.2L172.64 43.2L173.12 43.02L172.64 42.78Z" fill="#000000"/>
<path d="M168.26 44.82L168.02 44.88L167.84 44.4L168.08 44.34Z" fill="#000000"/>
<path d="M172.64 43.2L172.46 42.72L168.08 44.34L168.26 44.82Z" fill="#000000"/>
<path d="M168.02 32.88L167.84 33.0L168.08 33.42L168.26 33.3Z" fill="#000000"/>
<path d="M168.02 32.88L168.26 33.3L170.78 31.92L170.9 31.86L170.9 31.68L170.54 31.5Z" fill="#000000"/>
<rect x="170.42" y="26.40" width="0.48" height="5.28" fill="#000000"/>
<path d="M168.74 44.64L168.56 44.52L168.32 44.94L168.5 45.06Z" fill="#000000"/>
<path d="M168.74 44.64L168.5 45.06L171.02 46.44L171.38 46.2L171.38 46.08L171.26 46.02Z" fill="#000000"/>
<rect x="170.90" y="46.20" width="0.48" height="5.28" fill="#000000"/>
<rect x="168.38" y="26.40" width="4.62" height="0.48" fill="#000000"/>
<rect x="170.90" y="51.00" width="0.48" height="10.80" fill="#000000"/>
<rect x="171.14" y="61.32" width="33.30" height="0.48" fill="#000000"/>
<rect x="203.96" y="61.56" width="0.48" height="10.14" fill="#000000"/>
<rect x="194.54" y="71.46" width="19.14" height="0.48" fill="#000000"/>
<rect x="194.54" y="75.12" width="19.14" height="0.48" fill="#000000"/>
<rect x="201.68" y="93.72" width="5.28" height="0.48" fill="#000000"/>
<rect x="202.58" y="94.86" width="3.66" height="0.48" fill="#000000"/>
<rect x="203.48" y="96.00" width="1.62" height="0.48" fill="#000000"/>
<rect x="203.96" y="75.66" width="0.48" height="18.12" fill="#000000"/>
<path d="M78.14 55.92L78.86 53.94L79.16 53.16L79.64 53.82L82.34 57.12L83.0 57.78L82.04 57.96L77.84 58.62L77.0 58.74L77.36 57.9L77.72 57.6L81.92 56.94L82.04 57.96L81.56 57.78L78.86 54.48L79.64 53.82L79.76 54.3L79.04 56.28Z" fill="#000000"/>
<path d="M77.36 57.9L78.14 55.92L79.04 56.28L78.26 58.26Z" fill="#000000"/>
<path d="M78.56 56.1L79.28 54.12L81.98 57.42L77.78 58.08Z" fill="#000000"/>
<path d="M78.02 56.16L78.2 56.22L78.38 55.8L78.2 55.74Z" fill="#000000"/>
<path d="M78.02 56.16L77.0 55.68L76.94 55.68L76.4 55.32L76.4 55.26C74.73 54.04 73.59 52.26 72.8 50.34L72.2 48.9L72.14 48.9L71.6 47.28L71.6 47.22L71.18 45.54L70.76 43.74L70.4 41.88L70.16 39.96L69.92 37.98L69.92 37.92L70.4 37.92L70.64 39.9L70.88 41.82L70.88 41.76L71.24 43.62L71.66 45.42L72.08 47.1L72.62 48.72L73.22 50.16L73.88 51.54L73.88 51.48L74.6 52.68L74.54 52.68L75.38 53.7L75.8 54.18L75.8 54.12L76.28 54.54L76.7 54.9L76.64 54.9L77.18 55.26L78.2 55.74Z" fill="#000000"/>
<path d="M69.92 37.92L69.8 35.94L70.28 35.94L70.4 37.92Z" fill="#000000"/>
<rect x="69.68" y="31.62" width="0.48" height="0.24" fill="#000000"/>
<path d="M69.8 35.94L70.28 35.94L70.16 31.86L69.68 31.86Z" fill="#000000"/>
<rect x="98.90" y="49.92" width="44.28" height="0.48" fill="#000000"/>
<rect x="142.70" y="50.16" width="0.48" height="24.60" fill="#000000"/>
<rect x="98.66" y="74.28" width="44.28" height="0.48" fill="#000000"/>
<rect x="98.66" y="49.92" width="0.48" height="24.60" fill="#000000"/>
<path d="M300.62 14.04L297.56 14.04L298.04 13.26L300.2 9.54L300.62 8.76L301.1 9.6L303.2 13.32L303.62 14.04L302.72 14.04L302.3 13.8L300.2 10.08L301.1 9.6L301.1 10.08L298.94 13.8L298.04 13.26L298.46 13.02L300.62 13.02Z" fill="#000000"/>
<rect x="300.62" y="13.02" width="2.10" height="1.02" fill="#000000"/>
<path d="M300.62 13.56L298.46 13.56L300.62 9.84L302.72 13.56Z" fill="#000000"/>
<rect x="300.38" y="13.80" width="0.48" height="36.72" fill="#000000"/>
<path d="M365.0 50.28L365.0 47.34L365.72 47.76L369.44 49.86L370.22 50.34L369.5 50.76L365.78 52.92L365.0 53.4L365.0 52.44L365.24 52.02L368.96 49.86L369.5 50.76L368.96 50.76L365.24 48.66L365.72 47.76L366.02 48.18L366.02 50.28Z" fill="#000000"/>
<rect x="365.00" y="50.28" width="1.02" height="2.16" fill="#000000"/>
<path d="M365.48 50.28L365.48 48.18L369.2 50.28L365.48 52.44Z" fill="#000000"/>
<rect x="272.48" y="50.04" width="92.76" height="0.48" fill="#000000"/>
<path d="M365.0 112.74L365.0 109.8L365.72 110.22L369.44 112.32L370.22 112.8L369.5 113.22L365.78 115.38L365.0 115.86L365.0 114.9L365.24 114.48L368.96 112.32L369.5 113.22L368.96 113.22L365.24 111.12L365.72 110.22L366.02 110.64L366.02 112.74Z" fill="#000000"/>
<rect x="365.00" y="112.74" width="1.02" height="2.16" fill="#000000"/>
<path d="M365.48 112.74L365.48 110.64L369.2 112.74L365.48 114.9Z" fill="#000000"/>
<rect x="272.48" y="112.50" width="92.76" height="0.48" fill="#000000"/>
<path d="M300.92 75.9L297.98 75.9L298.4 75.18L300.5 71.46L300.98 70.68L301.4 71.4L303.56 75.12L304.04 75.9L303.08 75.9L302.66 75.66L300.5 71.94L301.4 71.4L301.4 71.94L299.3 75.66L298.4 75.18L298.82 74.88L300.92 74.88Z" fill="#000000"/>
<rect x="300.92" y="74.88" width="2.16" height="1.02" fill="#000000"/>
<path d="M300.92 75.42L298.82 75.42L300.92 71.7L303.08 75.42Z" fill="#000000"/>
<rect x="300.68" y="75.66" width="0.48" height="36.72" fill="#000000"/>
<rect x="272.24" y="24.72" width="29.04" height="1.02" fill="#000000"/>
<rect x="300.26" y="25.20" width="1.02" height="25.02" fill="#000000"/>
<rect x="300.74" y="49.20" width="63.48" height="1.02" fill="#000000"/>
<rect x="272.00" y="112.62" width="29.52" height="1.02" fill="#000000"/>
<rect x="272.48" y="85.08" width="2.22" height="0.48" fill="#000000"/>
<rect x="278.66" y="85.08" width="3.90" height="0.48" fill="#000000"/>
<rect x="286.52" y="85.08" width="3.90" height="0.48" fill="#000000"/>
<rect x="294.38" y="85.08" width="0.24" height="0.48" fill="#000000"/>
<rect x="294.62" y="85.08" width="3.72" height="0.48" fill="#000000"/>
<rect x="302.24" y="85.08" width="0.24" height="0.48" fill="#000000"/>
<rect x="302.48" y="85.08" width="3.72" height="0.48" fill="#000000"/>
<rect x="310.16" y="85.08" width="0.24" height="0.48" fill="#000000"/>
<rect x="310.40" y="85.08" width="3.66" height="0.48" fill="#000000"/>
<rect x="318.02" y="85.08" width="0.24" height="0.48" fill="#000000"/>
<rect x="318.26" y="85.08" width="3.66" height="0.48" fill="#000000"/>
<rect x="325.88" y="85.08" width="0.24" height="0.48" fill="#000000"/>
<rect x="326.12" y="85.08" width="3.72" height="0.48" fill="#000000"/>
<rect x="333.74" y="85.08" width="0.24" height="0.48" fill="#000000"/>
<rect x="333.98" y="85.08" width="3.72" height="0.48" fill="#000000"/>
<rect x="341.66" y="85.08" width="0.24" height="0.48" fill="#000000"/>
<rect x="341.90" y="85.08" width="3.66" height="0.48" fill="#000000"/>
<rect x="349.52" y="85.08" width="0.24" height="0.48" fill="#000000"/>
<rect x="349.76" y="85.08" width="3.66" height="0.48" fill="#000000"/>
<rect x="357.38" y="85.08" width="0.24" height="0.48" fill="#000000"/>
<rect x="357.62" y="85.08" width="3.72" height="0.48" fill="#000000"/>
<rect x="365.30" y="85.08" width="0.24" height="0.48" fill="#000000"/>
<rect x="365.54" y="85.08" width="1.98" height="0.48" fill="#000000"/>
<rect x="203.06" y="61.32" width="0.24" height="0.48" fill="#000000"/>
<rect x="203.30" y="61.32" width="13.44" height="0.48" fill="#000000"/>
<path d="M191.3 55.56L192.08 53.52L192.38 52.74L192.86 53.4L195.56 56.76L196.1 57.48L195.32 57.6L191.06 58.26L190.16 58.44L190.52 57.54L190.88 57.24L195.14 56.58L195.32 57.6L194.78 57.42L192.08 54.06L192.86 53.4L192.98 53.88L192.2 55.92Z" fill="#000000"/>
<path d="M190.52 57.54L191.3 55.56L192.2 55.92L191.42 57.9Z" fill="#000000"/>
<path d="M191.72 55.74L192.5 53.7L195.2 57.06L190.94 57.72Z" fill="#000000"/>
<path d="M191.12 55.8L191.3 55.92L191.54 55.5L191.36 55.38Z" fill="#000000"/>
<path d="M191.12 55.8L190.1 55.26L190.1 55.2C187.87 53.64 187.32 52.45 186.08 49.98L185.48 48.54L185.42 48.54L184.88 46.98L184.88 46.92L184.46 45.24L184.04 43.44L183.74 41.64L183.5 39.72L183.26 37.8L183.26 37.74L183.74 37.74L184.22 41.58L184.52 43.38L184.52 43.32L184.94 45.12L185.36 46.8L185.9 48.36L186.5 49.8L186.5 49.74L187.16 51.06L187.88 52.26L187.82 52.26L188.6 53.34L188.6 53.28L189.02 53.7L189.5 54.12L190.4 54.84L190.34 54.84L191.36 55.38Z" fill="#000000"/>
<path d="M183.26 37.74L183.14 35.7L183.62 35.7L183.74 37.74Z" fill="#000000"/>
<rect x="183.02" y="31.44" width="0.48" height="0.24" fill="#000000"/>
<path d="M183.14 35.7L183.62 35.7L183.5 31.68L183.02 31.68Z" fill="#000000"/>
<rect x="40.04" y="52.68" width="2.58" height="0.48" fill="#000000"/>
<rect x="42.14" y="52.92" width="0.48" height="7.20" fill="#000000"/>
<rect x="42.38" y="59.64" width="2.34" height="0.48" fill="#000000"/>
<path d="M42.38 55.62L43.46 55.62L43.28 56.28L42.86 57.78L42.44 59.46L41.9 57.78L41.42 56.28L41.18 55.62L41.9 55.62L42.38 55.98L42.86 57.48L41.9 57.78L41.9 57.48L42.32 55.98L43.28 56.28L42.8 56.64L42.38 56.64Z" fill="#000000"/>
<rect x="41.90" y="55.62" width="0.48" height="1.02" fill="#000000"/>
<path d="M42.38 56.1L42.8 56.1L42.38 57.6L41.9 56.1Z" fill="#000000"/>
<rect x="42.14" y="54.06" width="0.48" height="1.74" fill="#000000"/>
<rect x="168.50" y="93.72" width="5.28" height="0.48" fill="#000000"/>
<rect x="169.40" y="94.86" width="3.72" height="0.48" fill="#000000"/>
<rect x="170.30" y="96.00" width="1.68" height="0.48" fill="#000000"/>
<rect x="170.78" y="89.64" width="0.48" height="4.38" fill="#000000"/>
<rect x="117.86" y="92.28" width="5.34" height="0.48" fill="#000000"/>
<rect x="118.76" y="93.42" width="3.72" height="0.48" fill="#000000"/>
<rect x="119.72" y="94.56" width="1.62" height="0.48" fill="#000000"/>
<rect x="120.14" y="74.04" width="0.48" height="18.30" fill="#000000"/>
<rect x="363.62" y="85.50" width="0.48" height="1.02" fill="#000000"/>
<path d="M363.62 86.52L351.68 86.7L339.74 86.94L339.8 86.94L337.82 87.06C333.77 87.39 329.81 87.98 325.76 88.26L323.6 88.32L323.78 88.26L322.34 88.74L322.28 88.74L320.84 89.1L320.84 89.16L318.14 89.82L316.76 90.12L315.44 90.42L315.5 90.36L314.18 90.78L314.24 90.78L313.52 91.08L313.46 91.08L312.8 91.32L312.92 91.26L311.6 92.28L310.94 92.76L311.0 92.76L309.8 93.84L309.8 93.78L308.06 95.52L308.12 95.52L307.58 96.18L307.1 96.78L306.56 97.44L306.56 97.38L306.08 98.04L305.18 99.36L305.24 99.3L304.46 100.74L303.74 102.18L303.08 103.68L303.08 103.62L302.54 105.18L302.54 105.12L302.12 106.74L302.18 106.74L301.82 108.36L301.82 108.3L301.58 110.04L300.56 109.98L300.56 109.92C300.99 105.43 302.69 101.13 305.24 97.44L305.72 96.78L305.78 96.78C307.31 94.76 308.42 93.61 310.34 91.98L310.34 91.92L311.0 91.44L311.0 91.5L312.32 90.48L312.44 90.36L313.1 90.12L313.82 89.82L313.88 89.82L315.2 89.4L316.52 89.1L317.9 88.8C320.59 88.57 323.0 86.84 325.76 87.24L329.84 86.88L329.78 86.88L331.76 86.64C338.36 85.8 345.03 85.6 351.68 85.68L363.62 85.5Z" fill="#000000"/>
<path d="M301.58 110.04L301.46 111.78L301.46 111.72L300.44 111.72L300.56 109.98Z" fill="#000000"/>
<rect x="300.44" y="111.72" width="1.02" height="2.22" fill="#000000"/>
<rect x="170.96" y="61.32" width="0.48" height="10.44" fill="#000000"/>
<rect x="170.72" y="81.78" width="0.48" height="7.74" fill="#000000"/>
<path d="M171.14 72.0L171.32 71.82L170.96 71.46L170.78 71.64Z" fill="#000000"/>
<path d="M164.66 78.72L164.48 78.9L164.12 78.54L164.3 78.36Z" fill="#000000"/>
<path d="M171.14 72.0L170.78 71.64L164.3 78.36L164.66 78.72Z" fill="#000000"/>
<text x="20.06" y="58.92" font-size="10.23" font-family="'Source Sans Pro', sans-serif" textLength="14.76" lengthAdjust="spacingAndGlyphs" fill="#000000">Vin</text>
<text x="70.52" y="71.34" font-size="10.23" font-family="'Source Sans Pro', sans-serif" textLength="19.13" lengthAdjust="spacingAndGlyphs" fill="#000000">Vout</text>
<text x="58.46" y="23.28" font-size="10.23" font-family="'Source Sans Pro', sans-serif" textLength="16.46" lengthAdjust="spacingAndGlyphs" fill="#000000">Vcc</text>
<text x="174.14" y="41.34" font-size="10.13" font-family="'Source Sans Pro', sans-serif" textLength="6.79" lengthAdjust="spacingAndGlyphs" fill="#000000">R</text>
<text x="217.58" y="77.10" font-size="10.13" font-family="'Source Sans Pro', sans-serif" textLength="6.79" lengthAdjust="spacingAndGlyphs" fill="#000000">C</text>
<text x="163.04" y="22.92" font-size="10.13" font-family="'Source Sans Pro', sans-serif" textLength="16.28" lengthAdjust="spacingAndGlyphs" fill="#000000">Vcc</text>
<text x="103.64" y="64.32" font-size="10.23" font-family="'Source Sans Pro', sans-serif" textLength="36.08" lengthAdjust="spacingAndGlyphs" fill="#000000">circuit A</text>
<text x="282.02" y="12.36" font-size="10.37" font-family="'Source Sans Pro', sans-serif" textLength="14.90" lengthAdjust="spacingAndGlyphs" fill="#000000">Vin</text>
<text x="277.76" y="68.94" font-size="10.37" font-family="'Source Sans Pro', sans-serif" textLength="19.29" lengthAdjust="spacingAndGlyphs" fill="#000000">Vout</text>
<text x="269.18" y="129.66" font-size="10.37" font-family="'Source Sans Pro', sans-serif" textLength="68.89" lengthAdjust="spacingAndGlyphs" fill="#000000">V(t) = Vcc (1 - e</text>
<text x="338.00" y="125.58" font-size="8.27" font-family="'Source Sans Pro', sans-serif" textLength="18.37" lengthAdjust="spacingAndGlyphs" fill="#000000">-t/RC</text>
<text x="356.24" y="129.66" font-size="10.37" font-family="'Source Sans Pro', sans-serif" textLength="6.01" lengthAdjust="spacingAndGlyphs" fill="#000000"> )</text>
<text x="253.40" y="87.06" font-size="10.37" font-family="'Source Sans Pro', sans-serif" textLength="16.59" lengthAdjust="spacingAndGlyphs" fill="#000000">Vcc</text>
<text x="207.98" y="59.58" font-size="10.13" font-family="'Source Sans Pro', sans-serif" textLength="18.97" lengthAdjust="spacingAndGlyphs" fill="#000000">Vout</text>
<text x="364.94" y="59.64" font-size="10.37" font-family="'Source Sans Pro', sans-serif" textLength="2.91" lengthAdjust="spacingAndGlyphs" fill="#000000">t</text>
<text x="369.02" y="119.76" font-size="10.37" font-family="'Source Sans Pro', sans-serif" textLength="2.91" lengthAdjust="spacingAndGlyphs" fill="#000000">t</text>
</svg>
