<?xml version="1.0" encoding="UTF-8" standalone="no"?>
<svg
   width="386"
   height="123"
   viewBox="0 0 386 123"
   fill="#adb5bd"
   version="1.1"
   id="svg156"
   sodipodi:docname="T6_not_0_1_light.svg"
   inkscape:version="1.4 (e7c3feb100, 2024-10-09)"
   xmlns:inkscape="http://www.inkscape.org/namespaces/inkscape"
   xmlns:sodipodi="http://sodipodi.sourceforge.net/DTD/sodipodi-0.dtd"
   xmlns="http://www.w3.org/2000/svg"
   xmlns:svg="http://www.w3.org/2000/svg">
  <defs
     id="defs156" />
  <sodipodi:namedview
     id="namedview156"
     pagecolor="#2d2d2d"
     bordercolor="#adb5bd"
     borderopacity="0.25"
     inkscape:showpageshadow="2"
     inkscape:pageopacity="0.0"
     inkscape:pagecheckerboard="0"
     inkscape:deskcolor="#d1d1d1"
     inkscape:zoom="3.1256477"
     inkscape:cx="148.1293"
     inkscape:cy="78.063821"
     inkscape:window-width="2560"
     inkscape:window-height="1371"
     inkscape:window-x="0"
     inkscape:window-y="0"
     inkscape:window-maximized="1"
     inkscape:current-layer="svg156" />
  <rect
     x="65.66"
     y="40.48"
     width="0.48"
     height="16.44"
     fill="#adb5bd"
     id="rect1" />
  <rect
     x="67.46"
     y="39.40"
     width="0.48"
     height="19.08"
     fill="#adb5bd"
     id="rect2" />
  <rect
     x="67.46"
     y="40.48"
     width="5.82"
     height="0.48"
     fill="#adb5bd"
     id="rect3" />
  <rect
     x="67.46"
     y="56.68"
     width="5.82"
     height="0.48"
     fill="#adb5bd"
     id="rect4" />
  <rect
     x="73.22"
     y="29.86"
     width="0.48"
     height="10.86"
     fill="#adb5bd"
     id="rect5" />
  <rect
     x="72.98"
     y="56.44"
     width="0.48"
     height="10.86"
     fill="#adb5bd"
     id="rect6" />
  <rect
     x="71.42"
     y="29.62"
     width="3.36"
     height="0.48"
     fill="#adb5bd"
     id="rect7" />
  <rect
     x="65.48"
     y="66.82"
     width="0.48"
     height="16.44"
     fill="#adb5bd"
     id="rect8" />
  <rect
     x="66.98"
     y="65.26"
     width="1.02"
     height="19.80"
     fill="#adb5bd"
     id="rect9" />
  <rect
     x="66.98"
     y="66.58"
     width="6.30"
     height="1.02"
     fill="#adb5bd"
     id="rect10" />
  <rect
     x="66.98"
     y="82.78"
     width="6.30"
     height="1.02"
     fill="#adb5bd"
     id="rect11" />
  <rect
     x="72.56"
     y="82.54"
     width="1.02"
     height="11.40"
     fill="#adb5bd"
     id="rect12" />
  <path
     d="M65.24 48.1L65.18 47.68L65.24 47.74L65.0 47.38L65.06 47.44L64.76 47.2L64.82 47.26L64.4 47.14L64.58 47.14L64.22 47.26L64.28 47.2L63.98 47.44L64.04 47.38L63.8 47.74L63.8 47.68L63.74 48.1L63.74 48.04L63.8 48.46L63.8 48.34L64.04 48.7L63.98 48.64L64.28 48.88L64.16 48.82L64.52 48.88L64.46 48.88L64.88 48.82L64.76 48.88L65.06 48.64L65.0 48.7L65.24 48.34L65.18 48.46L65.24 48.04L65.72 48.1L65.66 48.52L65.66 48.58L65.42 48.94L65.36 49.0L65.06 49.24L64.94 49.3L64.52 49.36L64.46 49.36L64.1 49.3L63.98 49.24L63.68 49.0L63.62 48.94L63.38 48.58L63.32 48.52L63.26 48.1L63.26 48.04L63.32 47.62L63.38 47.5L63.62 47.14L63.68 47.08L63.98 46.84L64.04 46.78L64.4 46.66C64.79 46.64 65.16 46.86 65.42 47.14L65.66 47.5L65.66 47.62L65.72 48.04Z"
     fill="#adb5bd"
     id="path12" />
  <path
     d="M65.24 48.04L65.24 48.1L65.72 48.04L65.72 48.1Z"
     fill="#adb5bd"
     id="path13" />
  <rect
     x="56.36"
     y="47.80"
     width="7.38"
     height="0.48"
     fill="#adb5bd"
     id="rect13" />
  <rect
     x="56.36"
     y="48.04"
     width="0.48"
     height="27.24"
     fill="#adb5bd"
     id="rect14" />
  <rect
     x="56.60"
     y="74.80"
     width="9.12"
     height="0.48"
     fill="#adb5bd"
     id="rect15" />
  <rect
     x="41.96"
     y="61.06"
     width="14.70"
     height="0.48"
     fill="#adb5bd"
     id="rect16" />
  <rect
     x="70.34"
     y="93.22"
     width="5.10"
     height="0.48"
     fill="#adb5bd"
     id="rect17" />
  <rect
     x="71.24"
     y="94.30"
     width="3.54"
     height="0.48"
     fill="#adb5bd"
     id="rect18" />
  <rect
     x="72.08"
     y="95.44"
     width="1.62"
     height="0.48"
     fill="#adb5bd"
     id="rect19" />
  <rect
     x="73.22"
     y="60.82"
     width="33.66"
     height="1.02"
     fill="#adb5bd"
     id="rect20" />
  <path
     d="M179.9 68.68L179.72 68.62L179.54 69.04L179.72 69.1Z"
     fill="#adb5bd"
     id="path20" />
  <path
     d="M179.9 68.68L179.72 69.1L183.8 70.9L183.98 70.9L184.46 70.72L183.98 70.48Z"
     fill="#adb5bd"
     id="path21" />
  <path
     d="M179.66 72.46L179.42 72.52L179.24 72.04L179.48 71.98Z"
     fill="#adb5bd"
     id="path22" />
  <path
     d="M183.98 70.9L183.8 70.42L179.48 71.98L179.66 72.46Z"
     fill="#adb5bd"
     id="path23" />
  <path
     d="M180.14 72.46L179.96 72.4L179.78 72.82L179.96 72.88Z"
     fill="#adb5bd"
     id="path24" />
  <path
     d="M180.14 72.46L179.96 72.88L183.98 74.74L184.16 74.74L184.64 74.56L184.16 74.32Z"
     fill="#adb5bd"
     id="path25" />
  <path
     d="M179.9 76.3L179.66 76.36L179.48 75.88L179.72 75.82Z"
     fill="#adb5bd"
     id="path26" />
  <path
     d="M184.16 74.74L183.98 74.26L179.72 75.82L179.9 76.3Z"
     fill="#adb5bd"
     id="path27" />
  <path
     d="M180.38 76.3L180.2 76.24L180.02 76.66L180.2 76.72Z"
     fill="#adb5bd"
     id="path28" />
  <path
     d="M180.38 76.3L180.2 76.72L184.22 78.58L184.4 78.58L184.88 78.4L184.4 78.16Z"
     fill="#adb5bd"
     id="path29" />
  <path
     d="M180.14 80.14L179.9 80.2L179.72 79.72L179.96 79.66Z"
     fill="#adb5bd"
     id="path30" />
  <path
     d="M184.4 78.58L184.22 78.1L179.96 79.66L180.14 80.14Z"
     fill="#adb5bd"
     id="path31" />
  <path
     d="M179.9 68.44L179.72 68.56L179.96 68.98L180.14 68.86Z"
     fill="#adb5bd"
     id="path32" />
  <path
     d="M179.9 68.44L180.14 68.86L182.6 67.48L182.72 67.42L182.72 67.24L182.36 67.06Z"
     fill="#adb5bd"
     id="path33" />
  <rect
     x="182.24"
     y="62.02"
     width="0.48"
     height="5.22"
     fill="#adb5bd"
     id="rect33" />
  <path
     d="M180.56 79.96L180.38 79.84L180.14 80.26L180.32 80.38Z"
     fill="#adb5bd"
     id="path34" />
  <path
     d="M180.56 79.96L180.32 80.38L182.84 81.7L183.2 81.46L183.2 81.34L183.08 81.28Z"
     fill="#adb5bd"
     id="path35" />
  <rect
     x="182.72"
     y="81.46"
     width="0.48"
     height="5.22"
     fill="#adb5bd"
     id="rect35" />
  <rect
     x="180.74"
     y="29.98"
     width="4.56"
     height="0.48"
     fill="#adb5bd"
     id="rect36" />
  <rect
     x="205.52"
     y="71.98"
     width="18.72"
     height="0.48"
     fill="#adb5bd"
     id="rect37" />
  <rect
     x="205.52"
     y="75.58"
     width="0.24"
     height="0.48"
     fill="#adb5bd"
     id="rect38" />
  <rect
     x="205.76"
     y="75.58"
     width="18.48"
     height="0.48"
     fill="#adb5bd"
     id="rect39" />
  <rect
     x="212.48"
     y="94.60"
     width="0.24"
     height="0.48"
     fill="#adb5bd"
     id="rect40" />
  <rect
     x="212.72"
     y="94.60"
     width="4.98"
     height="0.48"
     fill="#adb5bd"
     id="rect41" />
  <rect
     x="213.38"
     y="95.74"
     width="0.24"
     height="0.48"
     fill="#adb5bd"
     id="rect42" />
  <rect
     x="213.62"
     y="95.74"
     width="3.36"
     height="0.48"
     fill="#adb5bd"
     id="rect43" />
  <rect
     x="214.28"
     y="96.88"
     width="0.24"
     height="0.48"
     fill="#adb5bd"
     id="rect44" />
  <rect
     x="214.52"
     y="96.88"
     width="1.32"
     height="0.48"
     fill="#adb5bd"
     id="rect45" />
  <rect
     x="214.70"
     y="76.06"
     width="0.48"
     height="0.24"
     fill="#adb5bd"
     id="rect46" />
  <rect
     x="214.70"
     y="76.30"
     width="0.48"
     height="17.58"
     fill="#adb5bd"
     id="rect47" />
  <path
     d="M78.44 84.22L80.6 84.46L81.44 84.58L80.9 85.3L78.38 88.78L77.84 89.44L77.54 88.66L75.38 83.98L76.28 84.04L76.64 84.34L78.44 88.24L77.54 88.66L77.54 88.12L80.06 84.64L80.9 85.3L80.48 85.48L78.32 85.24Z"
     fill="#adb5bd"
     id="path47" />
  <path
     d="M76.28 84.04L78.44 84.22L78.32 85.24L76.16 85.06Z"
     fill="#adb5bd"
     id="path48" />
  <path
     d="M78.38 84.7L80.54 84.94L78.02 88.42L76.22 84.52Z"
     fill="#adb5bd"
     id="path49" />
  <path
     d="M78.2 84.22L78.2 84.46L78.68 84.52L78.68 84.28Z"
     fill="#adb5bd"
     id="path50" />
  <path
     d="M78.2 84.22L78.44 82.36C78.8 80.27 79.85 77.49 81.08 75.7L82.04 74.26L82.1 74.26C83.83 71.85 85.96 70.18 88.58 68.8L90.08 68.14L90.08 68.08L91.64 67.54L91.7 67.54L93.32 67.12L93.38 67.6L93.44 67.6L91.82 68.02L90.26 68.56L88.76 69.22L88.82 69.22L87.38 70.06L86.0 71.02L86.0 70.96L84.68 72.04L84.74 72.04L83.54 73.24L82.46 74.56L82.46 74.5L81.5 75.94L80.6 77.44L79.88 79.06L79.94 79.06L79.34 80.74L79.34 80.68L78.92 82.42L78.68 84.28Z"
     fill="#adb5bd"
     id="path51" />
  <path
     d="M93.32 67.12L94.94 66.88L95.0 66.88L95.0 67.36L93.38 67.6Z"
     fill="#adb5bd"
     id="path52" />
  <rect
     x="96.62"
     y="66.82"
     width="0.24"
     height="0.48"
     fill="#adb5bd"
     id="rect52" />
  <path
     d="M95.0 66.88L95.0 67.36L96.62 67.3L96.62 66.82Z"
     fill="#adb5bd"
     id="path53" />
  <rect
     x="105.86"
     y="49.96"
     width="42.30"
     height="0.48"
     fill="#adb5bd"
     id="rect53" />
  <rect
     x="147.68"
     y="50.20"
     width="0.48"
     height="23.52"
     fill="#adb5bd"
     id="rect54" />
  <rect
     x="105.62"
     y="73.24"
     width="42.30"
     height="0.48"
     fill="#adb5bd"
     id="rect55" />
  <rect
     x="105.62"
     y="49.96"
     width="0.48"
     height="23.52"
     fill="#adb5bd"
     id="rect56" />
  <path
     d="M304.76 10.18L301.7 10.18L302.18 9.4L304.34 5.68L304.76 4.9L305.24 5.74L307.34 9.46L307.76 10.18L306.86 10.18L306.44 9.94L304.34 6.22L305.24 5.74L305.24 6.22L303.08 9.94L302.18 9.4L302.6 9.16L304.76 9.16Z"
     fill="#adb5bd"
     id="path56" />
  <rect
     x="304.76"
     y="9.16"
     width="2.10"
     height="1.02"
     fill="#adb5bd"
     id="rect57" />
  <path
     d="M304.76 9.7L302.6 9.7L304.76 5.98L306.86 9.7Z"
     fill="#adb5bd"
     id="path57" />
  <rect
     x="304.52"
     y="9.94"
     width="0.48"
     height="0.24"
     fill="#adb5bd"
     id="rect58" />
  <rect
     x="304.52"
     y="10.18"
     width="0.48"
     height="32.40"
     fill="#adb5bd"
     id="rect59" />
  <path
     d="M362.36 42.34L362.36 39.28L363.14 39.76L366.8 41.92L367.58 42.34L366.74 42.82L363.08 44.92L362.36 45.34L362.36 44.44L362.6 44.02L366.26 41.92L366.74 42.82L366.26 42.82L362.6 40.66L363.14 39.76L363.38 40.18L363.38 42.34Z"
     fill="#adb5bd"
     id="path59" />
  <rect
     x="362.36"
     y="42.34"
     width="1.02"
     height="2.10"
     fill="#adb5bd"
     id="rect60" />
  <path
     d="M362.84 42.34L362.84 40.18L366.5 42.34L362.84 44.44Z"
     fill="#adb5bd"
     id="path60" />
  <rect
     x="279.56"
     y="42.10"
     width="0.24"
     height="0.48"
     fill="#adb5bd"
     id="rect61" />
  <rect
     x="279.80"
     y="42.10"
     width="82.74"
     height="0.48"
     fill="#adb5bd"
     id="rect62" />
  <path
     d="M362.36 98.5L362.36 95.56L363.08 95.98L366.74 98.08L367.52 98.56L366.8 98.98L363.14 101.14L362.36 101.62L362.36 100.66L362.6 100.24L366.26 98.08L366.8 98.98L366.26 98.98L362.6 96.88L363.08 95.98L363.38 96.4L363.38 98.5Z"
     fill="#adb5bd"
     id="path62" />
  <rect
     x="362.36"
     y="98.50"
     width="1.02"
     height="2.16"
     fill="#adb5bd"
     id="rect63" />
  <path
     d="M362.84 98.5L362.84 96.4L366.5 98.5L362.84 100.66Z"
     fill="#adb5bd"
     id="path63" />
  <rect
     x="279.56"
     y="98.26"
     width="0.24"
     height="0.48"
     fill="#adb5bd"
     id="rect64" />
  <rect
     x="279.80"
     y="98.26"
     width="82.74"
     height="0.48"
     fill="#adb5bd"
     id="rect65" />
  <path
     d="M305.3 65.86L302.24 65.86L302.72 65.08L304.88 61.42L305.3 60.64L305.78 61.48L307.88 65.14L308.3 65.86L307.4 65.86L306.98 65.62L304.88 61.96L305.78 61.48L305.78 61.96L303.62 65.62L302.72 65.08L303.14 64.84L305.3 64.84Z"
     fill="#adb5bd"
     id="path65" />
  <rect
     x="305.30"
     y="64.84"
     width="2.10"
     height="1.02"
     fill="#adb5bd"
     id="rect66" />
  <path
     d="M305.3 65.38L303.14 65.38L305.3 61.72L307.4 65.38Z"
     fill="#adb5bd"
     id="path66" />
  <rect
     x="305.06"
     y="65.68"
     width="0.48"
     height="0.24"
     fill="#adb5bd"
     id="rect67" />
  <rect
     x="305.06"
     y="65.92"
     width="0.48"
     height="32.34"
     fill="#adb5bd"
     id="rect68" />
  <rect
     x="279.32"
     y="41.32"
     width="26.22"
     height="1.02"
     fill="#adb5bd"
     id="rect69" />
  <rect
     x="304.52"
     y="19.24"
     width="1.02"
     height="22.56"
     fill="#adb5bd"
     id="rect70" />
  <rect
     x="305.00"
     y="19.24"
     width="57.24"
     height="1.02"
     fill="#adb5bd"
     id="rect71" />
  <rect
     x="279.32"
     y="73.36"
     width="0.48"
     height="1.02"
     fill="#adb5bd"
     id="rect72" />
  <rect
     x="279.80"
     y="73.36"
     width="26.22"
     height="1.02"
     fill="#adb5bd"
     id="rect73" />
  <rect
     x="279.56"
     y="73.60"
     width="0.24"
     height="0.48"
     fill="#adb5bd"
     id="rect74" />
  <rect
     x="279.80"
     y="73.60"
     width="1.98"
     height="0.48"
     fill="#adb5bd"
     id="rect75" />
  <rect
     x="285.62"
     y="73.60"
     width="0.24"
     height="0.48"
     fill="#adb5bd"
     id="rect76" />
  <rect
     x="285.86"
     y="73.60"
     width="3.60"
     height="0.48"
     fill="#adb5bd"
     id="rect77" />
  <rect
     x="293.36"
     y="73.60"
     width="0.24"
     height="0.48"
     fill="#adb5bd"
     id="rect78" />
  <rect
     x="293.60"
     y="73.60"
     width="3.60"
     height="0.48"
     fill="#adb5bd"
     id="rect79" />
  <rect
     x="301.10"
     y="73.60"
     width="0.24"
     height="0.48"
     fill="#adb5bd"
     id="rect80" />
  <rect
     x="301.34"
     y="73.60"
     width="3.60"
     height="0.48"
     fill="#adb5bd"
     id="rect81" />
  <rect
     x="308.78"
     y="73.60"
     width="0.24"
     height="0.48"
     fill="#adb5bd"
     id="rect82" />
  <rect
     x="309.02"
     y="73.60"
     width="3.66"
     height="0.48"
     fill="#adb5bd"
     id="rect83" />
  <rect
     x="316.52"
     y="73.60"
     width="0.24"
     height="0.48"
     fill="#adb5bd"
     id="rect84" />
  <rect
     x="316.76"
     y="73.60"
     width="3.66"
     height="0.48"
     fill="#adb5bd"
     id="rect85" />
  <rect
     x="324.26"
     y="73.60"
     width="0.24"
     height="0.48"
     fill="#adb5bd"
     id="rect86" />
  <rect
     x="324.50"
     y="73.60"
     width="3.60"
     height="0.48"
     fill="#adb5bd"
     id="rect87" />
  <rect
     x="332.00"
     y="73.60"
     width="0.24"
     height="0.48"
     fill="#adb5bd"
     id="rect88" />
  <rect
     x="332.24"
     y="73.60"
     width="3.60"
     height="0.48"
     fill="#adb5bd"
     id="rect89" />
  <rect
     x="339.74"
     y="73.60"
     width="0.24"
     height="0.48"
     fill="#adb5bd"
     id="rect90" />
  <rect
     x="339.98"
     y="73.60"
     width="3.60"
     height="0.48"
     fill="#adb5bd"
     id="rect91" />
  <rect
     x="347.42"
     y="73.60"
     width="0.24"
     height="0.48"
     fill="#adb5bd"
     id="rect92" />
  <rect
     x="347.66"
     y="73.60"
     width="3.66"
     height="0.48"
     fill="#adb5bd"
     id="rect93" />
  <rect
     x="355.16"
     y="73.60"
     width="0.24"
     height="0.48"
     fill="#adb5bd"
     id="rect94" />
  <rect
     x="355.40"
     y="73.60"
     width="3.60"
     height="0.48"
     fill="#adb5bd"
     id="rect95" />
  <rect
     x="362.90"
     y="73.60"
     width="0.24"
     height="0.48"
     fill="#adb5bd"
     id="rect96" />
  <rect
     x="363.14"
     y="73.60"
     width="1.98"
     height="0.48"
     fill="#adb5bd"
     id="rect97" />
  <rect
     x="182.12"
     y="61.84"
     width="0.24"
     height="0.48"
     fill="#adb5bd"
     id="rect98" />
  <rect
     x="182.36"
     y="61.84"
     width="44.94"
     height="0.48"
     fill="#adb5bd"
     id="rect99" />
  <rect
     x="214.64"
     y="72.22"
     width="0.48"
     height="0.24"
     fill="#adb5bd"
     id="rect100" />
  <rect
     x="214.64"
     y="61.84"
     width="0.48"
     height="10.38"
     fill="#adb5bd"
     id="rect101" />
  <rect
     x="180.38"
     y="94.60"
     width="0.24"
     height="0.48"
     fill="#adb5bd"
     id="rect102" />
  <rect
     x="180.62"
     y="94.60"
     width="4.98"
     height="0.48"
     fill="#adb5bd"
     id="rect103" />
  <rect
     x="181.28"
     y="95.74"
     width="0.24"
     height="0.48"
     fill="#adb5bd"
     id="rect104" />
  <rect
     x="181.52"
     y="95.74"
     width="3.42"
     height="0.48"
     fill="#adb5bd"
     id="rect105" />
  <rect
     x="182.24"
     y="96.88"
     width="0.24"
     height="0.48"
     fill="#adb5bd"
     id="rect106" />
  <rect
     x="182.48"
     y="96.88"
     width="1.32"
     height="0.48"
     fill="#adb5bd"
     id="rect107" />
  <rect
     x="182.60"
     y="86.44"
     width="0.48"
     height="0.24"
     fill="#adb5bd"
     id="rect108" />
  <rect
     x="182.60"
     y="86.68"
     width="0.48"
     height="8.10"
     fill="#adb5bd"
     id="rect109" />
  <rect
     x="182.48"
     y="29.98"
     width="0.48"
     height="0.24"
     fill="#adb5bd"
     id="rect110" />
  <rect
     x="182.48"
     y="30.22"
     width="0.48"
     height="3.84"
     fill="#adb5bd"
     id="rect111" />
  <path
     d="M189.8 78.04L191.96 78.16L192.86 78.16L192.32 78.94L189.92 82.48L189.44 83.26L189.02 82.36L187.16 78.58L186.8 77.86L187.7 77.92L188.06 78.16L189.92 81.94L189.02 82.36L189.02 81.88L191.42 78.4L192.32 78.94L191.84 79.18L189.68 79.06Z"
     fill="#adb5bd"
     id="path111" />
  <path
     d="M187.7 77.92L189.8 78.04L189.68 79.06L187.58 78.94Z"
     fill="#adb5bd"
     id="path112" />
  <path
     d="M189.74 78.52L191.9 78.64L189.5 82.18L187.64 78.4Z"
     fill="#adb5bd"
     id="path113" />
  <path
     d="M189.56 78.04L189.56 78.28L190.04 78.34L190.04 78.1Z"
     fill="#adb5bd"
     id="path114" />
  <path
     d="M189.56 78.04L189.68 76.78C189.75 74.74 190.8 71.36 191.78 69.58L192.26 68.86L192.32 68.86L192.8 68.2C193.25 67.6 193.75 67.11 194.42 66.76L195.02 66.46L195.02 66.4L195.2 66.88L195.26 66.88L194.66 67.18L194.12 67.54L194.12 67.48L193.64 67.9L193.7 67.9L193.16 68.5L192.68 69.16L192.68 69.1L192.2 69.82L191.78 70.6L191.42 71.5L191.06 72.46L191.12 72.4L190.82 73.42L190.52 74.5L190.28 75.64L190.16 76.84L190.04 78.1Z"
     fill="#adb5bd"
     id="path115" />
  <path
     d="M195.02 66.4L195.56 66.22L195.62 66.22L195.68 66.7L195.74 66.7L195.2 66.88Z"
     fill="#adb5bd"
     id="path116" />
  <path
     d="M196.16 66.16L196.4 66.16L196.46 66.64L196.22 66.64Z"
     fill="#adb5bd"
     id="path117" />
  <path
     d="M195.62 66.22L195.68 66.7L196.22 66.64L196.16 66.16Z"
     fill="#adb5bd"
     id="path118" />
  <rect
     x="42.14"
     y="59.68"
     width="2.46"
     height="0.48"
     fill="#adb5bd"
     id="rect118" />
  <rect
     x="44.12"
     y="53.08"
     width="0.48"
     height="6.84"
     fill="#adb5bd"
     id="rect119" />
  <rect
     x="44.36"
     y="53.08"
     width="2.22"
     height="0.48"
     fill="#adb5bd"
     id="rect120" />
  <path
     d="M44.36 57.58L43.28 57.58L43.46 56.98L43.88 55.42L44.36 53.62L44.84 55.42L45.26 56.98L45.44 57.58L44.78 57.58L44.3 57.22L43.88 55.66L44.84 55.42L44.84 55.66L44.42 57.22L43.46 56.98L43.94 56.56L44.36 56.56Z"
     fill="#adb5bd"
     id="path120" />
  <rect
     x="44.36"
     y="56.56"
     width="0.42"
     height="1.02"
     fill="#adb5bd"
     id="rect121" />
  <path
     d="M44.36 57.1L43.94 57.1L44.36 55.54L44.78 57.1Z"
     fill="#adb5bd"
     id="path121" />
  <rect
     x="44.12"
     y="58.60"
     width="0.48"
     height="0.24"
     fill="#adb5bd"
     id="rect122" />
  <rect
     x="44.12"
     y="57.34"
     width="0.48"
     height="1.26"
     fill="#adb5bd"
     id="rect123" />
  <path
     d="M195.86 66.16L195.62 66.16L195.56 66.64L195.8 66.64Z"
     fill="#adb5bd"
     id="path123" />
  <path
     d="M195.86 66.16L197.18 66.28L198.5 66.64L198.56 66.64L199.16 66.88L200.24 67.48L200.3 67.54L200.78 67.9L201.2 68.32C201.84 69.04 202.11 69.43 202.52 70.3L202.52 70.36L202.64 70.9L202.16 71.02L202.04 70.48L202.1 70.54L201.86 70.06L201.56 69.52L201.2 69.04L200.84 68.62L200.84 68.68L200.42 68.26L200.48 68.26L200.0 67.9L198.92 67.3L198.98 67.3L198.38 67.06L198.38 67.12L197.06 66.76L197.12 66.76L195.8 66.64Z"
     fill="#adb5bd"
     id="path124" />
  <path
     d="M202.64 70.9L202.76 71.5L202.28 71.56L202.28 71.62L202.16 71.02Z"
     fill="#adb5bd"
     id="path125" />
  <path
     d="M202.82 72.1L202.82 72.34L202.34 72.4L202.34 72.16Z"
     fill="#adb5bd"
     id="path126" />
  <path
     d="M202.76 71.5L202.28 71.56L202.34 72.16L202.82 72.1Z"
     fill="#adb5bd"
     id="path127" />
  <rect
     x="125.54"
     y="90.58"
     width="0.24"
     height="0.48"
     fill="#adb5bd"
     id="rect127" />
  <rect
     x="125.78"
     y="90.58"
     width="4.86"
     height="0.48"
     fill="#adb5bd"
     id="rect128" />
  <rect
     x="126.44"
     y="91.66"
     width="0.24"
     height="0.48"
     fill="#adb5bd"
     id="rect129" />
  <rect
     x="126.68"
     y="91.66"
     width="3.30"
     height="0.48"
     fill="#adb5bd"
     id="rect130" />
  <rect
     x="127.28"
     y="92.80"
     width="0.24"
     height="0.48"
     fill="#adb5bd"
     id="rect131" />
  <rect
     x="127.52"
     y="92.80"
     width="1.38"
     height="0.48"
     fill="#adb5bd"
     id="rect132" />
  <rect
     x="127.76"
     y="73.18"
     width="0.48"
     height="0.24"
     fill="#adb5bd"
     id="rect133" />
  <rect
     x="127.76"
     y="73.42"
     width="0.48"
     height="17.22"
     fill="#adb5bd"
     id="rect134" />
  <rect
     x="362.00"
     y="97.00"
     width="0.48"
     height="1.02"
     fill="#adb5bd"
     id="rect135" />
  <path
     d="M362.0 98.02L351.32 97.84C345.35 97.77 339.31 97.87 333.38 97.0L329.78 96.64L329.84 96.64L327.92 96.52L326.0 96.46L325.88 96.4L324.62 95.98L324.62 96.04L323.36 95.74L320.9 95.2L320.96 95.2L319.7 94.96L319.64 94.9C318.39 94.59 317.02 94.27 315.86 93.7L314.66 92.86L313.52 91.96L312.44 91.0L312.38 90.94L311.36 89.98L310.4 88.9L310.4 88.84L309.56 87.76L309.5 87.76L308.66 86.56C306.68 83.37 305.76 80.93 305.24 77.14L305.24 77.08L306.26 77.02L306.26 76.96L306.5 78.4L306.5 78.34L306.8 79.72L306.74 79.72L307.1 81.1L307.1 81.04L308.18 83.68L308.18 83.62L308.84 84.82L309.56 86.02L309.5 85.96L310.34 87.16L311.18 88.24L312.14 89.32L312.08 89.26L313.1 90.22L314.18 91.18L315.32 92.08L315.26 92.02L316.46 92.86L316.34 92.8L317.54 93.28L318.74 93.64L318.68 93.64L319.88 93.94L321.14 94.18L323.6 94.72L324.86 95.02L324.92 95.02L326.18 95.44L326.06 95.44L327.98 95.5L329.9 95.62L333.5 95.98L337.04 96.4L340.64 96.64L340.58 96.64L362.0 97.0Z"
     fill="#adb5bd"
     id="path135" />
  <path
     d="M305.24 77.08L305.12 75.58L305.12 75.52L306.14 75.52L306.26 77.02Z"
     fill="#adb5bd"
     id="path136" />
  <rect
     x="305.12"
     y="73.54"
     width="1.02"
     height="1.98"
     fill="#adb5bd"
     id="rect136" />
  <rect
     x="182.48"
     y="33.58"
     width="0.48"
     height="0.24"
     fill="#adb5bd"
     id="rect137" />
  <rect
     x="182.48"
     y="33.82"
     width="0.48"
     height="10.20"
     fill="#adb5bd"
     id="rect138" />
  <rect
     x="182.24"
     y="54.04"
     width="0.48"
     height="0.24"
     fill="#adb5bd"
     id="rect139" />
  <rect
     x="182.24"
     y="54.28"
     width="0.48"
     height="7.50"
     fill="#adb5bd"
     id="rect140" />
  <path
     d="M182.66 44.26L182.84 44.08L182.48 43.72L182.3 43.9Z"
     fill="#adb5bd"
     id="path140" />
  <path
     d="M176.12 50.98L175.94 51.16L175.58 50.8L175.76 50.62Z"
     fill="#adb5bd"
     id="path141" />
  <path
     d="M182.66 44.26L182.3 43.9L175.76 50.62L176.12 50.98Z"
     fill="#adb5bd"
     id="path142" />
  <text
     x="24.14"
     y="58.54"
     font-size="9.80"
     font-family="'Liberation Sans', Arial, Helvetica, sans-serif"
     textLength="14.12"
     lengthAdjust="spacingAndGlyphs"
     fill="#adb5bd"
     id="text142">Vin</text>
  <text
     x="79.76"
     y="59.08"
     font-size="9.80"
     font-family="'Liberation Sans', Arial, Helvetica, sans-serif"
     textLength="18.28"
     lengthAdjust="spacingAndGlyphs"
     fill="#adb5bd"
     id="text143">Vout</text>
  <text
     x="67.16"
     y="24.52"
     font-size="9.80"
     font-family="'Liberation Sans', Arial, Helvetica, sans-serif"
     textLength="15.79"
     lengthAdjust="spacingAndGlyphs"
     fill="#adb5bd"
     id="text144">Vcc</text>
  <text
     x="228.08"
     y="77.50"
     font-size="9.96"
     font-family="'Liberation Sans', Arial, Helvetica, sans-serif"
     textLength="6.69"
     lengthAdjust="spacingAndGlyphs"
     fill="#adb5bd"
     id="text145">C</text>
  <text
     x="175.59"
     y="26.56"
     font-size="9.96"
     font-family="'Liberation Sans', Arial, Helvetica, sans-serif"
     textLength="15.97"
     lengthAdjust="spacingAndGlyphs"
     fill="#adb5bd"
     id="text146">Vcc</text>
  <text
     x="110.36"
     y="63.70"
     font-size="9.80"
     font-family="'Liberation Sans', Arial, Helvetica, sans-serif"
     textLength="34.44"
     lengthAdjust="spacingAndGlyphs"
     fill="#adb5bd"
     id="text147">circuit A</text>
  <text
     x="286.82"
     y="8.14"
     font-size="9.33"
     font-family="'Liberation Sans', Arial, Helvetica, sans-serif"
     textLength="13.42"
     lengthAdjust="spacingAndGlyphs"
     fill="#adb5bd"
     id="text148">Vin</text>
  <text
     x="284.36"
     y="59.14"
     font-size="9.33"
     font-family="'Liberation Sans', Arial, Helvetica, sans-serif"
     textLength="17.38"
     lengthAdjust="spacingAndGlyphs"
     fill="#adb5bd"
     id="text149">Vout</text>
  <text
     x="276.62"
     y="113.74"
     font-size="9.33"
     font-family="'Liberation Sans', Arial, Helvetica, sans-serif"
     textLength="51.95"
     lengthAdjust="spacingAndGlyphs"
     fill="#adb5bd"
     id="text150">V(t) = Vcc · e</text>
  <text
     x="328.46"
     y="110.08"
     font-size="7.43"
     font-family="'Liberation Sans', Arial, Helvetica, sans-serif"
     textLength="16.51"
     lengthAdjust="spacingAndGlyphs"
     fill="#adb5bd"
     id="text151">-t/RC</text>
  <text
     x="262.46"
     y="75.40"
     font-size="9.33"
     font-family="'Liberation Sans', Arial, Helvetica, sans-serif"
     textLength="14.93"
     lengthAdjust="spacingAndGlyphs"
     fill="#adb5bd"
     id="text152">Vcc</text>
  <text
     x="228.20"
     y="64.30"
     font-size="9.96"
     font-family="'Liberation Sans', Arial, Helvetica, sans-serif"
     textLength="18.56"
     lengthAdjust="spacingAndGlyphs"
     fill="#adb5bd"
     id="text153">Vout</text>
  <text
     x="362.78"
     y="50.740002"
     font-size="9.33px"
     font-family="'Liberation Sans', Arial, Helvetica, sans-serif"
     textLength="2.6199999"
     lengthAdjust="spacingAndGlyphs"
     fill="#adb5bd"
     id="text154"
     transform="translate(0,2)">t</text>
  <text
     x="366.44"
     y="104.86"
     font-size="9.33px"
     font-family="'Liberation Sans', Arial, Helvetica, sans-serif"
     textLength="2.6199999"
     lengthAdjust="spacingAndGlyphs"
     fill="#adb5bd"
     id="text155"
     transform="translate(0,2)">t</text>
  <text
     x="172.04"
     y="75.70"
     font-size="9.96"
     font-family="'Liberation Sans', Arial, Helvetica, sans-serif"
     textLength="6.69"
     lengthAdjust="spacingAndGlyphs"
     fill="#adb5bd"
     id="text156">R</text>
</svg>
