<svg xmlns="http://www.w3.org/2000/svg" width="284" height="106" viewBox="0 0 284 106" fill="#adb5bd">
<rect x="60.32" y="78.22" width="19.86" height="0.48" fill="#adb5bd"/>
<rect x="7.94" y="72.34" width="65.76" height="11.70" fill="#666666"/>
<rect x="7.94" y="72.10" width="66.00" height="0.48" fill="#adb5bd"/>
<rect x="73.46" y="72.34" width="0.48" height="11.94" fill="#adb5bd"/>
<rect x="7.70" y="83.80" width="66.00" height="0.48" fill="#adb5bd"/>
<rect x="7.70" y="72.10" width="0.48" height="11.94" fill="#adb5bd"/>
<rect x="7.70" y="11.92" width="0.48" height="47.28" fill="#adb5bd"/>
<rect x="7.94" y="18.04" width="65.76" height="11.64" fill="#666666"/>
<rect x="7.94" y="17.80" width="66.00" height="0.48" fill="#adb5bd"/>
<rect x="73.46" y="18.04" width="0.48" height="11.88" fill="#adb5bd"/>
<rect x="7.70" y="29.44" width="66.00" height="0.48" fill="#adb5bd"/>
<rect x="7.70" y="17.80" width="0.48" height="11.88" fill="#adb5bd"/>
<rect x="73.82" y="23.62" width="33.78" height="0.48" fill="#adb5bd"/>
<rect x="107.12" y="17.80" width="0.48" height="12.12" fill="#adb5bd"/>
<rect x="7.94" y="37.48" width="87.72" height="11.70" fill="#666666"/>
<rect x="7.94" y="37.24" width="87.96" height="0.48" fill="#adb5bd"/>
<rect x="95.42" y="37.48" width="0.48" height="11.94" fill="#adb5bd"/>
<rect x="7.70" y="48.94" width="87.96" height="0.48" fill="#adb5bd"/>
<rect x="7.70" y="37.24" width="0.48" height="11.94" fill="#adb5bd"/>
<rect x="95.42" y="43.12" width="12.18" height="0.48" fill="#adb5bd"/>
<rect x="107.12" y="37.24" width="0.48" height="0.24" fill="#adb5bd"/>
<rect x="107.12" y="37.48" width="0.48" height="11.94" fill="#adb5bd"/>
<rect x="7.70" y="66.52" width="0.48" height="0.24" fill="#adb5bd"/>
<rect x="7.70" y="66.76" width="0.48" height="46.98" fill="#adb5bd"/>
<rect x="79.10" y="72.34" width="0.48" height="0.24" fill="#adb5bd"/>
<rect x="79.10" y="72.58" width="0.48" height="11.94" fill="#adb5bd"/>
<rect x="7.94" y="92.08" width="87.72" height="11.70" fill="#666666"/>
<rect x="7.94" y="91.84" width="87.96" height="0.48" fill="#adb5bd"/>
<rect x="95.42" y="92.08" width="0.48" height="11.94" fill="#adb5bd"/>
<rect x="7.70" y="103.54" width="87.96" height="0.48" fill="#adb5bd"/>
<rect x="7.70" y="91.84" width="0.48" height="11.94" fill="#adb5bd"/>
<rect x="94.76" y="97.90" width="0.24" height="0.48" fill="#adb5bd"/>
<rect x="95.00" y="97.90" width="56.70" height="0.48" fill="#adb5bd"/>
<rect x="79.10" y="89.92" width="0.48" height="0.24" fill="#adb5bd"/>
<rect x="79.10" y="90.16" width="0.48" height="17.76" fill="#adb5bd"/>
<rect x="151.16" y="92.26" width="0.48" height="0.24" fill="#adb5bd"/>
<rect x="151.16" y="92.50" width="0.48" height="11.94" fill="#adb5bd"/>
<text x="-64.06" y="-2.12" font-size="10.98" font-family="'Source Sans Pro', sans-serif" textLength="281.89" lengthAdjust="spacingAndGlyphs" fill="#adb5bd">flanc de rellotge. Suposem que inicialment el temps de cicle és t</text>
<text x="217.88" y="0.64" font-size="8.76" font-family="'Source Sans Pro', sans-serif" textLength="3.89" lengthAdjust="spacingAndGlyphs" fill="#adb5bd">c</text>
<text x="221.84" y="-2.12" font-size="10.98" font-family="'Source Sans Pro', sans-serif" textLength="90.46" lengthAdjust="spacingAndGlyphs" fill="#adb5bd"> i volem reduir-lo a t</text>
<text x="31.34" y="25.60" font-size="7.22" font-family="'Source Sans Pro', sans-serif" font-weight="bold" textLength="5.28" lengthAdjust="spacingAndGlyphs" fill="#adb5bd">A</text>
<text x="7.94" y="11.20" font-size="8.14" font-family="'Source Sans Pro', sans-serif" textLength="4.12" lengthAdjust="spacingAndGlyphs" fill="#adb5bd">0</text>
<text x="107.36" y="14.14" font-size="7.24" font-family="'Source Sans Pro', sans-serif" textLength="2.04" lengthAdjust="spacingAndGlyphs" fill="#adb5bd">t</text>
<text x="109.34" y="15.88" font-size="5.77" font-family="'Source Sans Pro', sans-serif" textLength="2.59" lengthAdjust="spacingAndGlyphs" fill="#adb5bd">c</text>
<text x="49.58" y="45.10" font-size="7.22" font-family="'Source Sans Pro', sans-serif" font-weight="bold" textLength="4.88" lengthAdjust="spacingAndGlyphs" fill="#adb5bd">B</text>
<text x="31.34" y="80.20" font-size="7.22" font-family="'Source Sans Pro', sans-serif" font-weight="bold" textLength="5.28" lengthAdjust="spacingAndGlyphs" fill="#adb5bd">A</text>
<text x="79.34" y="71.02" font-size="7.24" font-family="'Source Sans Pro', sans-serif" textLength="2.04" lengthAdjust="spacingAndGlyphs" fill="#adb5bd">t</text>
<text x="81.32" y="72.82" font-size="5.77" font-family="'Source Sans Pro', sans-serif" textLength="2.59" lengthAdjust="spacingAndGlyphs" fill="#adb5bd">c</text>
<text x="83.84" y="71.02" font-size="7.24" font-family="'Source Sans Pro', sans-serif" textLength="2.44" lengthAdjust="spacingAndGlyphs" fill="#adb5bd">’</text>
<text x="49.58" y="99.64" font-size="7.22" font-family="'Source Sans Pro', sans-serif" font-weight="bold" textLength="4.88" lengthAdjust="spacingAndGlyphs" fill="#adb5bd">B</text>
<text x="147.14" y="87.10" font-size="7.24" font-family="'Source Sans Pro', sans-serif" textLength="5.58" lengthAdjust="spacingAndGlyphs" fill="#adb5bd">2t</text>
<text x="152.72" y="88.90" font-size="5.77" font-family="'Source Sans Pro', sans-serif" textLength="2.59" lengthAdjust="spacingAndGlyphs" fill="#adb5bd">c</text>
<text x="155.24" y="87.10" font-size="7.24" font-family="'Source Sans Pro', sans-serif" textLength="1.32" lengthAdjust="spacingAndGlyphs" fill="#adb5bd">&#x27;</text>
<text x="164.60" y="34.54" font-size="10.07" font-family="'Source Sans Pro', sans-serif" textLength="108.41" lengthAdjust="spacingAndGlyphs" fill="#adb5bd">disseny inicial amb temps t</text>
<text x="272.96" y="37.00" font-size="8.00" font-family="'Source Sans Pro', sans-serif" textLength="3.59" lengthAdjust="spacingAndGlyphs" fill="#adb5bd">c</text>
<text x="162.80" y="85.66" font-size="10.07" font-family="'Source Sans Pro', sans-serif" textLength="81.01" lengthAdjust="spacingAndGlyphs" fill="#adb5bd">disseny amb temps t</text>
<text x="243.80" y="88.18" font-size="8.00" font-family="'Source Sans Pro', sans-serif" textLength="3.59" lengthAdjust="spacingAndGlyphs" fill="#adb5bd">c</text>
<text x="247.34" y="85.66" font-size="10.07" font-family="'Source Sans Pro', sans-serif" textLength="29.78" lengthAdjust="spacingAndGlyphs" fill="#adb5bd">&#x27; menor</text>
</svg>
