<svg width="620" height="340" viewBox="0 0 620 340" xmlns="http://www.w3.org/2000/svg" role="img">
<title>Evolució del rendiment relatiu de processador i memòria 1980–2010 (mode fosc)</title>
<desc>Gràfica de línies amb escala logarítmica que mostra la divergència creixent entre el rendiment del processador i el de la memòria principal entre 1980 i 2010.</desc>

<!-- Quadrícula horitzontal -->
<line x1="70" y1="280" x2="480" y2="280" stroke="#888" stroke-width="0.5"/>
<line x1="70" y1="230" x2="480" y2="230" stroke="#888" stroke-width="0.5"/>
<line x1="70" y1="180" x2="480" y2="180" stroke="#888" stroke-width="0.5"/>
<line x1="70" y1="130" x2="480" y2="130" stroke="#888" stroke-width="0.5"/>
<line x1="70" y1="80"  x2="480" y2="80"  stroke="#888" stroke-width="0.5"/>
<line x1="70" y1="30"  x2="480" y2="30"  stroke="#888" stroke-width="0.5"/>

<!-- Quadrícula vertical -->
<line x1="70"  y1="30" x2="70"  y2="280" stroke="#888" stroke-width="0.5"/>
<line x1="138" y1="30" x2="138" y2="280" stroke="#888" stroke-width="0.5"/>
<line x1="206" y1="30" x2="206" y2="280" stroke="#888" stroke-width="0.5"/>
<line x1="274" y1="30" x2="274" y2="280" stroke="#888" stroke-width="0.5"/>
<line x1="342" y1="30" x2="342" y2="280" stroke="#888" stroke-width="0.5"/>
<line x1="410" y1="30" x2="410" y2="280" stroke="#888" stroke-width="0.5"/>
<line x1="480" y1="30" x2="480" y2="280" stroke="#888" stroke-width="0.5"/>

<!-- Eixos -->
<line x1="70" y1="280" x2="488" y2="280" stroke="#adb5bd" stroke-width="1"/>
<line x1="70" y1="280" x2="70"  y2="20"  stroke="#adb5bd" stroke-width="1"/>

<!-- Etiquetes eix Y -->
<text x="62" y="284" font-family="'Source Sans Pro', sans-serif" font-size="11" fill="#adb5bd" text-anchor="end">1</text>
<text x="62" y="234" font-family="'Source Sans Pro', sans-serif" font-size="11" fill="#adb5bd" text-anchor="end">10</text>
<text x="62" y="184" font-family="'Source Sans Pro', sans-serif" font-size="11" fill="#adb5bd" text-anchor="end">100</text>
<text x="62" y="134" font-family="'Source Sans Pro', sans-serif" font-size="11" fill="#adb5bd" text-anchor="end">1.000</text>
<text x="62" y="84"  font-family="'Source Sans Pro', sans-serif" font-size="11" fill="#adb5bd" text-anchor="end">10.000</text>
<text x="62" y="34"  font-family="'Source Sans Pro', sans-serif" font-size="11" fill="#adb5bd" text-anchor="end">100.000</text>

<!-- Etiquetes eix X -->
<text x="70"  y="296" font-family="'Source Sans Pro', sans-serif" font-size="11" fill="#adb5bd" text-anchor="middle">1980</text>
<text x="138" y="296" font-family="'Source Sans Pro', sans-serif" font-size="11" fill="#adb5bd" text-anchor="middle">1985</text>
<text x="206" y="296" font-family="'Source Sans Pro', sans-serif" font-size="11" fill="#adb5bd" text-anchor="middle">1990</text>
<text x="274" y="296" font-family="'Source Sans Pro', sans-serif" font-size="11" fill="#adb5bd" text-anchor="middle">1995</text>
<text x="342" y="296" font-family="'Source Sans Pro', sans-serif" font-size="11" fill="#adb5bd" text-anchor="middle">2000</text>
<text x="410" y="296" font-family="'Source Sans Pro', sans-serif" font-size="11" fill="#adb5bd" text-anchor="middle">2005</text>
<text x="480" y="296" font-family="'Source Sans Pro', sans-serif" font-size="11" fill="#adb5bd" text-anchor="middle">2010</text>

<!-- Títol eix Y -->
<text x="16" y="155" font-family="'Source Sans Pro', sans-serif" font-size="11" fill="#adb5bd" text-anchor="middle" transform="rotate(-90,16,155)">Rendiment relatiu</text>

<!-- Corba Processador (blau clar) -->
<polyline
  points="70,280 83,271 97,262 111,251 125,239 138,227 152,214 165,201 179,188 193,175 206,162 220,154 233,143 247,130 261,120 274,110 288,102 301,93 315,86 329,80 342,75 356,71 369,67 383,64 397,62 410,60 424,58 437,56 451,55 465,54 480,53"
  fill="none" stroke="#90bfff" stroke-width="2" stroke-linejoin="round"/>

<!-- Corba Memòria (verd clar) -->
<polyline
  points="70,280 97,274 138,273 179,268 206,265 247,259 274,257 315,253 342,250 383,246 410,244 451,241 480,238"
  fill="none" stroke="#90d4aa" stroke-width="2" stroke-linejoin="round"/>

<!-- Etiquetes corbes -->
<text x="485" y="57"  font-family="'Source Sans Pro', sans-serif" font-size="12" fill="#90bfff" text-anchor="start">Processador</text>
<text x="485" y="242" font-family="'Source Sans Pro', sans-serif" font-size="12" fill="#90d4aa" text-anchor="start">Memòria</text>

<!-- Anotació gap -->
<line x1="480" y1="53"  x2="480" y2="238" stroke="#adb5bd" stroke-width="0.75" stroke-dasharray="4,3"/>
<text x="468" y="150" font-family="'Source Sans Pro', sans-serif" font-size="11" fill="#adb5bd" text-anchor="middle" transform="rotate(-90,468,150)">gap creixent</text>

</svg>
