<svg width="560" height="340" viewBox="0 0 560 340" xmlns="http://www.w3.org/2000/svg" role="img">
<title>Evolució del rendiment relatiu de processador i memòria 1980–2010 (mode fosc)</title>
<desc>Gràfica de línies amb escala logarítmica que mostra la divergència creixent entre el rendiment del processador i el de la memòria principal entre 1980 i 2010.</desc>

<!-- Quadrícula -->
<line x1="70" y1="280" x2="500" y2="280" stroke="#888" stroke-width="0.5"/>
<line x1="70" y1="230" x2="500" y2="230" stroke="#888" stroke-width="0.5"/>
<line x1="70" y1="180" x2="500" y2="180" stroke="#888" stroke-width="0.5"/>
<line x1="70" y1="130" x2="500" y2="130" stroke="#888" stroke-width="0.5"/>
<line x1="70" y1="80"  x2="500" y2="80"  stroke="#888" stroke-width="0.5"/>
<line x1="70" y1="30"  x2="500" y2="30"  stroke="#888" stroke-width="0.5"/>

<line x1="70"  y1="30" x2="70"  y2="280" stroke="#888" stroke-width="0.5"/>
<line x1="142" y1="30" x2="142" y2="280" stroke="#888" stroke-width="0.5"/>
<line x1="214" y1="30" x2="214" y2="280" stroke="#888" stroke-width="0.5"/>
<line x1="286" y1="30" x2="286" y2="280" stroke="#888" stroke-width="0.5"/>
<line x1="358" y1="30" x2="358" y2="280" stroke="#888" stroke-width="0.5"/>
<line x1="430" y1="30" x2="430" y2="280" stroke="#888" stroke-width="0.5"/>
<line x1="500" y1="30" x2="500" y2="280" stroke="#888" stroke-width="0.5"/>

<!-- Eixos -->
<line x1="70" y1="280" x2="510" y2="280" stroke="#adb5bd" stroke-width="1"/>
<line x1="70" y1="280" x2="70"  y2="20"  stroke="#adb5bd" stroke-width="1"/>

<!-- Etiquetes eix Y -->
<text x="62" y="284" font-family="'Source Sans Pro', sans-serif" font-size="11" fill="#adb5bd" text-anchor="end">1</text>
<text x="62" y="234" font-family="'Source Sans Pro', sans-serif" font-size="11" fill="#adb5bd" text-anchor="end">10</text>
<text x="62" y="184" font-family="'Source Sans Pro', sans-serif" font-size="11" fill="#adb5bd" text-anchor="end">100</text>
<text x="62" y="134" font-family="'Source Sans Pro', sans-serif" font-size="11" fill="#adb5bd" text-anchor="end">1.000</text>
<text x="62" y="84"  font-family="'Source Sans Pro', sans-serif" font-size="11" fill="#adb5bd" text-anchor="end">10.000</text>
<text x="62" y="34"  font-family="'Source Sans Pro', sans-serif" font-size="11" fill="#adb5bd" text-anchor="end">100.000</text>

<!-- Etiquetes eix X -->
<text x="70"  y="296" font-family="'Source Sans Pro', sans-serif" font-size="11" fill="#adb5bd" text-anchor="middle">1980</text>
<text x="142" y="296" font-family="'Source Sans Pro', sans-serif" font-size="11" fill="#adb5bd" text-anchor="middle">1985</text>
<text x="214" y="296" font-family="'Source Sans Pro', sans-serif" font-size="11" fill="#adb5bd" text-anchor="middle">1990</text>
<text x="286" y="296" font-family="'Source Sans Pro', sans-serif" font-size="11" fill="#adb5bd" text-anchor="middle">1995</text>
<text x="358" y="296" font-family="'Source Sans Pro', sans-serif" font-size="11" fill="#adb5bd" text-anchor="middle">2000</text>
<text x="430" y="296" font-family="'Source Sans Pro', sans-serif" font-size="11" fill="#adb5bd" text-anchor="middle">2005</text>
<text x="500" y="296" font-family="'Source Sans Pro', sans-serif" font-size="11" fill="#adb5bd" text-anchor="middle">2010</text>

<!-- Títol eix Y -->
<text x="16" y="155" font-family="'Source Sans Pro', sans-serif" font-size="11" fill="#adb5bd" text-anchor="middle" transform="rotate(-90,16,155)">Rendiment relatiu</text>

<!-- Corba Processador -->
<polyline
  points="70,280 142,230 214,180 286,130 358,80 399,57 430,53 500,47"
  fill="none" stroke="#90bfff" stroke-width="2" stroke-linejoin="round"/>

<!-- Corba Memòria -->
<polyline
  points="70,280 142,272 214,265 286,257 358,250 430,244 500,237"
  fill="none" stroke="#90d4aa" stroke-width="2" stroke-linejoin="round"/>

<!-- Etiquetes corbes -->
<text x="505" y="44"  font-family="'Source Sans Pro', sans-serif" font-size="12" fill="#90bfff">Processador</text>
<text x="505" y="234" font-family="'Source Sans Pro', sans-serif" font-size="12" fill="#90d4aa">Memòria</text>

<!-- Anotació gap -->
<line x1="500" y1="47"  x2="500" y2="237" stroke="#adb5bd" stroke-width="0.75" stroke-dasharray="4,3"/>
<text x="488" y="145" font-family="'Source Sans Pro', sans-serif" font-size="11" fill="#adb5bd" text-anchor="middle" transform="rotate(-90,488,145)">gap creixent</text>

</svg>
