<svg width="520" height="175" viewBox="0 0 520 175" xmlns="http://www.w3.org/2000/svg" role="img">
<title>Organització interna d'una memòria cau (mode fosc)</title>
<desc>Taula d'una memòria cau amb 4 línies, mostrant les columnes de bit de validesa V, etiqueta i bloc de dades. Tres línies vàlides i una buida.</desc>

<!-- Capçalera -->
<rect x="20"  y="20" width="40"  height="28" rx="3" fill="#3d3d3d" stroke="#888" stroke-width="0.5"/>
<rect x="60"  y="20" width="120" height="28" rx="3" fill="#3d3d3d" stroke="#888" stroke-width="0.5"/>
<rect x="180" y="20" width="300" height="28" rx="3" fill="#3d3d3d" stroke="#888" stroke-width="0.5"/>
<text x="40"  y="39" font-family="'Source Sans Pro', sans-serif" font-size="12" fill="#fff" text-anchor="middle" font-weight="bold">V</text>
<text x="120" y="39" font-family="'Source Sans Pro', sans-serif" font-size="12" fill="#fff" text-anchor="middle" font-weight="bold">Etiqueta</text>
<text x="330" y="39" font-family="'Source Sans Pro', sans-serif" font-size="12" fill="#fff" text-anchor="middle" font-weight="bold">Bloc de dades</text>

<!-- Línia 0: vàlida (blau fosc) -->
<rect x="20"  y="48" width="40"  height="28" rx="3" fill="#1a3a5c" stroke="#90bfff" stroke-width="1"/>
<rect x="60"  y="48" width="120" height="28" rx="3" fill="#1a3a5c" stroke="#90bfff" stroke-width="1"/>
<rect x="180" y="48" width="300" height="28" rx="3" fill="#1a3a5c" stroke="#90bfff" stroke-width="1"/>
<text x="40"  y="67" font-family="'Source Sans Pro', sans-serif" font-size="11" fill="#90bfff" text-anchor="middle">1</text>
<text x="120" y="67" font-family="'Source Sans Pro', sans-serif" font-size="11" fill="#90bfff" text-anchor="middle">0x100100F</text>
<text x="330" y="67" font-family="'Source Sans Pro', sans-serif" font-size="11" fill="#90bfff" text-anchor="middle">bloc de dades</text>

<!-- Línia 1: vàlida (blau fosc) -->
<rect x="20"  y="76" width="40"  height="28" rx="3" fill="#1a3a5c" stroke="#90bfff" stroke-width="1"/>
<rect x="60"  y="76" width="120" height="28" rx="3" fill="#1a3a5c" stroke="#90bfff" stroke-width="1"/>
<rect x="180" y="76" width="300" height="28" rx="3" fill="#1a3a5c" stroke="#90bfff" stroke-width="1"/>
<text x="40"  y="95" font-family="'Source Sans Pro', sans-serif" font-size="11" fill="#90bfff" text-anchor="middle">1</text>
<text x="120" y="95" font-family="'Source Sans Pro', sans-serif" font-size="11" fill="#90bfff" text-anchor="middle">0x7FFFF01</text>
<text x="330" y="95" font-family="'Source Sans Pro', sans-serif" font-size="11" fill="#90bfff" text-anchor="middle">bloc de dades</text>

<!-- Línia 2: vàlida (blau fosc) -->
<rect x="20"  y="104" width="40"  height="28" rx="3" fill="#1a3a5c" stroke="#90bfff" stroke-width="1"/>
<rect x="60"  y="104" width="120" height="28" rx="3" fill="#1a3a5c" stroke="#90bfff" stroke-width="1"/>
<rect x="180" y="104" width="300" height="28" rx="3" fill="#1a3a5c" stroke="#90bfff" stroke-width="1"/>
<text x="40"  y="123" font-family="'Source Sans Pro', sans-serif" font-size="11" fill="#90bfff" text-anchor="middle">1</text>
<text x="120" y="123" font-family="'Source Sans Pro', sans-serif" font-size="11" fill="#90bfff" text-anchor="middle">0x1001010</text>
<text x="330" y="123" font-family="'Source Sans Pro', sans-serif" font-size="11" fill="#90bfff" text-anchor="middle">bloc de dades</text>

<!-- Línia 3: buida (neutra fosca) -->
<rect x="20"  y="132" width="40"  height="28" rx="3" fill="#3d3d3d" stroke="#888" stroke-width="0.5"/>
<rect x="60"  y="132" width="120" height="28" rx="3" fill="#3d3d3d" stroke="#888" stroke-width="0.5"/>
<rect x="180" y="132" width="300" height="28" rx="3" fill="#3d3d3d" stroke="#888" stroke-width="0.5"/>
<text x="40"  y="151" font-family="'Source Sans Pro', sans-serif" font-size="11" fill="#adb5bd" text-anchor="middle">0</text>
<text x="120" y="151" font-family="'Source Sans Pro', sans-serif" font-size="11" fill="#adb5bd" text-anchor="middle">—</text>
<text x="330" y="151" font-family="'Source Sans Pro', sans-serif" font-size="11" fill="#adb5bd" text-anchor="middle">—</text>

</svg>
